<?xml version="1.0" encoding="UTF-8"?>
<svg version="1.1" xmlns="http://www.w3.org/2000/svg" width="512" height="512">
<path d="M0 0 C0.91949432 -0.00852997 1.83898865 -0.01705994 2.78634644 -0.02584839 C3.78797821 -0.02494202 4.78960999 -0.02403564 5.82159424 -0.02310181 C6.88222076 -0.02981903 7.94284729 -0.03653625 9.03561401 -0.04345703 C12.54667836 -0.06247534 16.05755188 -0.06636343 19.56866455 -0.06851196 C22.01001057 -0.07493808 24.45135581 -0.0816663 26.8927002 -0.08868408 C32.01387314 -0.10066706 37.13497858 -0.10436394 42.25616455 -0.10317993 C48.81106542 -0.10297689 55.36553202 -0.13026013 61.92033005 -0.16472435 C66.9647418 -0.1869898 72.00904908 -0.19101754 77.05350494 -0.18996048 C79.46957137 -0.19231769 81.88564063 -0.20114791 84.30165863 -0.21662521 C87.68621467 -0.23627357 91.06983485 -0.23045041 94.45440674 -0.21841431 C95.44794159 -0.22965332 96.44147644 -0.24089233 97.46511841 -0.25247192 C103.60775056 -0.19710895 108.27165592 0.75130804 113.39678955 4.26742554 C115.4553833 6.48617554 115.4553833 6.48617554 116.83428955 8.76742554 C117.30737549 9.52023804 117.78046143 10.27305054 118.2678833 11.04867554 C120.46375303 15.36443335 120.51556803 19.18593195 120.4944458 24.00180054 C120.49122314 25.29730835 120.48800049 26.59281616 120.48468018 27.92758179 C120.47632553 29.29086371 120.46786059 30.65414496 120.45928955 32.01742554 C120.45427123 33.39633019 120.4497089 34.77523658 120.44561768 36.15414429 C120.43383048 39.52528212 120.4173759 42.89633181 120.39678955 46.26742554 C121.66355026 46.25854309 122.93031097 46.24966064 124.23545837 46.24050903 C136.16864472 46.15945146 148.10177527 46.09947356 160.03517437 46.06017685 C166.17039646 46.03929488 172.30539646 46.0109655 178.44049072 45.96566772 C184.36029559 45.92223263 190.27988672 45.89829303 196.19983864 45.88791656 C198.4593117 45.88052107 200.71877297 45.86607955 202.97815514 45.84450531 C206.14098848 45.81550313 209.30293661 45.8114683 212.46588135 45.81332397 C213.4016803 45.79894287 214.33747925 45.78456177 215.30163574 45.76974487 C219.46955316 45.79623603 221.83444239 45.94696104 225.51747131 48.04580688 C227.39678955 50.26742554 227.39678955 50.26742554 227.39678955 54.26742554 C233.99678955 54.26742554 240.59678955 54.26742554 247.39678955 54.26742554 C247.72678955 52.61742554 248.05678955 50.96742554 248.39678955 49.26742554 C250.17460156 47.06961209 251.59396888 46.3709445 254.39139557 46.01023293 C257.00452323 45.89549131 259.59866138 45.89681889 262.21417236 45.92684937 C263.70734482 45.92619225 263.70734482 45.92619225 265.23068237 45.92552185 C268.52062602 45.92761169 271.81005994 45.95095243 275.09991455 45.97445679 C277.38105999 45.98005203 279.66220904 45.98432247 281.94335938 45.98731995 C287.94726515 45.99877426 293.9509532 46.02824674 299.95477295 46.06143188 C306.08124852 46.09211997 312.20775927 46.1058226 318.33428955 46.12094116 C330.35521854 46.15311568 342.37598594 46.20431932 354.39678955 46.26742554 C354.3810791 45.43082397 354.36536865 44.59422241 354.34918213 43.73226929 C354.2976995 40.59378394 354.26026847 37.45551565 354.23199463 34.31674194 C354.20969547 32.30406305 354.17155302 30.2915797 354.13311768 28.27914429 C354.06912975 19.79007964 354.59354367 13.83567808 359.08428955 6.51742554 C365.3185013 0.451706 371.86888336 -0.32159205 380.2756958 -0.26602173 C381.86751175 -0.27894508 381.86751175 -0.27894508 383.4914856 -0.29212952 C386.9810054 -0.31473489 390.46971865 -0.30806064 393.95928955 -0.29898071 C396.39492022 -0.30421834 398.83054886 -0.31049533 401.26617432 -0.31776428 C406.36352097 -0.32815827 411.46058827 -0.32362058 416.55792236 -0.30899048 C423.08146732 -0.29179702 429.60413196 -0.31531145 436.12757874 -0.35048008 C441.15486457 -0.37246628 446.18194012 -0.37100963 451.20925903 -0.36271477 C453.61415574 -0.36189608 456.01906802 -0.36874362 458.42391968 -0.38348579 C461.78912107 -0.40095497 465.15274463 -0.38636772 468.5178833 -0.36367798 C469.50513397 -0.37537018 470.49238464 -0.38706238 471.509552 -0.39910889 C478.81082525 -0.29922702 483.74453019 1.63863877 488.95561218 6.81622982 C492.34676831 10.69322519 493.51377432 13.6829652 493.55741882 18.74365234 C493.56746445 19.66032684 493.57751007 20.57700134 493.58786011 21.52145386 C493.5936911 22.52510986 493.59952209 23.52876587 493.60552979 24.56283569 C493.61531357 25.6217099 493.62509735 26.68058411 493.63517761 27.77154541 C493.66514221 31.28318015 493.68652185 34.79477672 493.7053833 38.30648804 C493.71195513 39.50608532 493.71852695 40.7056826 493.72529793 41.94163132 C493.75789854 48.2932187 493.78234598 54.64478927 493.80181885 60.99642944 C493.81962265 66.24993347 493.85442848 71.50289982 493.90435791 76.75619507 C493.96459152 83.10098037 493.99529958 89.44526756 494.00499153 95.79032516 C494.013543 98.2056088 494.03235323 100.62087925 494.06173515 103.0359993 C494.10071862 106.42313617 494.10167425 109.80833956 494.09381104 113.19564819 C494.11381165 114.18715881 494.13381226 115.17866943 494.15441895 116.20022583 C494.08091583 123.27966444 492.15902271 127.97836151 487.39678955 133.26742554 C482.80897292 136.84497095 478.02832469 138.3991709 472.27081299 138.38095093 C471.47028503 138.3808754 470.66975708 138.38079987 469.8449707 138.38072205 C468.56351166 138.37298012 468.56351166 138.37298012 467.25616455 138.36508179 C466.37398254 138.36366684 465.49180054 138.36225189 464.58288574 138.36079407 C461.7708189 138.35520555 458.95883225 138.34265515 456.14678955 138.32992554 C454.23793654 138.32490905 452.32908227 138.3203464 450.42022705 138.31625366 C445.74571708 138.30523988 441.0712669 138.28798312 436.39678955 138.26742554 C436.4439209 139.69623047 436.4439209 139.69623047 436.49200439 141.15390015 C436.60153541 144.72630278 436.66981718 148.29856086 436.72637939 151.87216187 C436.75634413 153.41147917 436.79713246 154.95062879 436.84942627 156.48934937 C437.35577568 171.78408002 437.35577568 171.78408002 432.47735596 178.50790405 C424.73972475 185.05156846 417.1558692 184.83920009 407.44195557 184.77536011 C405.91457049 184.77997253 404.38718985 184.78632775 402.85981846 184.79426908 C398.67463438 184.81093875 394.489816 184.80272689 390.30463076 184.79032421 C385.78648709 184.78126634 381.26840588 184.79524711 376.75027466 184.8062439 C367.90398182 184.82402582 359.05782478 184.82019058 350.21152663 184.80859333 C343.02165218 184.79955801 335.83181576 184.79833544 328.64193726 184.8026886 C327.6184473 184.80330153 326.59495734 184.80391446 325.54045254 184.80454597 C323.46122065 184.80582488 321.38198877 184.80712173 319.30275691 184.80843633 C299.80801774 184.81984118 280.31335382 184.80672992 260.818627 184.78523487 C244.0930159 184.76736398 227.36751584 184.77046812 210.64190674 184.78890991 C191.21669531 184.8103183 171.79154982 184.81874255 152.36632824 184.80646086 C150.29476612 184.80518667 148.22320399 184.80392918 146.15164185 184.8026886 C145.13240665 184.8020715 144.11317145 184.80145439 143.06305033 184.80081859 C135.88221723 184.7973656 128.70142598 184.80319295 121.52059937 184.81260681 C112.76897035 184.8238278 104.01748483 184.8207846 95.26587224 184.79948384 C90.80105775 184.7889748 86.33648247 184.78484909 81.87166977 184.79808044 C77.78320191 184.81001322 73.69519466 184.8034274 69.60676849 184.78217024 C68.12908694 184.77770791 66.65136636 184.77996221 65.17370999 184.78967339 C56.08090444 184.8448401 49.47824958 184.56478325 42.31622314 178.50790405 C36.92365599 171.07544135 37.72471503 162.94620326 38.02178955 154.20492554 C38.05193841 152.65614948 38.07930552 151.10731664 38.1038208 149.55844116 C38.16940534 145.79334825 38.27264142 142.03102392 38.39678955 138.26742554 C37.22696533 138.28313599 36.05714111 138.29884644 34.85186768 138.31503296 C30.483449 138.36961265 26.11506008 138.40387707 21.74639893 138.43222046 C19.86093058 138.44724347 17.9754968 138.46766784 16.09014893 138.4937439 C13.36935865 138.53041417 10.64903314 138.54721699 7.92803955 138.56039429 C7.09437866 138.57587814 6.26071777 138.591362 5.40179443 138.60731506 C-1.35675238 138.60922882 -6.56980575 137.19777398 -12.35321045 133.51742554 C-17.63650101 128.23413498 -19.05684477 123.77183591 -19.13421631 116.48239136 C-19.12454834 115.48840332 -19.11488037 114.49441528 -19.10491943 113.4703064 C-19.11032242 112.40602921 -19.1157254 111.34175201 -19.12129211 110.245224 C-19.13376065 106.7406196 -19.11730105 103.2368396 -19.0993042 99.73226929 C-19.09945922 97.29042009 -19.10094868 94.84857065 -19.10371399 92.40672302 C-19.10509711 87.29499402 -19.09255299 82.1835459 -19.06976318 77.0718689 C-19.04136422 70.52249735 -19.04412134 63.97359187 -19.05685329 57.42418575 C-19.06381041 52.38413009 -19.05602097 47.34418201 -19.04359627 42.30414009 C-19.03908318 39.88923111 -19.03874371 37.47431058 -19.04266167 35.05940056 C-19.04557449 31.68440978 -19.029063 28.31005991 -19.00726318 24.93515015 C-19.01176483 23.93913788 -19.01626648 22.94312561 -19.02090454 21.91693115 C-18.95463543 15.7367893 -18.27687304 11.17061368 -13.9196167 6.43930054 C-13.34082764 5.97008179 -12.76203857 5.50086304 -12.16571045 5.01742554 C-11.58949951 4.53789429 -11.01328857 4.05836304 -10.4196167 3.56430054 C-6.94034194 1.08017318 -4.2971505 0.01806888 0 0 Z " fill="#FD79B7" transform="translate(18.60321044921875,223.73257446289063)"/>
<path d="M0 0 C6.30395535 4.89369094 11.76399154 10.21241939 16 17 C20.32303435 15.66983558 24.30835836 13.97725764 28.36328125 12 C44.24947393 5.97501433 62.52023669 7.72662175 77.875 14.21484375 C94.27927284 22.2538695 104.84841885 36.84866865 110.97265625 53.671875 C112.54057923 58.4850339 113.79781719 62.91391541 113 68 C112.17757813 68.69480469 111.35515625 69.38960938 110.5078125 70.10546875 C106.98804198 74.16800763 107.25544084 77.29519134 107.375 82.5 C107.35566406 83.34175781 107.33632813 84.18351562 107.31640625 85.05078125 C107.35183903 89.55074471 107.42393589 91.35992876 110.53125 94.8125 C111.75328125 95.8953125 111.75328125 95.8953125 113 97 C115.18895576 107.90637606 106.5393121 122.11543096 101 131 C94.67898899 140.10926298 87.85696869 146.79242025 78.35546875 152.51953125 C75.92875555 153.92298215 75.92875555 153.92298215 74 156 C74.51691406 157.134375 75.03382813 158.26875 75.56640625 159.4375 C76.23275537 160.95790222 76.89806502 162.4787603 77.5625 164 C77.90474609 164.74378906 78.24699219 165.48757812 78.59960938 166.25390625 C80.94149447 171.69464939 81.36578266 175.2016318 80 181 C78.03140592 184.79082429 75.00000696 187.50259705 71 189 C67.765625 189.1953125 67.765625 189.1953125 64.25 189.125 C63.07953125 189.10695312 61.9090625 189.08890625 60.703125 189.0703125 C59.81109375 189.04710937 58.9190625 189.02390625 58 189 C58.00888245 189.59246521 58.01776489 190.18493042 58.0269165 190.79534912 C58.11538296 196.95949662 58.17573126 203.12346393 58.21972656 209.28808594 C58.23984688 211.58894169 58.26714634 213.88974629 58.30175781 216.19042969 C58.35025612 219.49687317 58.37296478 222.80264085 58.390625 226.109375 C58.41127014 227.13867126 58.43191528 228.16796753 58.45318604 229.22845459 C58.4554306 236.36573386 58.4554306 236.36573386 56.10058594 239.64526367 C53.85523889 241.09336116 52.65352136 241.56768266 50 241.5625 C49.01 241.59537109 49.01 241.59537109 48 241.62890625 C44.69265126 240.5889001 43.79032372 238.95380402 42 236 C41.44606771 232.40627968 41.53463019 228.85911039 41.609375 225.23046875 C41.61503479 224.19432938 41.62069458 223.15819 41.62652588 222.09065247 C41.64887334 218.78912692 41.69906822 215.48869619 41.75 212.1875 C41.77006704 209.94597924 41.78831745 207.70444143 41.8046875 205.46289062 C41.84873267 199.9748884 41.91562882 194.48752243 42 189 C41.17435547 189.01305176 40.34871094 189.02610352 39.49804688 189.03955078 C38.41587891 189.04970215 37.33371094 189.05985352 36.21875 189.0703125 C35.14560547 189.08336426 34.07246094 189.09641602 32.96679688 189.10986328 C29.20771831 188.97066106 27.01453917 188.26090438 24 186 C20.47830293 182.10759797 19.26779505 178.85067706 19.4609375 173.71484375 C20.4311249 168.82875503 22.59502043 164.43151866 24.6875 159.94140625 C26.13582944 157.23242174 26.13582944 157.23242174 26 155 C24.35844231 153.848238 22.65887603 152.77865539 20.9375 151.75 C11.38601203 145.78489449 5.51871184 139.13506557 -1 130 C-4.63 131.98 -8.26 133.96 -12 136 C-11.18872921 138.12546959 -10.37594602 140.25036195 -9.5625 142.375 C-8.88380859 144.15003906 -8.88380859 144.15003906 -8.19140625 145.9609375 C-7.10728088 148.86036193 -7.10728088 148.86036193 -6 151 C-5.45682427 155.9509132 -5.47758051 159.89488185 -7.625 164.4375 C-10.43699251 167.47149192 -12.03802631 168.72650846 -16 170 C-18.07162924 170.07671438 -20.14585414 170.0955234 -22.21875 170.0703125 C-23.30091797 170.06016113 -24.38308594 170.05000977 -25.49804688 170.03955078 C-26.32369141 170.02649902 -27.14933594 170.01344727 -28 170 C-27.99111755 170.81574997 -27.98223511 171.63149994 -27.9730835 172.4719696 C-27.8928709 180.1669222 -27.83200205 187.86167154 -27.79275131 195.5569334 C-27.77189348 199.51299083 -27.74360964 203.46870225 -27.69824219 207.42456055 C-27.65471879 211.24360864 -27.63084931 215.06232433 -27.62049103 218.88160133 C-27.6131112 220.33726038 -27.5986998 221.79290162 -27.57707977 223.24841881 C-27.54795724 225.29060267 -27.54404736 227.33142054 -27.54589844 229.3737793 C-27.53701599 230.53515915 -27.52813354 231.696539 -27.51898193 232.89311218 C-28.10171619 236.65698321 -29.35227169 238.31344333 -32 241 C-34 241.6640625 -34 241.6640625 -36 241.625 C-36.66 241.63789063 -37.32 241.65078125 -38 241.6640625 C-41.13485001 240.62319433 -42.20224398 238.71322227 -44 236 C-44.48101807 232.89311218 -44.48101807 232.89311218 -44.45410156 229.3737793 C-44.45468567 228.72931351 -44.45526978 228.08484772 -44.45587158 227.42085266 C-44.45309954 225.30474728 -44.42205361 223.19007595 -44.390625 221.07421875 C-44.38315937 219.60163645 -44.37746796 218.12904417 -44.37347412 216.65644836 C-44.35824282 212.79121194 -44.31898363 208.92658215 -44.2746582 205.06158447 C-44.23365082 201.11340541 -44.2154515 197.16512778 -44.1953125 193.21679688 C-44.15248605 185.47758881 -44.08426624 177.73887959 -44 170 C-44.82564453 170.01305176 -45.65128906 170.02610352 -46.50195312 170.03955078 C-47.58412109 170.04970215 -48.66628906 170.05985352 -49.78125 170.0703125 C-50.85439453 170.08336426 -51.92753906 170.09641602 -53.03320312 170.10986328 C-56.79228169 169.97066106 -58.98546083 169.26090438 -62 167 C-65.797777 162.9023985 -66.72157853 159.37101629 -66.5390625 153.9453125 C-65.4403971 147.94245949 -62.64320353 142.45947395 -60 137 C-63.51935635 134.09817978 -66.85528561 131.92777413 -71 130 C-71.44730469 130.59167969 -71.89460938 131.18335938 -72.35546875 131.79296875 C-75.68398604 136.1434615 -78.97196372 140.26669808 -83 144 C-83.60714844 144.56589844 -84.21429688 145.13179687 -84.83984375 145.71484375 C-88.98831865 149.48111751 -93.03047249 152.41170442 -98 155 C-96.6278668 159.29156555 -95.27302023 163.43373582 -93.3125 167.5 C-91.68509368 171.83975018 -91.25774417 175.42136571 -92 180 C-93.73698733 183.60758907 -95.31330861 185.48498146 -98.5 187.875 C-102.04553291 189.01463558 -104.52522429 189.11523376 -108.21875 189.0703125 C-109.84200195 189.05508545 -109.84200195 189.05508545 -111.49804688 189.03955078 C-112.32369141 189.02649902 -113.14933594 189.01344727 -114 189 C-113.99111755 189.57771652 -113.98223511 190.15543304 -113.9730835 190.75065613 C-113.88452068 196.76897274 -113.82422877 202.78710394 -113.78027344 208.8059082 C-113.7601706 211.05142741 -113.73288395 213.29689435 -113.69824219 215.54223633 C-113.6496669 218.7717784 -113.62701763 222.00062775 -113.609375 225.23046875 C-113.58872986 226.23272995 -113.56808472 227.23499115 -113.54681396 228.2676239 C-113.54538663 232.71130663 -113.55627591 235.26791229 -115.89941406 239.13378906 C-118.1642796 241.14594994 -119.01726104 241.66153625 -122 241.5625 C-122.66 241.56378906 -123.32 241.56507813 -124 241.56640625 C-127.123711 240.68176153 -128.08137792 239.67201417 -130 237 C-130.57211263 233.37065429 -130.46415488 229.77532391 -130.390625 226.109375 C-130.38496521 225.04962463 -130.37930542 223.98987427 -130.37347412 222.89801025 C-130.3510924 219.51487972 -130.30089098 216.13281016 -130.25 212.75 C-130.2299374 210.45574447 -130.21168621 208.16147233 -130.1953125 205.8671875 C-130.1512218 200.24442997 -130.08429136 194.62229079 -130 189 C-130.89638184 189.02030273 -131.79276367 189.04060547 -132.71630859 189.06152344 C-133.89016113 189.07731445 -135.06401367 189.09310547 -136.2734375 189.109375 C-138.02019775 189.1398291 -138.02019775 189.1398291 -139.80224609 189.17089844 C-145.1204698 188.88667515 -147.06453255 186.86872719 -150.8125 183.25 C-152.94722774 179.2052527 -153.51302895 175.07463795 -152.42163086 170.66113281 C-151.5487214 168.23203736 -150.586904 165.86905483 -149.5625 163.5 C-149.22412109 162.67757812 -148.88574219 161.85515625 -148.53710938 161.0078125 C-147.70765281 158.99842477 -146.85606502 156.99819666 -146 155 C-146.90878906 154.50693359 -146.90878906 154.50693359 -147.8359375 154.00390625 C-165.39794712 144.03408848 -177.68572756 128.12147603 -183.28515625 108.76953125 C-189.65012535 84.94799954 -188.50197745 60.63527423 -176.25 38.8125 C-166.59500866 23.65440927 -152.7066003 13.58462464 -135.21557617 9.39257812 C-131.07463054 8.65884363 -126.9452959 8.66121512 -122.75 8.6875 C-121.82340576 8.69241455 -120.89681152 8.6973291 -119.94213867 8.70239258 C-109.53270973 8.88002788 -101.10782914 10.99424907 -91.9609375 16.01171875 C-90.06831677 17.15001918 -90.06831677 17.15001918 -88 17 C-86.49918053 15.24722999 -86.49918053 15.24722999 -84.9375 13 C-78.99743895 5.25367548 -72.66760062 0.03691859 -64 -4.375 C-63.34781494 -4.70894775 -62.69562988 -5.04289551 -62.02368164 -5.38696289 C-42.62081884 -14.77560072 -17.57757337 -11.66914534 0 0 Z " fill="#010100" transform="translate(292,10)"/>
<path d="M0 0 C0.91949432 -0.00852997 1.83898865 -0.01705994 2.78634644 -0.02584839 C3.78797821 -0.02494202 4.78960999 -0.02403564 5.82159424 -0.02310181 C6.88222076 -0.02981903 7.94284729 -0.03653625 9.03561401 -0.04345703 C12.54667836 -0.06247534 16.05755188 -0.06636343 19.56866455 -0.06851196 C22.01001057 -0.07493808 24.45135581 -0.0816663 26.8927002 -0.08868408 C32.01387314 -0.10066706 37.13497858 -0.10436394 42.25616455 -0.10317993 C48.81106542 -0.10297689 55.36553202 -0.13026013 61.92033005 -0.16472435 C66.9647418 -0.1869898 72.00904908 -0.19101754 77.05350494 -0.18996048 C79.46957137 -0.19231769 81.88564063 -0.20114791 84.30165863 -0.21662521 C87.68621467 -0.23627357 91.06983485 -0.23045041 94.45440674 -0.21841431 C95.44794159 -0.22965332 96.44147644 -0.24089233 97.46511841 -0.25247192 C103.60775056 -0.19710895 108.27165592 0.75130804 113.39678955 4.26742554 C115.4553833 6.48617554 115.4553833 6.48617554 116.83428955 8.76742554 C117.30737549 9.52023804 117.78046143 10.27305054 118.2678833 11.04867554 C120.46375303 15.36443335 120.51556803 19.18593195 120.4944458 24.00180054 C120.49122314 25.29730835 120.48800049 26.59281616 120.48468018 27.92758179 C120.47632553 29.29086371 120.46786059 30.65414496 120.45928955 32.01742554 C120.45427123 33.39633019 120.4497089 34.77523658 120.44561768 36.15414429 C120.43383048 39.52528212 120.4173759 42.89633181 120.39678955 46.26742554 C121.66355026 46.25854309 122.93031097 46.24966064 124.23545837 46.24050903 C136.16864472 46.15945146 148.10177527 46.09947356 160.03517437 46.06017685 C166.17039646 46.03929488 172.30539646 46.0109655 178.44049072 45.96566772 C184.36029559 45.92223263 190.27988672 45.89829303 196.19983864 45.88791656 C198.4593117 45.88052107 200.71877297 45.86607955 202.97815514 45.84450531 C206.14098848 45.81550313 209.30293661 45.8114683 212.46588135 45.81332397 C213.4016803 45.79894287 214.33747925 45.78456177 215.30163574 45.76974487 C219.53524977 45.79665359 221.80474767 45.90611271 225.48963928 48.15493774 C227.39678955 50.26742554 227.39678955 50.26742554 227.84210205 52.52133179 C227.73639893 53.28316772 227.6306958 54.04500366 227.52178955 54.82992554 C227.44186768 55.5943396 227.3619458 56.35875366 227.27960205 57.14633179 C226.00134275 60.21754772 224.36527762 60.83162116 221.39678955 62.26742554 C218.17344952 62.65218639 218.17344952 62.65218639 214.45555115 62.66615295 C213.76932578 62.67279978 213.08310041 62.67944661 212.37608033 62.68629485 C210.08359632 62.70490265 207.79163525 62.70232117 205.49908447 62.69979858 C203.8530402 62.70881713 202.20700266 62.71914458 200.56097412 62.73068237 C196.09651883 62.75826771 191.63219091 62.76753897 187.16766143 62.77353644 C182.50044056 62.78291611 177.83331498 62.80911918 173.16615295 62.83354187 C164.33005451 62.87722176 155.49397455 62.90575958 146.65780097 62.92886525 C136.59736215 62.95590893 126.53701913 62.99982096 116.47664869 63.04515398 C95.78341383 63.13802159 75.0901503 63.20969266 54.39678955 63.26742554 C54.35052799 76.66240159 54.31495187 90.05735875 54.29316521 103.4523983 C54.28271076 109.67169381 54.26852134 115.89093483 54.24591064 122.11019897 C54.2242414 128.10777958 54.21223345 134.10530763 54.20703506 140.10292435 C54.20332864 142.39555311 54.19609134 144.68817887 54.18532944 146.98078537 C54.17089319 150.18235324 54.1688083 153.38370165 54.16973877 156.58529663 C54.15895294 158.01919991 54.15895294 158.01919991 54.14794922 159.48207092 C54.15069855 160.35147812 54.15344788 161.22088531 54.15628052 162.11663818 C54.15351514 163.25320893 54.15351514 163.25320893 54.15069389 164.41274071 C54.23830365 166.51424175 54.23830365 166.51424175 56.39678955 168.26742554 C59.08596246 168.57188456 59.08596246 168.57188456 62.29078674 168.51910782 C63.55452464 168.52432331 64.81826254 168.52953881 66.12029552 168.53491235 C67.53578433 168.53058756 68.95127258 168.52607421 70.36676025 168.52139282 C71.86024026 168.52369516 73.35371914 168.52687015 74.84719563 168.53084731 C78.96621596 168.53923518 83.08514422 168.53505204 87.20416498 168.52887487 C91.64048051 168.52436762 96.07677971 168.53132552 100.51309204 168.53683472 C109.20977002 168.5457489 117.90641356 168.54379772 126.60309291 168.53800943 C133.66824931 168.53350089 140.73339604 168.53287653 147.79855347 168.53505707 C148.80238581 168.53536353 149.80621815 168.53567 150.84046966 168.53598575 C152.87944913 168.53662517 154.9184286 168.5372736 156.95740807 168.53793094 C176.09710875 168.54364016 195.23679031 168.53706706 214.37648785 168.5263302 C230.81523081 168.51739416 247.25394554 168.51894603 263.69268799 168.52816772 C282.76180455 168.53885991 301.83090432 168.54309078 320.90002346 168.5369432 C322.93169085 168.53630607 324.96335824 168.53567733 326.99502563 168.53505707 C327.99476215 168.53474852 328.99449867 168.53443997 330.02453023 168.53412206 C337.08486953 168.53239196 344.14519823 168.535317 351.20553589 168.54001617 C359.80446338 168.54561335 368.40335433 168.54413318 377.00227761 168.53345469 C381.39333753 168.52818222 385.78433644 168.52616786 390.17539597 168.53275299 C394.1896478 168.53868219 398.20378168 168.5354879 402.2180227 168.52479789 C403.67559198 168.52255091 405.13317109 168.52372892 406.59073412 168.52854946 C408.56141352 168.53457055 410.53212055 168.52724086 412.50279236 168.51910782 C413.60061885 168.51878311 414.69844534 168.51845841 415.8295393 168.51812387 C418.56196987 168.52560215 418.56196987 168.52560215 420.39678955 166.26742554 C420.69398066 164.34520333 420.69398066 164.34520333 420.63729858 162.11663818 C420.64004791 161.24723099 420.64279724 160.37782379 420.64562988 159.48207092 C420.63843933 158.52613541 420.63124878 157.57019989 420.62384033 156.58529663 C420.62427841 155.0779319 420.62427841 155.0779319 420.62472534 153.54011536 C420.62332811 150.20694447 420.60774837 146.87399504 420.59210205 143.54086304 C420.58837332 141.23443728 420.58552569 138.92800994 420.58352661 136.62158203 C420.57587914 130.54208018 420.55622109 124.46267343 420.53411865 118.38320923 C420.51368419 112.18316942 420.50453004 105.98311429 420.4944458 99.78305054 C420.47297625 87.61113368 420.4388269 75.43928751 420.39678955 63.26742554 C419.53557149 63.26688077 418.67435343 63.266336 417.78703785 63.26577473 C396.83871809 63.25081218 375.89061128 63.20838667 354.94241047 63.13533497 C344.81202597 63.1006711 334.68177774 63.07532761 324.55133057 63.0718689 C315.72236443 63.06883095 306.8936409 63.04836327 298.06476849 63.00690097 C293.38919867 62.98555388 288.71397389 62.9729791 284.03835487 62.98127174 C279.63788405 62.98880112 275.238113 62.9730349 270.83777046 62.93936539 C269.22249667 62.93111861 267.60715346 62.93139811 265.99188614 62.94082832 C263.78576176 62.95243337 261.58193731 62.93336332 259.37599182 62.90666199 C258.14171102 62.90389661 256.90743021 62.90113123 255.63574696 62.89828205 C251.47369804 62.08763364 249.98256778 60.56620423 247.39678955 57.26742554 C246.77178955 53.70492554 246.77178955 53.70492554 247.39678955 50.26742554 C249.52341883 47.84361317 251.25520106 46.46178222 254.4851017 45.91188812 C257.10792583 45.77391087 259.70149108 45.77296515 262.32769775 45.81332397 C263.82108925 45.81244781 263.82108925 45.81244781 265.34465027 45.81155396 C268.62931406 45.81433652 271.9130659 45.84543767 275.1975708 45.87680054 C277.47728479 45.88426229 279.7570052 45.88995553 282.03672791 45.89395142 C288.03247839 45.9092128 294.02784036 45.94849952 300.0234375 45.99276733 C306.14327743 46.03370882 312.26318023 46.05196007 318.38311768 46.07211304 C330.38784552 46.11499283 342.39228521 46.18325071 354.39678955 46.26742554 C354.3810791 45.43082397 354.36536865 44.59422241 354.34918213 43.73226929 C354.2976995 40.59378394 354.26026847 37.45551565 354.23199463 34.31674194 C354.20969547 32.30406305 354.17155302 30.2915797 354.13311768 28.27914429 C354.06912975 19.79007964 354.59354367 13.83567808 359.08428955 6.51742554 C365.3185013 0.451706 371.86888336 -0.32159205 380.2756958 -0.26602173 C381.86751175 -0.27894508 381.86751175 -0.27894508 383.4914856 -0.29212952 C386.9810054 -0.31473489 390.46971865 -0.30806064 393.95928955 -0.29898071 C396.39492022 -0.30421834 398.83054886 -0.31049533 401.26617432 -0.31776428 C406.36352097 -0.32815827 411.46058827 -0.32362058 416.55792236 -0.30899048 C423.08146732 -0.29179702 429.60413196 -0.31531145 436.12757874 -0.35048008 C441.15486457 -0.37246628 446.18194012 -0.37100963 451.20925903 -0.36271477 C453.61415574 -0.36189608 456.01906802 -0.36874362 458.42391968 -0.38348579 C461.78912107 -0.40095497 465.15274463 -0.38636772 468.5178833 -0.36367798 C469.50513397 -0.37537018 470.49238464 -0.38706238 471.509552 -0.39910889 C478.81082525 -0.29922702 483.74453019 1.63863877 488.95561218 6.81622982 C492.34676831 10.69322519 493.51377432 13.6829652 493.55741882 18.74365234 C493.56746445 19.66032684 493.57751007 20.57700134 493.58786011 21.52145386 C493.5936911 22.52510986 493.59952209 23.52876587 493.60552979 24.56283569 C493.61531357 25.6217099 493.62509735 26.68058411 493.63517761 27.77154541 C493.66514221 31.28318015 493.68652185 34.79477672 493.7053833 38.30648804 C493.71195513 39.50608532 493.71852695 40.7056826 493.72529793 41.94163132 C493.75789854 48.2932187 493.78234598 54.64478927 493.80181885 60.99642944 C493.81962265 66.24993347 493.85442848 71.50289982 493.90435791 76.75619507 C493.96459152 83.10098037 493.99529958 89.44526756 494.00499153 95.79032516 C494.013543 98.2056088 494.03235323 100.62087925 494.06173515 103.0359993 C494.10071862 106.42313617 494.10167425 109.80833956 494.09381104 113.19564819 C494.11381165 114.18715881 494.13381226 115.17866943 494.15441895 116.20022583 C494.08091583 123.27966444 492.15902271 127.97836151 487.39678955 133.26742554 C482.80897292 136.84497095 478.02832469 138.3991709 472.27081299 138.38095093 C471.47028503 138.3808754 470.66975708 138.38079987 469.8449707 138.38072205 C468.56351166 138.37298012 468.56351166 138.37298012 467.25616455 138.36508179 C466.37398254 138.36366684 465.49180054 138.36225189 464.58288574 138.36079407 C461.7708189 138.35520555 458.95883225 138.34265515 456.14678955 138.32992554 C454.23793654 138.32490905 452.32908227 138.3203464 450.42022705 138.31625366 C445.74571708 138.30523988 441.0712669 138.28798312 436.39678955 138.26742554 C436.4439209 139.69623047 436.4439209 139.69623047 436.49200439 141.15390015 C436.60153541 144.72630278 436.66981718 148.29856086 436.72637939 151.87216187 C436.75634413 153.41147917 436.79713246 154.95062879 436.84942627 156.48934937 C437.35577568 171.78408002 437.35577568 171.78408002 432.47735596 178.50790405 C424.73972475 185.05156846 417.1558692 184.83920009 407.44195557 184.77536011 C405.91457049 184.77997253 404.38718985 184.78632775 402.85981846 184.79426908 C398.67463438 184.81093875 394.489816 184.80272689 390.30463076 184.79032421 C385.78648709 184.78126634 381.26840588 184.79524711 376.75027466 184.8062439 C367.90398182 184.82402582 359.05782478 184.82019058 350.21152663 184.80859333 C343.02165218 184.79955801 335.83181576 184.79833544 328.64193726 184.8026886 C327.6184473 184.80330153 326.59495734 184.80391446 325.54045254 184.80454597 C323.46122065 184.80582488 321.38198877 184.80712173 319.30275691 184.80843633 C299.80801774 184.81984118 280.31335382 184.80672992 260.818627 184.78523487 C244.0930159 184.76736398 227.36751584 184.77046812 210.64190674 184.78890991 C191.21669531 184.8103183 171.79154982 184.81874255 152.36632824 184.80646086 C150.29476612 184.80518667 148.22320399 184.80392918 146.15164185 184.8026886 C145.13240665 184.8020715 144.11317145 184.80145439 143.06305033 184.80081859 C135.88221723 184.7973656 128.70142598 184.80319295 121.52059937 184.81260681 C112.76897035 184.8238278 104.01748483 184.8207846 95.26587224 184.79948384 C90.80105775 184.7889748 86.33648247 184.78484909 81.87166977 184.79808044 C77.78320191 184.81001322 73.69519466 184.8034274 69.60676849 184.78217024 C68.12908694 184.77770791 66.65136636 184.77996221 65.17370999 184.78967339 C56.08090444 184.8448401 49.47824958 184.56478325 42.31622314 178.50790405 C36.92365599 171.07544135 37.72471503 162.94620326 38.02178955 154.20492554 C38.05193841 152.65614948 38.07930552 151.10731664 38.1038208 149.55844116 C38.16940534 145.79334825 38.27264142 142.03102392 38.39678955 138.26742554 C37.22696533 138.28313599 36.05714111 138.29884644 34.85186768 138.31503296 C30.483449 138.36961265 26.11506008 138.40387707 21.74639893 138.43222046 C19.86093058 138.44724347 17.9754968 138.46766784 16.09014893 138.4937439 C13.36935865 138.53041417 10.64903314 138.54721699 7.92803955 138.56039429 C7.09437866 138.57587814 6.26071777 138.591362 5.40179443 138.60731506 C-1.35675238 138.60922882 -6.56980575 137.19777398 -12.35321045 133.51742554 C-17.63650101 128.23413498 -19.05684477 123.77183591 -19.13421631 116.48239136 C-19.12454834 115.48840332 -19.11488037 114.49441528 -19.10491943 113.4703064 C-19.11032242 112.40602921 -19.1157254 111.34175201 -19.12129211 110.245224 C-19.13376065 106.7406196 -19.11730105 103.2368396 -19.0993042 99.73226929 C-19.09945922 97.29042009 -19.10094868 94.84857065 -19.10371399 92.40672302 C-19.10509711 87.29499402 -19.09255299 82.1835459 -19.06976318 77.0718689 C-19.04136422 70.52249735 -19.04412134 63.97359187 -19.05685329 57.42418575 C-19.06381041 52.38413009 -19.05602097 47.34418201 -19.04359627 42.30414009 C-19.03908318 39.88923111 -19.03874371 37.47431058 -19.04266167 35.05940056 C-19.04557449 31.68440978 -19.029063 28.31005991 -19.00726318 24.93515015 C-19.01176483 23.93913788 -19.01626648 22.94312561 -19.02090454 21.91693115 C-18.95463543 15.7367893 -18.27687304 11.17061368 -13.9196167 6.43930054 C-13.34082764 5.97008179 -12.76203857 5.50086304 -12.16571045 5.01742554 C-11.58949951 4.53789429 -11.01328857 4.05836304 -10.4196167 3.56430054 C-6.94034194 1.08017318 -4.2971505 0.01806888 0 0 Z " fill="#010001" transform="translate(18.60321044921875,223.73257446289063)"/>
<path d="M0 0 C3.12062588 0.57317618 4.84070068 1.293727 7.03491211 3.60327148 C9.49160481 8.28727217 8.54770793 14.23893196 8.375 19.375 C8.35244141 20.64021484 8.32988281 21.90542969 8.30664062 23.20898438 C8.24780392 26.32732979 8.15812681 29.44506589 8.0625 32.5625 C14.9925 32.5625 21.9225 32.5625 29.0625 32.5625 C29.01609375 30.58765625 28.9696875 28.6128125 28.921875 26.578125 C28.88436012 23.98959843 28.84795966 21.40105554 28.8125 18.8125 C28.76222656 16.85957031 28.76222656 16.85957031 28.7109375 14.8671875 C28.69804687 13.61679687 28.68515625 12.36640625 28.671875 11.078125 C28.65092773 9.92602539 28.62998047 8.77392578 28.60839844 7.58691406 C29.16116517 3.90536874 30.10066751 2.75454603 33.0625 0.5625 C36.5625 0.0625 36.5625 0.0625 40.0625 0.5625 C42.88804963 2.69289163 43.93820691 3.88358755 44.58148193 7.39727783 C44.59036438 8.48981873 44.59924683 9.58235962 44.60839844 10.70800781 C44.62811707 11.94899231 44.64783569 13.18997681 44.66815186 14.46856689 C44.66981488 15.81758581 44.67104582 17.16660532 44.671875 18.515625 C44.68685961 19.89998305 44.70358737 21.28432324 44.72198486 22.66864014 C44.76564018 26.30510283 44.78565303 29.94132439 44.80072021 33.57800293 C44.82029818 37.29173022 44.86226729 41.00519735 44.90234375 44.71875 C44.97762587 51.99993003 45.02792897 59.28100079 45.0625 66.5625 C45.30417908 65.92071808 45.54585815 65.27893616 45.79486084 64.6177063 C48.08831776 58.52795302 50.38276288 52.43857308 52.67827988 46.34959602 C53.85799312 43.22024345 55.03723294 40.09071441 56.21582031 36.9609375 C57.5752189 33.35120256 58.93592618 29.74196321 60.296875 26.1328125 C60.71370544 25.02511505 61.13053589 23.9174176 61.55999756 22.77615356 C62.71999667 19.70202453 63.89063758 16.63212178 65.0625 13.5625 C65.41896606 12.60583435 65.77543213 11.6491687 66.1427002 10.66351318 C66.48265015 9.77279114 66.8226001 8.88206909 67.17285156 7.96435547 C67.61301605 6.79451614 67.61301605 6.79451614 68.06207275 5.6010437 C69.1478271 3.38863127 70.12489239 2.08204919 72.0625 0.5625 C78.03691743 -0.1978804 78.03691743 -0.1978804 81.05273438 2.03808594 C83.83379107 5.53129855 85.2092648 9.23821694 86.78125 13.390625 C87.12248901 14.26801331 87.46372803 15.14540161 87.81530762 16.04937744 C88.91136871 18.88206534 89.98935905 21.72105535 91.0625 24.5625 C91.41715332 25.49843994 91.77180664 26.43437988 92.13720703 27.39868164 C94.64249339 34.02551282 97.10657338 40.66725104 99.5625 47.3125 C100.29664068 49.29305562 101.0310147 51.27352477 101.765625 53.25390625 C103.53392585 58.0224507 105.29912006 62.79213375 107.0625 67.5625 C107.06614563 66.78211365 107.06979126 66.00172729 107.07354736 65.19769287 C107.11142574 57.84058729 107.16827572 50.48398819 107.24640274 43.12720871 C107.28590006 39.34504215 107.31807711 35.56310917 107.33349609 31.78076172 C107.3486484 28.13002365 107.38306696 24.47992766 107.43080902 20.8294754 C107.44563784 19.43729485 107.45354188 18.04502263 107.45438385 16.65276337 C107.45675034 14.70166835 107.48609555 12.75066264 107.51660156 10.79980469 C107.52992523 9.13434601 107.52992523 9.13434601 107.54351807 7.4352417 C108.18127661 3.90503102 109.24022803 2.71589271 112.0625 0.5625 C115.05175781 0.04492188 115.05175781 0.04492188 118.515625 0.03125 C119.77503906 0.02609375 121.03445312 0.0209375 122.33203125 0.015625 C123.64558594 0.03109375 124.95914063 0.0465625 126.3125 0.0625 C127.61058594 0.04703125 128.90867187 0.0315625 130.24609375 0.015625 C138.85852918 0.05074196 144.88387532 0.76375029 151.33984375 6.6328125 C151.88769531 7.31085938 152.43554688 7.98890625 153 8.6875 C153.56589844 9.37070312 154.13179687 10.05390625 154.71484375 10.7578125 C156.0625 12.5625 156.0625 12.5625 157.0625 14.5625 C157.08828125 13.88703125 157.1140625 13.2115625 157.140625 12.515625 C157.19734375 11.62359375 157.2540625 10.7315625 157.3125 9.8125 C157.35890625 8.93078125 157.4053125 8.0490625 157.453125 7.140625 C158.24514725 3.78976164 159.37819765 2.69695512 162.0625 0.5625 C164.95996094 0.06079102 164.95996094 0.06079102 168.296875 0.06640625 C170.11832031 0.06543945 170.11832031 0.06543945 171.9765625 0.06445312 C173.24242187 0.08443359 174.50828125 0.10441406 175.8125 0.125 C177.06289063 0.11791016 178.31328125 0.11082031 179.6015625 0.10351562 C188.12563192 0.16208481 195.37794276 0.71351241 202.0625 6.5625 C202.743125 5.5725 203.42375 4.5825 204.125 3.5625 C206.28937136 1.02726725 206.99746084 0.58090731 210.375 -0.375 C220.30951231 2.15072347 227.29117454 16.5102279 233.0625 24.5625 C238.6759711 17.82102644 244.04958102 10.98587031 249.21484375 3.8984375 C251.0625 1.5625 251.0625 1.5625 253.0625 0.5625 C256.60481061 0.17746624 258.42507342 0.14314041 261.4375 2.125 C263.13897289 4.67720933 263.67427305 6.36907662 263.59765625 9.43334961 C262.3623596 14.34804948 258.50786079 18.20709081 255.375 22.0625 C253.93285639 23.88483339 252.49143452 25.70773819 251.05078125 27.53125 C250.40665283 28.32982422 249.76252441 29.12839844 249.09887695 29.95117188 C248.42687256 30.81291016 247.75486816 31.67464844 247.0625 32.5625 C246.61945526 33.08278778 246.17641052 33.60307556 245.71994019 34.13912964 C242.03105088 38.74222943 241.37617987 42.13042129 241.53125 47.9453125 C241.52798706 48.72260712 241.52472412 49.49990173 241.5213623 50.30075073 C241.5115868 52.76371494 241.5330489 55.22471212 241.5625 57.6875 C241.60123762 60.94082535 241.60744122 64.19183167 241.59375 67.4453125 C241.62317688 68.55484787 241.62317688 68.55484787 241.65319824 69.6867981 C241.63329645 73.64925643 241.20340295 75.38366842 238.72070312 78.53466797 C236.0625 80.5625 236.0625 80.5625 233 81.125 C229.29190849 80.41493992 228.30679222 79.58505243 226.0625 76.5625 C225.75198328 73.73061009 225.66862453 71.28291263 225.76953125 68.46484375 C225.77941703 66.84180491 225.78783221 65.21875658 225.79492188 63.59570312 C225.82788773 61.0563552 225.87443638 58.5191947 225.94897461 55.98071289 C226.38189621 43.769594 226.38189621 43.769594 220.765625 33.234375 C219.20633731 31.66865195 217.63878025 30.11111465 216.0625 28.5625 C214.6712724 26.69369366 213.31153909 24.80056917 212 22.875 C211.14728516 21.63169922 211.14728516 21.63169922 210.27734375 20.36328125 C209.87644531 19.76902344 209.47554687 19.17476563 209.0625 18.5625 C209.10890625 19.17996094 209.1553125 19.79742187 209.203125 20.43359375 C209.54224134 28.39071649 207.48519075 33.61441136 203.375 40.3125 C196.72064969 46.787003 191.11138387 47.9717953 182 47.875 C179.01682092 47.81009424 176.0437017 47.69897414 173.0625 47.5625 C173.08868408 48.38451904 173.11486816 49.20653809 173.1418457 50.0534668 C173.2459144 53.78544938 173.31086128 57.5171266 173.375 61.25 C173.4378418 63.19036133 173.4378418 63.19036133 173.50195312 65.16992188 C173.51806641 66.41708984 173.53417969 67.66425781 173.55078125 68.94921875 C173.57696533 70.09608154 173.60314941 71.24294434 173.63012695 72.42456055 C172.88420629 76.54813831 171.33271829 78.02669639 168.0625 80.5625 C164.43071897 80.62511691 162.17305365 80.53336645 159.38354492 78.09472656 C157.3377879 74.1733457 157.58181876 70.34645375 157.55078125 65.984375 C157.53283005 65.0578009 157.51487885 64.13122681 157.49638367 63.17657471 C157.44227299 60.2219292 157.40838243 57.26744531 157.375 54.3125 C157.3418276 52.30726917 157.30733802 50.30205968 157.27148438 48.296875 C157.18654598 43.38553326 157.11973827 38.47423952 157.0625 33.5625 C156.12325684 34.99203003 156.12325684 34.99203003 155.16503906 36.45043945 C151.51582238 41.85180558 146.87489524 45.9743659 140.59375 48.10546875 C134.84077578 49.14420021 128.88417972 48.76716843 123.0625 48.5625 C123.08868408 49.35422607 123.11486816 50.14595215 123.1418457 50.96166992 C123.24594122 54.55757717 123.310869 58.15316731 123.375 61.75 C123.4378418 63.61881836 123.4378418 63.61881836 123.50195312 65.52539062 C123.64011588 75.83233208 123.64011588 75.83233208 120.73828125 78.89453125 C117.50150244 80.91220213 115.80933689 81.21412381 112.0625 80.5625 C110.1875 79.0625 110.1875 79.0625 109.0625 77.5625 C108.546875 77.871875 108.03125 78.18125 107.5 78.5 C104.2176467 79.93076939 101.65591426 80.49945764 98.0625 80.5625 C93.40617137 77.28190483 91.44710329 72.94331604 90.0625 67.5625 C90.0625 66.5725 90.0625 65.5825 90.0625 64.5625 C80.8225 64.5625 71.5825 64.5625 62.0625 64.5625 C61.0725 67.8625 60.0825 71.1625 59.0625 74.5625 C56.66523973 79.26113014 56.66523973 79.26113014 54.0625 80.5625 C51.1875 80.875 51.1875 80.875 48.0625 80.5625 C45.6875 78.5625 45.6875 78.5625 44.0625 76.5625 C43.010625 77.5525 43.010625 77.5525 41.9375 78.5625 C39.0625 80.5625 39.0625 80.5625 36 81.125 C33.0625 80.5625 33.0625 80.5625 30.90332031 78.44067383 C28.67997222 74.96440716 28.59707327 73.04461367 28.671875 68.94921875 C28.68476563 67.70205078 28.69765625 66.45488281 28.7109375 65.16992188 C28.74445313 63.87634766 28.77796875 62.58277344 28.8125 61.25 C28.83054688 59.93708984 28.84859375 58.62417969 28.8671875 57.27148438 C28.91426591 54.03484385 28.986007 50.79857897 29.0625 47.5625 C21.8025 47.5625 14.5425 47.5625 7.0625 47.5625 C7.10890625 49.60953125 7.1553125 51.6565625 7.203125 53.765625 C7.23094423 55.75470027 7.25861952 57.74378043 7.28222656 59.73291016 C7.30230642 61.1122668 7.32957666 62.49153869 7.36425781 63.87060547 C7.41292817 65.85606979 7.43336418 67.84216254 7.453125 69.828125 C7.47407227 71.02211914 7.49501953 72.21611328 7.51660156 73.44628906 C7.0625 76.5625 7.0625 76.5625 5.22558594 78.95214844 C3.0625 80.5625 3.0625 80.5625 0.0625 81.0625 C-3.69102705 80.43691216 -4.63875917 79.56076502 -6.9375 76.5625 C-7.44543457 73.375 -7.44543457 73.375 -7.45507812 69.5625 C-7.4620874 68.86608398 -7.46909668 68.16966797 -7.47631836 67.45214844 C-7.49389196 65.15519068 -7.48227919 62.85946979 -7.46875 60.5625 C-7.47144513 58.96353927 -7.47532773 57.36458013 -7.48034668 55.765625 C-7.48624082 52.41650774 -7.47768192 49.06781757 -7.45898438 45.71875 C-7.43619435 41.42771409 -7.44931796 37.13767889 -7.47327423 32.84667969 C-7.4877348 29.54549634 -7.48312515 26.24454989 -7.47276306 22.94335938 C-7.47009646 21.36132692 -7.47336322 19.77927289 -7.48268127 18.19726562 C-7.49285179 15.98509837 -7.4773419 13.774547 -7.45507812 11.5625 C-7.45189575 10.304375 -7.44871338 9.04625 -7.44543457 7.75 C-6.68429439 2.9735298 -4.73831975 0.90733782 0 0 Z " fill="#040102" transform="translate(127.9375,299.4375)"/>
<path d="M0 0 C13.18636568 8.6153731 21.10335341 20.31739402 25 35.6875 C28.62675282 57.58886166 23.76425601 77.49059249 11.89453125 95.98046875 C5.77802092 104.33643366 -2.52547656 109.92515885 -12.3125 113.1875 C-24.86020029 114.34568674 -36.79788313 114.86630076 -47.3125 107.1875 C-48.385 106.445 -49.4575 105.7025 -50.5625 104.9375 C-61.46391731 94.03608269 -67.30919249 81.96894311 -71.3125 67.1875 C-71.57728149 66.25732056 -71.57728149 66.25732056 -71.84741211 65.30834961 C-75.67436592 47.85703847 -71.32836939 29.18976154 -62.3125 14.1875 C-55.49528803 4.45892054 -45.7691695 -1.86325835 -34.3125 -4.8125 C-33.69246094 -4.99554688 -33.07242188 -5.17859375 -32.43359375 -5.3671875 C-21.48412281 -7.66597145 -9.6127763 -5.53242865 0 0 Z " fill="#FEE458" transform="translate(279.3125,20.8125)"/>
<path d="M0 0 C11.52580477 8.45089925 18.30423344 21.71402261 21.01171875 35.5546875 C22.43709021 38.56113292 22.43709021 38.56113292 29.2109375 39.62109375 C29.2109375 46.22109375 29.2109375 52.82109375 29.2109375 59.62109375 C26.9009375 60.61109375 24.5909375 61.60109375 22.2109375 62.62109375 C20.16144096 65.69533855 19.4796251 67.95690164 18.5234375 71.49609375 C13.85414642 86.92878743 5.61560605 98.83696785 -8.2109375 107.24609375 C-14.76919725 110.74383228 -20.14084643 111.0183613 -27.4765625 111.05859375 C-28.51490234 111.09146484 -29.55324219 111.12433594 -30.62304688 111.15820312 C-42.00953193 111.23673061 -49.33226162 106.70380073 -57.453125 99.03125 C-67.491257 88.6741807 -67.491257 88.6741807 -67.7890625 83.62109375 C-66.53125 81.2109375 -66.53125 81.2109375 -64.6640625 78.55859375 C-55.06826215 64.11720038 -50.58579693 47.80143123 -50.6015625 30.49609375 C-50.60164307 29.66730713 -50.60172363 28.83852051 -50.60180664 27.98461914 C-50.59167649 16.47296341 -50.59167649 16.47296341 -53.7890625 5.62109375 C-54.3515625 2.80859375 -54.3515625 2.80859375 -53.7890625 -0.37890625 C-39.64905944 -14.17215174 -14.88229811 -9.6566368 0 0 Z " fill="#FE79B8" transform="translate(369.7890625,42.37890625)"/>
<path d="M0 0 C-0.45032834 4.12800974 -0.98439296 8.06852865 -2.01953125 12.08984375 C-3.22663805 17.44527882 -3.3440995 22.65187531 -3.3125 28.125 C-3.30758545 29.13618896 -3.3026709 30.14737793 -3.29760742 31.18920898 C-3.0237471 48.81879174 1.58638179 68.06603092 12.70703125 82.1640625 C13.13371094 82.76992187 13.56039062 83.37578125 14 84 C12.39767488 92.24052919 3.5290679 100.67575211 -3.01171875 105.4765625 C-13.6776626 112.42466306 -25.62564802 112.27591518 -38 111 C-42.70062993 109.73721586 -46.13289083 107.92450131 -50 105 C-50.886875 104.33484375 -51.77375 103.6696875 -52.6875 102.984375 C-64.57645256 93.14768211 -72.74599321 77.69627612 -74.7578125 62.40234375 C-75.5203247 51.69027724 -76.1584565 40.37778566 -73 30 C-72.74347656 29.12472656 -72.48695312 28.24945313 -72.22265625 27.34765625 C-67.38608172 12.54732304 -58.44565006 2.2203028 -44.609375 -4.8125 C-30.13389843 -11.40014203 -13.0161773 -8.67745154 0 0 Z " fill="#00D2B4" transform="translate(196,42)"/>
<path d="M0 0 C1.1034375 -0.020625 2.206875 -0.04125 3.34375 -0.0625 C12.220718 -0.10467087 19.43254937 1.20833989 26.875 6.25 C27.1225 5.63125 27.37 5.0125 27.625 4.375 C29.13668842 1.80512969 30.13817635 1.34506578 32.875 0.25 C35.07543945 -0.01069641 35.07543945 -0.01069641 37.48828125 -0.0246582 C38.39602295 -0.03419022 39.30376465 -0.04372223 40.23901367 -0.05354309 C41.21201416 -0.05263168 42.18501465 -0.05172028 43.1875 -0.05078125 C44.69630737 -0.05720894 44.69630737 -0.05720894 46.2355957 -0.06376648 C48.36050667 -0.06950486 50.48543728 -0.07001367 52.61035156 -0.06567383 C55.8629702 -0.0625117 59.11468115 -0.08598711 62.3671875 -0.11132812 C64.43229052 -0.11360092 66.49739598 -0.1143047 68.5625 -0.11328125 C69.53550049 -0.122491 70.50850098 -0.13170074 71.51098633 -0.14118958 C72.41872803 -0.13496078 73.32646973 -0.12873199 74.26171875 -0.12231445 C75.05795654 -0.12294388 75.85419434 -0.1235733 76.67456055 -0.1242218 C79.39704482 0.33878252 80.80774234 1.466489 82.875 3.25 C83.390625 2.940625 83.90625 2.63125 84.4375 2.3125 C87.6856474 0.89664088 90.32692813 0.37449375 93.875 0.25 C96.56713867 1.82128906 96.56713867 1.82128906 98.875 4.25 C99.44262695 7.36621094 99.44262695 7.36621094 99.36328125 10.984375 C99.34716797 12.27988281 99.33105469 13.57539063 99.31445312 14.91015625 C99.27267939 16.27345428 99.2303547 17.63673552 99.1875 19 C99.1624091 20.37886624 99.13959729 21.75777597 99.11914062 23.13671875 C99.06019726 26.50827944 98.97051796 29.87927721 98.875 33.25 C105.805 33.25 112.735 33.25 119.875 33.25 C119.78798828 30.17945313 119.78798828 30.17945313 119.69921875 27.046875 C119.6644449 25.05781085 119.62985089 23.06873907 119.6003418 21.07958984 C119.5752407 19.70016298 119.54115127 18.32086858 119.49780273 16.94189453 C119.43697125 14.95664128 119.41142063 12.97040641 119.38671875 10.984375 C119.36053467 9.79038086 119.33435059 8.59638672 119.30737305 7.36621094 C119.875 4.25 119.875 4.25 122.17895508 1.82519531 C124.875 0.25 124.875 0.25 128.5 0.3125 C131.72339166 1.20788657 132.96776958 1.60106885 134.875 4.25 C136.30166016 7.10332032 136.01807693 9.54188273 136.03613281 12.73168945 C136.04109772 13.39694641 136.04606262 14.06220337 136.05117798 14.74761963 C136.06580622 16.95285063 136.07260326 19.15800966 136.078125 21.36328125 C136.08387667 22.89544171 136.0896344 24.42760215 136.09539795 25.95976257 C136.10591034 29.17524552 136.11175119 32.39070345 136.11523438 35.60620117 C136.12071442 39.7221189 136.14473067 43.83770503 136.17320633 47.95351887 C136.19185251 51.11999977 136.19703939 54.28640119 136.19857025 57.45293236 C136.20159372 58.9699605 136.20961198 60.48698735 136.22275543 62.00396156 C136.23985519 64.1296045 136.23792645 66.2544427 136.23144531 68.38012695 C136.23691376 70.19309013 136.23691376 70.19309013 136.24249268 72.04267883 C135.80629585 75.84962083 134.60370318 78.52129682 131.875 81.25 C124.64602428 81.84253899 124.64602428 81.84253899 121.76782227 79.63061523 C119.2785882 76.49988888 119.4122866 74.6992369 119.484375 70.734375 C119.49726563 69.48398437 119.51015625 68.23359375 119.5234375 66.9453125 C119.57371094 64.99238281 119.57371094 64.99238281 119.625 63 C119.64304687 61.68257813 119.66109375 60.36515625 119.6796875 59.0078125 C119.72683118 55.75489844 119.79857384 52.50235783 119.875 49.25 C112.945 49.25 106.015 49.25 98.875 49.25 C98.92140625 51.22484375 98.9678125 53.1996875 99.015625 55.234375 C99.05313988 57.82290157 99.08954034 60.41144446 99.125 63 C99.15851563 64.30195313 99.19203125 65.60390625 99.2265625 66.9453125 C99.24589844 68.82089844 99.24589844 68.82089844 99.265625 70.734375 C99.2970459 72.46252441 99.2970459 72.46252441 99.32910156 74.22558594 C98.78017542 77.88155209 97.76173536 79.02084908 94.875 81.25 C91.96715119 81.95882303 89.932461 81.58971789 86.875 81.25 C84.20068511 79.43836733 83.91579641 78.37238923 82.875 75.25 C82.75824185 73.30283354 82.69830075 71.35206523 82.66967773 69.40161133 C82.6397599 67.60008354 82.6397599 67.60008354 82.60923767 65.76216125 C82.59252518 64.46521835 82.57581268 63.16827545 82.55859375 61.83203125 C82.53801707 60.4910977 82.51702041 59.15017054 82.49562073 57.80924988 C82.44047373 54.28298111 82.39103206 50.75665452 82.34277344 47.23028564 C82.2925045 43.63068507 82.23684661 40.03116827 82.18164062 36.43164062 C82.07414929 29.37116648 81.97268435 22.31061718 81.875 15.25 C81.215 15.58 80.555 15.91 79.875 16.25 C77.15739892 16.32181821 74.46640612 16.34299506 71.75 16.3125 C70.99589844 16.30798828 70.24179688 16.30347656 69.46484375 16.29882812 C67.60152873 16.28703499 65.73825445 16.26909942 63.875 16.25 C63.88388245 16.99058151 63.89276489 17.73116302 63.9019165 18.4941864 C63.98215465 25.48270806 64.04301124 32.47116063 64.08224869 39.46002483 C64.1030997 43.05289593 64.13137049 46.64538555 64.17675781 50.23803711 C64.22030641 53.70696052 64.24415581 57.17551765 64.25450897 60.64469337 C64.2654672 62.60844133 64.29667925 64.57204247 64.32818604 66.53556824 C64.32863922 68.33686943 64.32863922 68.33686943 64.32910156 70.17456055 C64.33798401 71.22935104 64.34686646 72.28414154 64.35601807 73.37089539 C63.75334347 76.9781678 62.39722455 78.65201913 59.875 81.25 C57.875 81.87890625 57.875 81.87890625 55.875 81.8125 C55.215 81.81378906 54.555 81.81507813 53.875 81.81640625 C50.95660117 80.98990658 49.77663827 79.59081091 47.875 77.25 C47.39398193 74.45318604 47.39398193 74.45318604 47.42089844 71.19628906 C47.42120056 69.97532532 47.42150269 68.75436157 47.42181396 67.49639893 C47.44245911 66.18274353 47.46310425 64.86908813 47.484375 63.515625 C47.49183913 62.15371532 47.49753126 60.79179488 47.50152588 59.42987061 C47.51676908 55.85229632 47.55603819 52.27537578 47.6003418 48.69805908 C47.64132368 45.04488976 47.65954303 41.39161438 47.6796875 37.73828125 C47.7225351 30.57518886 47.79287264 23.41276946 47.875 16.25 C42.925 16.25 37.975 16.25 32.875 16.25 C33.37 18.725 33.37 18.725 33.875 21.25 C34.48025934 29.11837145 32.65195852 35.48496363 27.625 41.5625 C24.50621579 45.10454778 20.9842504 47.0233368 16.875 49.25 C17.61105469 50.17941406 18.34710938 51.10882813 19.10546875 52.06640625 C20.09123027 53.31503751 21.07690258 54.56373921 22.0625 55.8125 C22.54525391 56.42158203 23.02800781 57.03066406 23.52539062 57.65820312 C24.9876017 59.51295409 26.43574483 61.377384 27.875 63.25 C28.35654541 63.87608154 28.83809082 64.50216309 29.33422852 65.1472168 C31.63056214 68.2290628 32.84802456 70.073161 33.4375 73.9375 C32.875 77.25 32.875 77.25 31.375 79.6875 C28.56823026 81.44173109 26.32948042 82.14206201 22.99609375 81.921875 C18.27640476 80.42687223 15.7422356 76.05241012 12.875 72.25 C11.75634471 70.7999039 10.63645586 69.35075893 9.515625 67.90234375 C6.67107258 64.21340595 3.85433081 60.50454785 1.05493164 56.78125 C-0.04104621 55.29111817 -0.04104621 55.29111817 -1.125 54.25 C-1.1343457 54.89026123 -1.14369141 55.53052246 -1.15332031 56.19018555 C-1.20718847 59.10672375 -1.29080199 62.02168625 -1.375 64.9375 C-1.39626953 66.44860352 -1.39626953 66.44860352 -1.41796875 67.99023438 C-1.56567969 72.46587574 -1.68694906 75.47674486 -3.921875 79.421875 C-6.24929124 81.35313528 -7.14826915 81.91133677 -10.125 81.8125 C-10.785 81.81378906 -11.445 81.81507813 -12.125 81.81640625 C-15.07755777 80.98023266 -16.22303113 79.64657059 -18.125 77.25 C-18.62620544 74.0625 -18.62620544 74.0625 -18.62670898 70.25 C-18.63481346 69.20537598 -18.63481346 69.20537598 -18.64308167 68.13964844 C-18.65556665 65.84266369 -18.63908114 63.54693302 -18.62109375 61.25 C-18.62124875 59.651041 -18.62273781 58.05208162 -18.62550354 56.453125 C-18.62688742 53.10399747 -18.61433182 49.75529824 -18.59155273 46.40625 C-18.56316778 42.11534025 -18.56590539 37.82514209 -18.57864285 33.53417969 C-18.58560103 30.23301119 -18.57780922 26.9320069 -18.56538582 23.63085938 C-18.56087265 22.04883453 -18.56053335 20.46679205 -18.56445122 18.88476562 C-18.5673649 16.67281014 -18.55085056 14.46183192 -18.52905273 12.25 C-18.52364975 10.991875 -18.51824677 9.73375 -18.51268005 8.4375 C-18.09751445 5.02401417 -17.56165629 3.63205704 -15.125 1.25 C-10.21034755 -0.38821748 -5.14638516 0.02355325 0 0 Z M-2.125 16.25 C-2.125 21.86 -2.125 27.47 -2.125 33.25 C0.9378125 33.3428125 0.9378125 33.3428125 4.0625 33.4375 C5.78533203 33.48970703 5.78533203 33.48970703 7.54296875 33.54296875 C11.18149369 33.22305155 12.96819861 32.40513304 15.875 30.25 C17.83638387 27.66453944 17.88798264 26.46204975 17.6875 23.1875 C16.85582873 20.18068849 16.35271236 19.06063596 13.875 17.25 C8.71108171 15.5286939 3.28208764 16.19646448 -2.125 16.25 Z " fill="#000000" transform="translate(155.125,430.75)"/>
<path d="M0 0 C1.10091476 0.00022659 2.20182953 0.00045319 3.33610535 0.00068665 C4.52367935 0.0161705 5.71125336 0.03165436 6.93481445 0.04760742 C8.15135208 0.05185226 9.36788971 0.05609711 10.62129211 0.06047058 C14.51378341 0.07728766 18.40576041 0.11494659 22.2980957 0.15307617 C24.93415594 0.16811904 27.57022429 0.18180813 30.20629883 0.1940918 C36.6745965 0.2272013 43.14250885 0.27900542 49.6105957 0.34057617 C49.6105957 4.96057617 49.6105957 9.58057617 49.6105957 14.34057617 C48.4762207 14.62932617 47.3418457 14.91807617 46.1730957 15.21557617 C44.9974707 15.58682617 43.8218457 15.95807617 42.6105957 16.34057617 C41.11777177 19.32622403 41.49142594 22.03041335 41.49707031 25.3605957 C41.49692429 26.08265198 41.49677826 26.80470825 41.49662781 27.54864502 C41.49732563 29.94025658 41.50511195 32.33179068 41.51293945 34.72338867 C41.51480409 36.37962807 41.51622778 38.03586801 41.51722717 39.69210815 C41.52104872 44.05525226 41.53087592 48.41836317 41.54193115 52.78149414 C41.55215306 57.23217317 41.55672647 61.68285755 41.56176758 66.13354492 C41.5724985 74.86923725 41.58957059 83.60490258 41.6105957 92.34057617 C44.2505957 93.00057617 46.8905957 93.66057617 49.6105957 94.34057617 C49.6105957 98.30057617 49.6105957 102.26057617 49.6105957 106.34057617 C150.9205957 106.34057617 252.2305957 106.34057617 356.6105957 106.34057617 C356.6105957 106.67057617 356.6105957 107.00057617 356.6105957 107.34057617 C310.54501228 107.40918658 264.47943425 107.4620766 218.41380985 107.49377216 C212.97997471 107.49752445 207.54613967 107.5014074 202.11230469 107.50537109 C201.03048907 107.50615803 199.94867346 107.50694496 198.83407555 107.50775573 C181.29886688 107.52082302 163.7636876 107.54448411 146.2284964 107.57203456 C128.24659642 107.60005201 110.26471187 107.61674467 92.28279096 107.62284166 C81.17975627 107.62696571 70.07680464 107.64000862 58.97379551 107.66432557 C51.36839951 107.68013762 43.76304668 107.68498685 36.15763541 107.6810803 C31.76440364 107.67915167 27.37131741 107.68218557 22.97811127 107.6981926 C18.9606084 107.71272446 14.9433498 107.71357263 10.925836 107.70327286 C9.46818307 107.70199871 8.01051528 107.70586111 6.55289187 107.71522572 C4.57970567 107.72717113 2.60642778 107.71902239 0.63322735 107.70971966 C-0.46530357 107.71085882 -1.56383448 107.71199798 -2.69565421 107.71317166 C-5.3894043 107.34057617 -5.3894043 107.34057617 -7.24222356 105.93863708 C-8.71235492 103.89069521 -8.76650896 102.67573951 -8.77035522 100.16564941 C-8.7788147 99.31603134 -8.78727417 98.46641327 -8.79598999 97.59104919 C-8.7899173 96.66212357 -8.7838446 95.73319794 -8.77758789 94.77612305 C-8.78284485 93.79539322 -8.78810181 92.81466339 -8.79351807 91.80421448 C-8.806744 88.55575734 -8.79797064 85.30778847 -8.7878418 82.05932617 C-8.78986178 79.80635483 -8.79277259 77.55338413 -8.79653931 75.30041504 C-8.80096618 70.57594586 -8.79451979 65.8516467 -8.78051758 61.12719727 C-8.76342565 55.06393654 -8.77326486 49.00107417 -8.79123497 42.93782806 C-8.8020629 38.28477972 -8.79863099 33.63182619 -8.79085159 28.97877502 C-8.78884685 26.74280246 -8.79131843 24.50682136 -8.79829025 22.27085876 C-8.8058883 19.14868281 -8.79432328 16.02715671 -8.77758789 12.9050293 C-8.78366058 11.97610367 -8.78973328 11.04717804 -8.79598999 10.09010315 C-8.78753052 9.24048508 -8.77907104 8.390867 -8.77035522 7.51550293 C-8.76922415 6.77735603 -8.76809307 6.03920914 -8.76692772 5.27869415 C-7.80940014 0.36296889 -4.42234506 -0.03035935 0 0 Z " fill="#F95AA4" transform="translate(80.389404296875,285.659423828125)"/>
<path d="M0 0 C1.13223999 0.02876221 1.13223999 0.02876221 2.28735352 0.05810547 C14.39558393 0.53638509 25.24387587 4.22279926 33.6875 13.25 C39.59245415 20.60333913 42.32792537 27.80546417 43.515625 37.12890625 C43.62769339 39.4504133 43.62769339 39.4504133 44.875 40.5 C45.25833496 39.49098633 45.64166992 38.48197266 46.03662109 37.44238281 C47.46209555 33.69190823 48.89030559 29.94248035 50.31933594 26.19335938 C50.93694288 24.57189814 51.55381186 22.95015562 52.16992188 21.328125 C53.05664385 18.99404392 53.94603211 16.6609939 54.8359375 14.328125 C55.10997406 13.60506165 55.38401062 12.88199829 55.66635132 12.13702393 C59.12867689 3.08047353 59.12867689 3.08047353 61.5625 1.1875 C65.06944137 0.14489581 67.37069235 0.49876924 70.875 1.5 C75.21027177 6.71943903 77.17797955 13.02759692 79.5 19.328125 C79.92877441 20.47230896 80.35754883 21.61649292 80.79931641 22.79534912 C82.16508472 26.44425498 83.5203436 30.09695608 84.875 33.75 C86.23190934 37.38788746 87.59096113 41.02496735 88.95068359 44.6618042 C89.79428756 46.92048962 90.63587717 49.1799288 91.47509766 51.44024658 C93.59617433 57.14268133 95.77818556 62.80404078 98.12597656 68.41741943 C99.47919045 72.17988775 99.39889187 75.11542862 98 78.8125 C96.875 80.5 96.875 80.5 94.875 81.5 C89.12840136 81.96343537 89.12840136 81.96343537 86.875 81.5 C82.875 77.5 82.875 77.5 78.875 66.5 C66.005 66.005 66.005 66.005 52.875 65.5 C51.885 68.8 50.895 72.1 49.875 75.5 C47.61413043 79.76086957 47.61413043 79.76086957 45.875 81.5 C43.9140625 81.703125 43.9140625 81.703125 41.5 81.75 C40.70851563 81.77578125 39.91703125 81.8015625 39.1015625 81.828125 C36.875 81.5 36.875 81.5 35.09765625 80.30859375 C33.44862836 77.8692969 33.57388413 76.22864057 33.6875 73.3125 C33.71457031 72.41144531 33.74164063 71.51039063 33.76953125 70.58203125 C33.80433594 69.89496094 33.83914063 69.20789063 33.875 68.5 C32.8540625 69.5828125 32.8540625 69.5828125 31.8125 70.6875 C23.87501344 78.53605113 15.6575605 81.85974682 4.45898438 81.95898438 C3.50314453 81.95189453 2.54730469 81.94480469 1.5625 81.9375 C0.58732422 81.95748047 -0.38785156 81.97746094 -1.39257812 81.99804688 C-2.33166016 81.99740234 -3.27074219 81.99675781 -4.23828125 81.99609375 C-5.08173096 81.99794678 -5.92518066 81.9997998 -6.79418945 82.00170898 C-10.03554695 81.30400398 -11.08513472 80.09907627 -13.125 77.5 C-13.6396637 74.31922913 -13.6396637 74.31922913 -13.65844727 70.51586914 C-13.66706284 69.82105942 -13.67567841 69.12624969 -13.68455505 68.41038513 C-13.70721993 66.11826098 -13.70047574 63.82735906 -13.69140625 61.53515625 C-13.69664199 59.93858985 -13.70291829 58.34202656 -13.71018982 56.74546814 C-13.72059516 53.40055784 -13.71603149 50.05607291 -13.70141602 46.71118164 C-13.68423507 42.42906061 -13.70771263 38.14828225 -13.74290562 33.86631107 C-13.76489032 30.56936283 -13.76343556 27.27273528 -13.7551403 23.97573662 C-13.75432121 22.397308 -13.76117668 20.81885574 -13.77591133 19.24049568 C-13.79337723 17.03067217 -13.77880253 14.82325313 -13.75610352 12.61352539 C-13.75514175 11.357621 -13.75417999 10.10171661 -13.75318909 8.80775452 C-12.29362449 1.12235934 -7.01338094 -0.29738168 0 0 Z M2.875 16.5 C2.875 33 2.875 49.5 2.875 66.5 C14.33650534 64.37965439 14.33650534 64.37965439 22.66796875 57.30078125 C27.43832256 50.08293 28.69714045 43.37231981 27.3125 34.875 C25.65155833 28.57679835 21.90983318 24.1109096 16.875 20.125 C11.92731879 17.44500601 8.55068407 16.5 2.875 16.5 Z M65.875 32.5 C65.05667278 34.39332534 64.24557732 36.28977733 63.4375 38.1875 C62.98503906 39.24324219 62.53257812 40.29898438 62.06640625 41.38671875 C60.68021915 44.74891538 60.68021915 44.74891538 59.875 49.5 C64.165 49.5 68.455 49.5 72.875 49.5 C70.895 43.89 68.915 38.28 66.875 32.5 C66.545 32.5 66.215 32.5 65.875 32.5 Z M42.875 43.5 C43.875 45.5 43.875 45.5 43.875 45.5 Z " fill="#000000" transform="translate(313.125,430.5)"/>
<path d="M0 0 C10.77000233 -0.0694446 21.53995159 -0.12278307 32.31013203 -0.15543652 C37.31092029 -0.17110684 42.31155562 -0.19237004 47.31225586 -0.22631836 C52.13627314 -0.25886309 56.96014313 -0.27684271 61.7842617 -0.28463173 C63.62671414 -0.29018404 65.46915833 -0.30102608 67.31154823 -0.31719017 C69.88797184 -0.33889965 72.46378317 -0.34196967 75.0402832 -0.34057617 C76.18827141 -0.35675491 76.18827141 -0.35675491 77.35945129 -0.3732605 C82.53918769 -0.34285305 82.53918769 -0.34285305 84.69567585 1.2616148 C86.30407351 3.40526497 86.3768738 4.51417341 86.38095093 7.17492676 C86.3894104 8.02454483 86.39786987 8.8741629 86.40658569 9.74952698 C86.400513 10.67845261 86.39444031 11.60737823 86.38818359 12.56445312 C86.39344055 13.54518295 86.39869751 14.52591278 86.40411377 15.53636169 C86.4173397 18.78481883 86.40856634 22.0327877 86.3984375 25.28125 C86.40045748 27.53422134 86.40336829 29.78719204 86.40713501 32.04016113 C86.41156189 36.76463031 86.40511549 41.48892947 86.39111328 46.21337891 C86.37402135 52.27663963 86.38386057 58.339502 86.40183067 64.40274811 C86.4126586 69.05579646 86.4092267 73.70874998 86.4014473 78.36180115 C86.39944255 80.59777371 86.40191413 82.83375481 86.40888596 85.06971741 C86.41648401 88.19189336 86.40491898 91.31341946 86.38818359 94.43554688 C86.39425629 95.3644725 86.40032898 96.29339813 86.40658569 97.25047302 C86.39812622 98.10009109 86.38966675 98.94970917 86.38095093 99.82507324 C86.37981985 100.56322014 86.37868877 101.30136703 86.37752342 102.06188202 C85.88263726 104.60251319 85.07493266 105.48065304 83 107 C79.98703764 107.26172754 77.18519432 107.34860113 74.17578125 107.29296875 C72.88367989 107.28660149 72.88367989 107.28660149 71.56547546 107.28010559 C68.81416569 107.26331248 66.06358838 107.22565956 63.3125 107.1875 C61.4472762 107.17245396 59.58204093 107.15876541 57.71679688 107.14648438 C53.14424902 107.11340693 48.5722487 107.0616206 44 107 C43.99857498 106.25355225 43.99714996 105.50710449 43.99568176 104.73803711 C43.97779423 97.67645693 43.93601176 90.61550649 43.86790943 83.55426025 C43.83373189 79.92459986 43.80854405 76.29535621 43.80444336 72.66552734 C43.80014023 69.15731427 43.77151437 65.65003977 43.72656822 62.14212036 C43.70740673 60.16376711 43.71293101 58.18522401 43.71894836 56.20678711 C43.60196375 48.93712718 43.04796125 43.50775518 38 38 C35.12149934 35.73394629 32.44438183 34.19877079 29.109375 32.70703125 C25.70932758 30.8404223 23.73651975 28.90833431 21.1875 26 C20.32898438 25.02417969 19.47046875 24.04835938 18.5859375 23.04296875 C15.37690584 19.26678195 12.22767327 15.44751026 9.1171875 11.58984375 C6.56641466 8.46961794 3.9105258 5.45613977 1.21484375 2.4609375 C0 1 0 1 0 0 Z " fill="#FD3B97" transform="translate(411,239)"/>
<path d="M0 0 C0.80998444 -0.00043808 1.61996887 -0.00087616 2.45449829 -0.00132751 C5.13307764 0.00076333 7.81103188 0.02410803 10.48950195 0.04760742 C12.34609129 0.05320233 14.20268505 0.05747292 16.0592804 0.06047058 C20.94695249 0.07192764 25.83435735 0.10140223 30.72192383 0.13458252 C35.70886622 0.16526485 40.69585177 0.17897199 45.68286133 0.1940918 C55.46878607 0.22627109 65.25451242 0.27747786 75.0402832 0.34057617 C72.24972828 4.61115546 69.3602271 8.31818241 65.8527832 12.02807617 C61.3138212 16.87867069 57.06296382 21.87100723 52.9152832 27.06323242 C49.98832715 30.61826447 48.00811824 32.53007127 43.6652832 34.15307617 C37.85291252 36.61978959 34.43931673 40.44179831 32.0402832 46.34057617 C31.7138317 49.20917241 31.7138317 49.20917241 31.72143555 52.39428711 C31.70156586 53.61525085 31.68169617 54.8362146 31.66122437 56.09417725 C31.64389755 58.06466034 31.64389755 58.06466034 31.6262207 60.07495117 C31.60750374 61.43688118 31.58792993 62.79879965 31.5675354 64.16070557 C31.5162637 67.73790684 31.47661168 71.31514569 31.43939209 74.89251709 C31.39932115 78.54587054 31.34824295 82.19906835 31.2980957 85.85229492 C31.20139527 93.01494846 31.11697193 100.17767746 31.0402832 107.34057617 C25.54104571 107.41468988 20.04209842 107.46916081 14.54248047 107.50537109 C12.67133521 107.5204649 10.80022537 107.54094206 8.92919922 107.56689453 C6.24087794 107.6032521 3.55302407 107.62029633 0.86450195 107.63354492 C-0.39188835 107.65677071 -0.39188835 107.65677071 -1.67366028 107.6804657 C-7.49323141 107.68215504 -7.49323141 107.68215504 -9.68094826 106.08022308 C-11.25693585 103.936237 -11.33661707 102.80913063 -11.34066772 100.16564941 C-11.3491272 99.31603134 -11.35758667 98.46641327 -11.36630249 97.59104919 C-11.3602298 96.66212357 -11.3541571 95.73319794 -11.34790039 94.77612305 C-11.35315735 93.79539322 -11.35841431 92.81466339 -11.36383057 91.80421448 C-11.3770565 88.55575734 -11.36828314 85.30778847 -11.3581543 82.05932617 C-11.36017428 79.80635483 -11.36308509 77.55338413 -11.36685181 75.30041504 C-11.37127868 70.57594586 -11.36483229 65.8516467 -11.35083008 61.12719727 C-11.33373815 55.06393654 -11.34357736 49.00107417 -11.36154747 42.93782806 C-11.3723754 38.28477972 -11.36894349 33.63182619 -11.36116409 28.97877502 C-11.35915935 26.74280246 -11.36163093 24.50682136 -11.36860275 22.27085876 C-11.3762008 19.14868281 -11.36463578 16.02715671 -11.34790039 12.9050293 C-11.35397308 11.97610367 -11.36004578 11.04717804 -11.36630249 10.09010315 C-11.35784302 9.24048508 -11.34938354 8.390867 -11.34066772 7.51550293 C-11.33953665 6.77735603 -11.33840557 6.03920914 -11.33724022 5.27869415 C-10.175178 -0.68706464 -4.98108167 -0.07019901 0 0 Z " fill="#FD3B97" transform="translate(25.959716796875,238.659423828125)"/>
<path d="M0 0 C1.06669922 -0.00515625 2.13339844 -0.0103125 3.23242188 -0.015625 C4.89047852 0.00757813 4.89047852 0.00757813 6.58203125 0.03125 C8.21108398 0.00804687 8.21108398 0.00804687 9.87304688 -0.015625 C18.09279629 0.02386929 25.25732354 1.25596056 31.83203125 6.4609375 C38.06121433 14.21627044 39.1682382 20.63313698 38.39453125 30.53125 C37.73046875 32.6171875 37.73046875 32.6171875 37.01953125 34.34375 C36.03212952 37.40516989 36.03212952 37.40516989 37.4921875 39.19140625 C38.57479101 40.35912847 39.67462936 41.51105265 40.7890625 42.6484375 C44.25372917 46.71162323 45.16098533 51.72961008 45.83203125 56.90625 C44.72771943 66.05626218 41.80032506 72.04222944 34.7109375 77.97265625 C29.71932571 81.33126182 25.27158162 81.83941385 19.35546875 81.83203125 C18.21146103 81.83845894 18.21146103 81.83845894 17.04434204 81.84501648 C15.43907664 81.85073893 13.83378532 81.85127546 12.22851562 81.84692383 C9.77038756 81.84375111 7.31344933 81.86729127 4.85546875 81.89257812 C3.29297027 81.89485004 1.73046855 81.89555511 0.16796875 81.89453125 C-0.5664444 81.903741 -1.30085754 81.91295074 -2.05752563 81.92243958 C-7.06506022 81.87686294 -7.06506022 81.87686294 -9.2963562 80.44985962 C-11.30031357 77.5128991 -11.00248684 74.98651543 -11.02539062 71.46118164 C-11.03386017 70.74540451 -11.04232971 70.02962738 -11.05105591 69.29216003 C-11.07446305 66.92506157 -11.07544724 64.55861171 -11.07421875 62.19140625 C-11.0813182 60.54617553 -11.08901688 58.90094729 -11.09729004 57.25572205 C-11.11074341 53.80656045 -11.11229988 50.35762777 -11.10644531 46.90844727 C-11.10054877 42.48837617 -11.13113372 38.06940334 -11.17156219 33.64954472 C-11.19741284 30.25144026 -11.20031905 26.85360115 -11.19667053 23.45541191 C-11.19836432 21.82590411 -11.20803184 20.19638438 -11.22581482 18.56697273 C-11.24795426 16.28747217 -11.23833157 14.01020585 -11.22070312 11.73071289 C-11.22275757 10.4340419 -11.22481201 9.13737091 -11.22692871 7.80140686 C-10.60546875 4.53125 -10.60546875 4.53125 -8.23600769 2.1136322 C-5.22331492 0.30136805 -3.49260952 0.01645655 0 0 Z M5.39453125 16.53125 C5.39453125 21.48125 5.39453125 26.43125 5.39453125 31.53125 C7.45703125 31.61375 9.51953125 31.69625 11.64453125 31.78125 C12.8046875 31.82765625 13.96484375 31.8740625 15.16015625 31.921875 C18.46143088 31.80054041 18.46143088 31.80054041 20.7890625 29.703125 C22.95380682 26.7746631 22.91459534 25.09740374 22.39453125 21.53125 C20.6146872 18.3953343 19.87144918 17.69022264 16.39453125 16.53125 C14.49982309 16.4627005 12.60284785 16.44644628 10.70703125 16.46875 C8.95390625 16.489375 7.20078125 16.51 5.39453125 16.53125 Z M5.39453125 47.53125 C5.39453125 53.80125 5.39453125 60.07125 5.39453125 66.53125 C16.4117406 67.24150205 16.4117406 67.24150205 26.39453125 63.53125 C28.88395439 60.6528545 29.40974255 59.27660372 29.33203125 55.46875 C28.26187138 52.11558242 27.13146228 50.70469523 24.39453125 48.53125 C20.62961958 47.27627944 17.1224665 47.42463352 13.20703125 47.46875 C10.62890625 47.489375 8.05078125 47.51 5.39453125 47.53125 Z " fill="#000000" transform="translate(62.60546875,430.46875)"/>
<path d="M0 0 C0 0.33 0 0.66 0 1 C-1.423125 1.2165625 -1.423125 1.2165625 -2.875 1.4375 C-11.9680167 4.05658392 -18.54019578 13.12190272 -23 21 C-23.45117188 21.78117187 -23.90234375 22.56234375 -24.3671875 23.3671875 C-30.18160928 34.13590949 -31.49387022 44.90165294 -31.375 57 C-31.38660156 58.18078125 -31.39820313 59.3615625 -31.41015625 60.578125 C-31.38408794 68.46813485 -30.29237492 75.45812932 -28 83 C-27.64679688 84.17433594 -27.29359375 85.34867187 -26.9296875 86.55859375 C-22.70898447 98.0795498 -16.10999527 107.73964159 -7 116 C-5.99538114 116.9953597 -4.99403001 117.99406544 -4 119 C-16.99271265 120.03787941 -25.3559339 117.16219948 -35.3125 108.8125 C-47.95231686 96.67827581 -54.61166251 79.68964328 -55.1796875 62.37890625 C-55.3471664 54.11471695 -55.42683679 45.9738923 -53 38 C-52.74347656 37.12472656 -52.48695312 36.24945313 -52.22265625 35.34765625 C-47.38608172 20.54732304 -38.44565006 10.2203028 -24.609375 3.1875 C-16.50004901 -0.50297171 -8.84330443 -0.22356668 0 0 Z " fill="#00B69E" transform="translate(176,34)"/>
<path d="M0 0 C1.75570312 0.01353516 1.75570312 0.01353516 3.546875 0.02734375 C4.43890625 0.03894531 5.3309375 0.05054688 6.25 0.0625 C6.25 0.3925 6.25 0.7225 6.25 1.0625 C4.826875 1.2790625 4.826875 1.2790625 3.375 1.5 C-5.46994123 4.07828246 -11.72436691 12.58899726 -16.21875 20.16796875 C-22.62886901 32.28505596 -25.09794891 42.93127657 -25 56.5625 C-25.00773437 57.63886719 -25.01546875 58.71523437 -25.0234375 59.82421875 C-25.00794512 66.18383941 -24.47049182 71.93992222 -22.75 78.0625 C-22.41742188 79.28453125 -22.08484375 80.5065625 -21.7421875 81.765625 C-17.01595734 96.77057948 -8.85129784 108.03488334 2.25 119.0625 C-9.72738785 120.01927359 -17.21318186 117.58798948 -27 110.8125 C-37.90141731 99.91108269 -43.74669249 87.84394311 -47.75 73.0625 C-48.01478149 72.13232056 -48.01478149 72.13232056 -48.28491211 71.18334961 C-52.11186592 53.73203847 -47.76586939 35.06476154 -38.75 20.0625 C-31.93278803 10.33392054 -22.2066695 4.01174165 -10.75 1.0625 C-9.84314453 0.78212891 -9.84314453 0.78212891 -8.91796875 0.49609375 C-5.92400953 -0.10269809 -3.04957706 -0.03049577 0 0 Z " fill="#F8C500" transform="translate(255.75,14.9375)"/>
<path d="M0 0 C2.37109375 2.1171875 2.37109375 2.1171875 4.4375 4.875 C5.1903125 5.85855469 5.943125 6.84210938 6.71875 7.85546875 C9.63477024 11.87498295 12.54442806 15.89750719 15.37109375 19.98046875 C16.17740234 20.98013672 16.17740234 20.98013672 17 22 C17.66 22 18.32 22 19 22 C20.52960877 20.25743741 20.52960877 20.25743741 22.08203125 17.984375 C22.68466797 17.14519531 23.28730469 16.30601562 23.90820312 15.44140625 C25.1664577 13.66307312 26.42427827 11.88443283 27.68164062 10.10546875 C33.83883835 1.53381198 33.83883835 1.53381198 38 -1 C41.46758942 -0.94021398 43.88826749 -0.60965977 46.9375 1.0625 C48.7200129 4.31296471 48.6853713 7.45332596 48 11 C46.18639355 14.42382122 43.8550225 17.35738327 41.4375 20.375 C39.57893382 22.77441878 37.72485294 25.17636332 35.88745117 27.59204102 C34 30 34 30 31.99731445 32.20288086 C25.41013183 40.04699949 26.11579569 48.08212707 26.3125 57.8125 C26.34411358 60.19075835 26.36527088 62.56773679 26.36308289 64.94621277 C26.3632118 66.41553 26.38312205 67.88502549 26.42610168 69.35371399 C26.44168724 72.97510484 26.08320066 74.87076228 24.10229492 77.94775391 C22 80 22 80 20 80.62890625 C19.34 80.60699219 18.68 80.58507812 18 80.5625 C17.34 80.56378906 16.68 80.56507813 16 80.56640625 C13.01896756 79.72216855 11.88938259 78.44990925 10 76 C9.77341947 73.34184667 9.76670414 71.10263334 9.953125 68.47265625 C10.00970653 66.95242097 10.06068009 65.43196891 10.10668945 63.91137695 C10.13300446 63.118815 10.15931946 62.32625305 10.18643188 61.50967407 C10.56866298 46.7949695 9.41989407 36.80831242 -0.83300781 25.43188477 C-2.21457728 23.97938793 -3.6101789 22.54007441 -5.02124023 21.11621094 C-9.18268478 16.66569875 -12.96237349 12.33284347 -13.0625 6.125 C-10.69904732 -0.82633142 -6.86185561 -1.62923203 0 0 Z " fill="#000000" transform="translate(412,432)"/>
<path d="M0 0 C2.46797362 2.36221511 2.97209983 3.77060516 3.38768005 7.1875 C3.39308304 8.445625 3.39848602 9.70375 3.40405273 11 C3.41091599 11.69641602 3.41777924 12.39283203 3.42485046 13.11035156 C3.44311783 15.40710975 3.43928178 17.70318492 3.43359375 20 C3.43815523 21.59896059 3.44346071 23.19791922 3.44947815 24.796875 C3.45840881 28.14591443 3.45598632 31.49471538 3.44604492 34.84375 C3.43454826 39.13475013 3.45477687 43.42492819 3.48396206 47.71582031 C3.5023097 51.01698022 3.50203465 54.31794253 3.49632454 57.61914062 C3.49617118 59.20118362 3.50222734 60.78323988 3.51461601 62.36523438 C3.52950009 64.5773476 3.51887079 66.78793446 3.50170898 69 C3.50154282 70.258125 3.50137665 71.51625 3.50120544 72.8125 C2.91207729 76.55915919 1.97549679 77.7290555 -1 80 C-3 80.56640625 -3 80.56640625 -5 80.5625 C-5.99 80.59537109 -5.99 80.59537109 -7 80.62890625 C-10.16337263 79.63417384 -11.20472139 77.72661803 -13 75 C-13.49447632 71.76817322 -13.49447632 71.76817322 -13.48583984 68.07006836 C-13.48963654 67.39301346 -13.49343323 66.71595856 -13.49734497 66.01838684 C-13.50472397 63.79172684 -13.48340976 61.56638673 -13.4609375 59.33984375 C-13.4585516 57.78715671 -13.45764806 56.23446674 -13.4581604 54.68177795 C-13.45503709 51.43276818 -13.43850716 48.18420115 -13.41162109 44.93530273 C-13.37761342 40.77343582 -13.36999361 36.61205426 -13.37151146 32.45006466 C-13.37096734 29.24584837 -13.35999401 26.0417379 -13.34550858 22.83755684 C-13.33915092 21.3029822 -13.3352041 19.7683956 -13.33372116 18.23380852 C-13.32937866 16.08917737 -13.31185886 13.945058 -13.29052734 11.80053711 C-13.28290375 10.5809581 -13.27528015 9.36137909 -13.26742554 8.10484314 C-13.01148454 5.13333694 -12.6189936 3.467251 -11 1 C-7.44020669 -1.76872813 -4.1946238 -1.06772242 0 0 Z " fill="#000000" transform="translate(125,432)"/>
<path d="M0 0 C0.33 0 0.66 0 1 0 C1.07476562 0.8971875 1.14953125 1.794375 1.2265625 2.71875 C3.56141345 24.87694335 13.33155766 40.44170488 29 56 C16.27099398 56.76374036 8.63490584 55.17131192 -1.1875 46.75 C-13.64770434 34.97766183 -13.64770434 34.97766183 -14 29 C-12.7421875 26.58984375 -12.7421875 26.58984375 -10.875 23.9375 C-5.88194026 16.47282586 -2.13604762 8.73837663 0 0 Z " fill="#FB5BA6" transform="translate(316,97)"/>
<path d="M0 0 C1.12792969 -0.01095703 2.25585938 -0.02191406 3.41796875 -0.03320312 C11.54799933 0.03895691 11.54799933 0.03895691 15.74609375 2.34765625 C17.59317266 4.68015901 18.15990731 5.6288209 18.0625 8.5625 C18.06443359 9.5525 18.06443359 9.5525 18.06640625 10.5625 C17.2392272 13.48329774 15.84366528 14.6589265 13.5 16.5625 C10.63085938 17.08007812 10.63085938 17.08007812 7.34375 17.09375 C6.15652344 17.09890625 4.96929687 17.1040625 3.74609375 17.109375 C2.50988281 17.09390625 1.27367187 17.0784375 0 17.0625 C-1.23621094 17.07796875 -2.47242188 17.0934375 -3.74609375 17.109375 C-5.52693359 17.10164063 -5.52693359 17.10164063 -7.34375 17.09375 C-8.42849609 17.08923828 -9.51324219 17.08472656 -10.63085938 17.08007812 C-14.1696505 16.44169851 -15.35161745 15.4024329 -17.5 12.5625 C-18.17772769 8.42083076 -18.05224882 6.40870754 -15.74609375 2.875 C-10.74905199 -0.68486609 -5.98087486 -0.12645278 0 0 Z " fill="#000000" transform="translate(494.5,461.4375)"/>
<path d="M0 0 C1.12792969 -0.02384766 2.25585938 -0.04769531 3.41796875 -0.07226562 C11.62943055 -0.05768907 11.62943055 -0.05768907 15.74609375 2.875 C18.05224882 6.40870754 18.17772769 8.42083076 17.5 12.5625 C15.35161745 15.4024329 14.1696505 16.44169851 10.63085938 17.08007812 C9.54611328 17.08458984 8.46136719 17.08910156 7.34375 17.09375 C6.15652344 17.09890625 4.96929688 17.1040625 3.74609375 17.109375 C2.50988281 17.09390625 1.27367187 17.0784375 0 17.0625 C-1.23621094 17.07796875 -2.47242188 17.0934375 -3.74609375 17.109375 C-5.52693359 17.10164063 -5.52693359 17.10164063 -7.34375 17.09375 C-8.42849609 17.08923828 -9.51324219 17.08472656 -10.63085938 17.08007812 C-14.14198205 16.44668976 -15.31809963 15.32755285 -17.5 12.5625 C-18.06640625 10.5625 -18.06640625 10.5625 -18.0625 8.5625 C-18.08441406 7.9025 -18.10632813 7.2425 -18.12890625 6.5625 C-15.63422248 -1.37090428 -6.70999696 -0.06518283 0 0 Z " fill="#000000" transform="translate(17.5,461.4375)"/>
<path d="M0 0 C0.66 0 1.32 0 2 0 C3.43509221 2.87018441 3.11158506 5.33543723 3.09765625 8.5390625 C3.09515869 9.71162598 3.09266113 10.88418945 3.09008789 12.09228516 C3.08098389 13.58808105 3.07187988 15.08387695 3.0625 16.625 C3.041875 21.36875 3.02125 26.1125 3 31 C-6.57 31 -16.14 31 -26 31 C-22.2600147 26.01335294 -18.89326376 21.6424942 -14.6875 17.1875 C-10.1145502 12.3082169 -5.89582567 7.25722347 -1.77734375 1.984375 C-1.19082031 1.32953125 -0.60429688 0.6746875 0 0 Z " fill="#DF1C7A" transform="translate(120,240)"/>
<path d="M0 0 C3.71786343 1.23928781 4.55103725 2.67470722 6.9375 5.75 C11.01135083 10.87236653 15.31467427 15.67790777 19.83764648 20.40722656 C20.32048096 20.91866211 20.80331543 21.43009766 21.30078125 21.95703125 C21.72528564 22.40022705 22.14979004 22.84342285 22.5871582 23.30004883 C24.59248525 25.71288661 26.2596974 28.3895461 28 31 C18.43 31 8.86 31 -1 31 C-1.020625 26.25625 -1.04125 21.5125 -1.0625 16.625 C-1.071604 15.1292041 -1.08070801 13.6334082 -1.09008789 12.09228516 C-1.09258545 10.91972168 -1.09508301 9.7471582 -1.09765625 8.5390625 C-1.10289307 7.33459473 -1.10812988 6.13012695 -1.11352539 4.88916016 C-1 2 -1 2 0 0 Z " fill="#E01C7A" transform="translate(390,240)"/>
<path d="M0 0 C4.95 0 9.9 0 15 0 C16.0044134 2.2898234 17.00367612 4.5816599 18 6.875 C18.28617187 7.52597656 18.57234375 8.17695313 18.8671875 8.84765625 C21 13.7734375 21 13.7734375 21 16 C12.09 16 3.18 16 -6 16 C-4.91906639 9.51439834 -3.0281041 5.74563342 0 0 Z " fill="#F158A0" transform="translate(335,168)"/>
<path d="M0 0 C4.95 0 9.9 0 15 0 C21 12.625 21 12.625 21 16 C12.09 16 3.18 16 -6 16 C-4.14624378 10.43873133 -2.36739374 5.29845265 0 0 Z " fill="#00AF98" transform="translate(162,168)"/>
<path d="M0 0 C0 0.33 0 0.66 0 1 C-0.99 1.185625 -1.98 1.37125 -3 1.5625 C-8.06356393 3.01507793 -11.34210657 6.34958692 -15 10 C-15.53753906 10.5259375 -16.07507813 11.051875 -16.62890625 11.59375 C-20.72491557 15.95712285 -23.1611041 20.94341406 -25.703125 26.328125 C-27 29 -27 29 -29 32 C-29.20496094 30.86820313 -29.40992188 29.73640625 -29.62109375 28.5703125 C-29.89306972 27.08851239 -30.16521387 25.60674315 -30.4375 24.125 C-30.57220703 23.37863281 -30.70691406 22.63226563 -30.84570312 21.86328125 C-31.54536611 17.81466622 -31.54536611 17.81466622 -33 14 C-33.5625 11.1875 -33.5625 11.1875 -33 8 C-24.19217391 -0.59183036 -11.41088066 -0.4107917 0 0 Z " fill="#F659A2" transform="translate(349,34)"/>
<path d="M0 0 C3.5578125 -0.12375 3.5578125 -0.12375 7.1875 -0.25 C7.92508545 -0.28641602 8.6626709 -0.32283203 9.42260742 -0.36035156 C12.96245031 -0.4196278 14.89751317 -0.06285859 17.9296875 1.796875 C20.74787589 4.79585283 20.92749072 6.93948029 21 11 C19.89791992 14.39808026 19.07902124 14.94731917 16 17 C13.22503673 17.14289203 10.58047807 17.18737542 7.8125 17.125 C3.9453125 17.063125 3.9453125 17.063125 0 17 C0 11.39 0 5.78 0 0 Z " fill="#FB78B6" transform="translate(301,315)"/>
<path d="M0 0 C3.5578125 -0.12375 3.5578125 -0.12375 7.1875 -0.25 C7.92508545 -0.28641602 8.6626709 -0.32283203 9.42260742 -0.36035156 C12.94899061 -0.41940241 14.91199332 -0.05280401 17.94921875 1.76953125 C20.38974969 4.42389919 20.59320893 6.33840915 20.6640625 9.90234375 C19.58031613 13.32570729 17.82067369 14.83312485 15 17 C12.11628549 17.37353815 10.01710038 17.48712853 7.1875 17.3125 C4.815625 17.209375 2.44375 17.10625 0 17 C0 11.39 0 5.78 0 0 Z " fill="#FD79B7" transform="translate(251,315)"/>
<path d="M0 0 C4.62 0 9.24 0 14 0 C20 11.625 20 11.625 20 15 C11.42 15 2.84 15 -6 15 C-4.84116563 9.20582813 -2.71733945 5.2256528 0 0 Z " fill="#F8C604" transform="translate(249,149)"/>
<path d="M0 0 C0.66 0 1.32 0 2 0 C3.00605593 2.60197202 4.00502525 5.20629362 5 7.8125 C5.28617188 8.55048828 5.57234375 9.28847656 5.8671875 10.04882812 C6.13789063 10.76103516 6.40859375 11.47324219 6.6875 12.20703125 C7.06455078 13.18893433 7.06455078 13.18893433 7.44921875 14.19067383 C8 16 8 16 8 19 C3.05 19 -1.9 19 -7 19 C-4.91923185 12.54961873 -2.57778144 6.26780359 0 0 Z " fill="#F073AE" transform="translate(203,330)"/>
</svg>
