<?xml version="1.0" encoding="UTF-8"?>
<svg version="1.1" xmlns="http://www.w3.org/2000/svg" width="512" height="512">
<path d="M0 0 C1.13759766 -0.00515625 2.27519531 -0.0103125 3.44726562 -0.015625 C4.63126953 -0.00015625 5.81527344 0.0153125 7.03515625 0.03125 C8.21529297 0.01578125 9.39542969 0.0003125 10.61132812 -0.015625 C12.3196582 -0.00789063 12.3196582 -0.00789063 14.0625 0 C15.61892212 0.00676758 15.61892212 0.00676758 17.20678711 0.01367188 C20.9912067 0.69123032 22.572352 1.61884695 25.09765625 4.53125 C25.54414926 7.48789794 25.68498187 9.85387546 25.5859375 12.796875 C25.57886276 13.59027283 25.57178802 14.38367065 25.5644989 15.20111084 C25.53656673 17.72879365 25.47383614 20.25423988 25.41015625 22.78125 C25.3850716 24.49736378 25.36225871 26.21351238 25.34179688 27.9296875 C25.29099816 32.13175753 25.19316173 36.32900895 25.09765625 40.53125 C31.69765625 40.53125 38.29765625 40.53125 45.09765625 40.53125 C45.01064453 36.82841797 45.01064453 36.82841797 44.921875 33.05078125 C44.88284514 30.65131846 44.85250612 28.25189147 44.82299805 25.85229492 C44.79790278 24.18872161 44.76381829 22.52525804 44.72045898 20.86206055 C44.65958165 18.46635847 44.63139856 16.07211749 44.609375 13.67578125 C44.58356857 12.9360054 44.55776215 12.19622955 44.53117371 11.43403625 C44.52910053 7.58939701 44.97365166 5.70196875 47.25317383 2.5637207 C50.52106895 0.22870852 52.12205454 -0.11107093 56.09765625 -0.1328125 C57.23203125 -0.13925781 58.36640625 -0.14570313 59.53515625 -0.15234375 C61.29859375 -0.12333984 61.29859375 -0.12333984 63.09765625 -0.09375 C64.27328125 -0.11308594 65.44890625 -0.13242187 66.66015625 -0.15234375 C68.36171875 -0.14267578 68.36171875 -0.14267578 70.09765625 -0.1328125 C71.64453125 -0.12435303 71.64453125 -0.12435303 73.22265625 -0.11572266 C77.24433844 0.78929244 78.68579671 2.21081136 81.09765625 5.53125 C81.53666053 8.45511291 81.68724522 10.77165945 81.5859375 13.67578125 C81.57532539 14.8304615 81.57532539 14.8304615 81.5644989 16.00846863 C81.5366255 18.45457303 81.47390762 20.89834384 81.41015625 23.34375 C81.38506393 25.00712827 81.36225238 26.67054262 81.34179688 28.33398438 C81.29108159 32.4013502 81.19323824 36.46370528 81.09765625 40.53125 C87.69765625 40.53125 94.29765625 40.53125 101.09765625 40.53125 C101.01064453 36.70273438 101.01064453 36.70273438 100.921875 32.796875 C100.88286697 30.32132066 100.85251545 27.84580072 100.82299805 25.37011719 C100.79787258 23.65121099 100.76376578 21.93241144 100.72045898 20.21386719 C100.65971596 17.74126886 100.63142863 15.27008394 100.609375 12.796875 C100.58356857 12.03006409 100.55776215 11.26325317 100.53117371 10.47320557 C100.52921385 6.73443585 100.76967547 4.90984097 103.25097656 2.0456543 C106.49304857 0.32090535 108.47706132 0.02862762 112.1328125 0.03515625 C113.27169922 0.03451172 114.41058594 0.03386719 115.58398438 0.03320312 C117.35418945 0.06317383 117.35418945 0.06317383 119.16015625 0.09375 C120.93616211 0.08311523 120.93616211 0.08311523 122.74804688 0.07226562 C131.3836147 0.13587037 131.3836147 0.13587037 134.40405273 1.80834961 C138.02501666 5.49195094 137.23123701 10.26007931 137.1953125 15.140625 C137.19319008 16.23083954 137.19319008 16.23083954 137.19102478 17.34307861 C137.18544417 19.65584494 137.17289529 21.96851312 137.16015625 24.28125 C137.15513874 25.85286318 137.15057627 27.42447789 137.14648438 28.99609375 C137.1354811 32.84118343 137.11822986 36.6862001 137.09765625 40.53125 C137.91443848 40.51030273 138.7312207 40.48935547 139.57275391 40.46777344 C143.2892618 40.3843987 147.00557258 40.33252012 150.72265625 40.28125 C152.65044922 40.23097656 152.65044922 40.23097656 154.6171875 40.1796875 C165.28720974 40.06911732 165.28720974 40.06911732 168.74609375 42.171875 C173.65755841 47.09965682 175.5972307 50.78186133 175.60559082 57.78015137 C175.61495076 58.84117294 175.61495076 58.84117294 175.6244998 59.92362928 C175.64039168 62.28211257 175.62784142 64.63955683 175.61523438 66.99804688 C175.62065722 68.69361471 175.62778079 70.38917784 175.63647461 72.08473206 C175.65469166 76.68185823 175.64764715 81.27862485 175.63495827 85.87575722 C175.62482222 90.68960149 175.63422563 95.50341524 175.64050293 100.31726074 C175.64777757 108.40085368 175.63819644 116.48430037 175.61914062 124.56787109 C175.59737224 133.90993644 175.60442374 143.25165258 175.62644625 152.59370947 C175.64460547 160.61851662 175.64715601 168.64321873 175.63669157 176.6680398 C175.63045952 181.45920694 175.6296131 186.25021001 175.64283752 191.04136658 C175.654403 195.5460486 175.64635764 200.05028096 175.6232605 204.55491447 C175.61797712 206.20687552 175.61948087 207.85887449 175.62831116 209.51082039 C175.63926556 211.76850513 175.62550649 214.02475498 175.60559082 216.28234863 C175.60332867 218.17600536 175.60332867 218.17600536 175.60102081 220.10791779 C174.84260864 225.26580337 172.37627762 228.31819895 168.66015625 231.84375 C164.52736675 234.56534309 160.49307774 234.65627004 155.63700867 234.65150452 C154.55312363 234.65287918 153.46923859 234.65425385 152.35250854 234.65567017 C151.17359039 234.65207489 149.99467224 234.64847961 148.7800293 234.64477539 C147.53084213 234.64492142 146.28165497 234.64506744 144.99461365 234.6452179 C141.57763953 234.64464135 138.16072611 234.63963224 134.74376273 234.63264394 C131.16965651 234.62638505 127.59554945 234.62580459 124.0214386 234.62461853 C117.25714758 234.62151269 110.49287277 234.61330937 103.72858888 234.60326904 C96.02608243 234.5920847 88.32357519 234.5865916 80.62106264 234.58157361 C64.77991754 234.57112614 48.93878962 234.5533393 33.09765625 234.53125 C33.09765625 239.15125 33.09765625 243.77125 33.09765625 248.53125 C35.29421875 247.974375 35.29421875 247.974375 37.53515625 247.40625 C43.79421961 246.18798379 48.64024821 246.62156252 54.26171875 249.7265625 C59.2701906 253.15933534 62.28224597 257.19821321 65.09765625 262.53125 C66.08765625 262.20125 67.07765625 261.87125 68.09765625 261.53125 C75.7732387 260.82823119 82.58579288 261.09956521 89.09765625 265.53125 C91.37878159 267.68731364 93.25994124 269.99261163 95.09765625 272.53125 C95.71640625 273.335625 96.33515625 274.14 96.97265625 274.96875 C97.34390625 275.484375 97.71515625 276 98.09765625 276.53125 C98.66226563 276.37398438 99.226875 276.21671875 99.80859375 276.0546875 C107.18928131 274.36695348 113.23501576 275.30463878 119.83203125 278.9765625 C125.46442662 282.84155104 128.21871539 287.00291285 130.09765625 293.53125 C130.35835266 296.64399719 130.35835266 296.64399719 130.37231445 300.0012207 C130.38184647 301.26726639 130.39137848 302.53331207 130.40119934 303.83772278 C130.4009376 305.21082589 130.39999905 306.58392901 130.3984375 307.95703125 C130.40233322 309.38746767 130.40666967 310.81790296 130.41142273 312.24833679 C130.41887316 315.24835957 130.41860581 318.24826472 130.41333008 321.24829102 C130.40872381 324.29238762 130.41551759 327.33608249 130.43383789 330.38012695 C130.69362376 373.94804648 130.69362376 373.94804648 120.09765625 390.53125 C119.60527466 391.00188873 119.11289307 391.47252747 118.60559082 391.95742798 C115.00780427 395.40616259 113.6847455 397.94615194 113.46411133 402.95996094 C113.48519315 405.06236252 113.53790273 407.16461316 113.6171875 409.265625 C113.64059456 410.93809296 113.64059456 410.93809296 113.66447449 412.64434814 C113.71773223 416.19119901 113.811246 419.7354019 113.91015625 423.28125 C113.99301642 426.84111512 114.06708966 430.40061693 114.123703 433.96099854 C114.16047683 436.17272051 114.21329366 438.38424517 114.28364563 440.59515381 C114.30323837 441.59339172 114.32283112 442.59162964 114.34301758 443.62011719 C114.36777664 444.49835144 114.39253571 445.37658569 114.41804504 446.28143311 C114.02599956 449.03443373 113.2593908 449.84507615 111.09765625 451.53125 C108.7477017 452.70622728 107.33507826 452.66696327 104.71476746 452.68515015 C103.79368698 452.69375061 102.87260651 452.70235107 101.9236145 452.71121216 C100.91007904 452.71547211 99.89654358 452.71973206 98.85229492 452.72412109 C97.78714157 452.73229858 96.72198822 452.74047607 95.6245575 452.74890137 C92.08825245 452.77378031 88.55198757 452.79027696 85.015625 452.8046875 C83.20736457 452.81267302 83.20736457 452.81267302 81.36257362 452.82081985 C74.98317729 452.84756104 68.6038006 452.86693373 62.22436523 452.88134766 C55.62646312 452.89800672 49.02905941 452.94279301 42.43134594 452.9937191 C37.36561999 453.02732994 32.30001329 453.03891834 27.23418617 453.04457474 C24.80166116 453.05130317 22.36914443 453.06656617 19.93672752 453.09046555 C16.53446874 453.12198913 13.13356689 453.12217257 9.73120117 453.11474609 C8.22000702 453.1393541 8.22000702 453.1393541 6.67828369 453.16445923 C2.0766878 453.12327941 -0.20005644 453.03075514 -4.03146362 450.3056488 C-6.02079211 447.35559845 -6.51617729 446.0598325 -6.4699707 442.55737305 C-6.46959305 441.59675461 -6.46921539 440.63613617 -6.46882629 439.64640808 C-6.44301987 438.6222731 -6.41721344 437.59813812 -6.390625 436.54296875 C-6.38355026 435.48463333 -6.37647552 434.42629791 -6.3691864 433.33589172 C-6.34124594 429.96278563 -6.27850496 426.59135254 -6.21484375 423.21875 C-6.18976057 420.92906047 -6.16694744 418.63934486 -6.14648438 416.34960938 C-6.09142056 410.74292085 -6.00779705 405.13720496 -5.90234375 399.53125 C-6.83755859 399.01828369 -7.77277344 398.50531738 -8.73632812 397.97680664 C-15.12627127 394.4290771 -21.10800995 391.07291377 -26.40234375 385.96875 C-27.7790625 384.66744141 -27.7790625 384.66744141 -29.18359375 383.33984375 C-35.22527398 377.09851029 -40.0365944 370.53810892 -44.71484375 363.21875 C-46.03873131 361.16775493 -47.36296365 359.11698239 -48.6875 357.06640625 C-49.37473145 355.99922363 -50.06196289 354.93204102 -50.77001953 353.83251953 C-53.65103109 349.37213044 -56.55905497 344.92965003 -59.46923828 340.48828125 C-61.62297364 337.20107703 -63.77291648 333.91142228 -65.921875 330.62109375 C-68.392557 326.8385452 -70.86888815 323.05984204 -73.3515625 319.28515625 C-74.34782939 317.76313415 -75.34393649 316.24100744 -76.33984375 314.71875 C-76.78231445 314.0498877 -77.22478516 313.38102539 -77.68066406 312.69189453 C-82.38906994 305.47070267 -84.87301578 298.58244012 -83.21484375 289.96875 C-81.0375351 281.67220791 -76.78247303 276.49352648 -69.90234375 271.53125 C-63.69856591 268.49535872 -56.87469316 268.75213009 -50.33984375 270.65625 C-38.89420686 275.05232507 -34.3668005 283.34022406 -27.90234375 293.53125 C-23.61234375 300.13125 -19.32234375 306.73125 -14.90234375 313.53125 C-14.57234375 287.46125 -14.24234375 261.39125 -13.90234375 234.53125 C-20.83234375 234.53125 -27.76234375 234.53125 -34.90234375 234.53125 C-42.26374082 231.7707261 -45.47870564 230.37852623 -48.90234375 223.53125 C-49.00556365 221.27711763 -49.04189859 219.01984827 -49.04951477 216.7633667 C-49.05319146 216.05943669 -49.05686815 215.35550667 -49.06065625 214.63024545 C-49.07171329 212.25967458 -49.07554034 209.88914751 -49.0793457 207.51855469 C-49.08560885 205.82358154 -49.09225552 204.12860978 -49.09925842 202.43363953 C-49.11668244 197.81987066 -49.1272241 193.20611216 -49.13546395 188.59231853 C-49.14061137 185.71075701 -49.14668723 182.82919871 -49.15297508 179.94763947 C-49.17203147 170.93479735 -49.18626139 161.92196346 -49.19458705 152.90910506 C-49.20436074 142.50003585 -49.23068181 132.09117923 -49.27108794 121.68218493 C-49.30123481 113.64050195 -49.31605459 105.59887995 -49.31936806 97.55714154 C-49.32172028 92.75246334 -49.33070279 87.94801213 -49.35582924 83.14339447 C-49.37908987 78.62240518 -49.38335133 74.10179264 -49.37306786 69.58075905 C-49.37257189 67.92233083 -49.37891036 66.26388421 -49.3926239 64.60551262 C-49.41031669 62.33891275 -49.40325089 60.07366878 -49.39009094 57.80706787 C-49.3924793 56.53943478 -49.39486765 55.27180168 -49.39732838 53.96575546 C-48.62739146 48.62346318 -46.16021203 45.58089082 -42.08544922 42.18066406 C-38.39758584 40.26969574 -36.10443731 40.06749613 -31.97265625 40.140625 C-30.68359375 40.15351562 -29.39453125 40.16640625 -28.06640625 40.1796875 C-26.72004107 40.21310094 -25.3736869 40.24696063 -24.02734375 40.28125 C-22.65757806 40.30133644 -21.28778409 40.31958345 -19.91796875 40.3359375 C-16.57870389 40.3829694 -13.24088813 40.44869136 -9.90234375 40.53125 C-9.93376465 38.92685059 -9.93376465 38.92685059 -9.96582031 37.29003906 C-10.03829001 33.31686827 -10.08416838 29.34375575 -10.12207031 25.37011719 C-10.14217003 23.65126721 -10.16945464 21.93248548 -10.20410156 20.21386719 C-10.25269409 17.74136511 -10.2753281 15.2697679 -10.29296875 12.796875 C-10.31361389 12.03006409 -10.33425903 11.26325317 -10.35552979 10.47320557 C-10.35696182 7.05837896 -10.16136953 4.91980776 -8.24682617 2.04785156 C-5.30580985 0.14536344 -3.49121142 0.01519688 0 0 Z M4.09765625 14.53125 C4.09765625 30.04125 4.09765625 45.55125 4.09765625 61.53125 C6.40765625 61.53125 8.71765625 61.53125 11.09765625 61.53125 C11.09765625 46.02125 11.09765625 30.51125 11.09765625 14.53125 C8.78765625 14.53125 6.47765625 14.53125 4.09765625 14.53125 Z M60.09765625 14.53125 C60.09765625 30.04125 60.09765625 45.55125 60.09765625 61.53125 C62.07765625 61.53125 64.05765625 61.53125 66.09765625 61.53125 C66.09765625 46.02125 66.09765625 30.51125 66.09765625 14.53125 C64.11765625 14.53125 62.13765625 14.53125 60.09765625 14.53125 Z M115.09765625 14.53125 C115.09765625 30.04125 115.09765625 45.55125 115.09765625 61.53125 C117.40765625 61.53125 119.71765625 61.53125 122.09765625 61.53125 C122.09765625 46.02125 122.09765625 30.51125 122.09765625 14.53125 C119.78765625 14.53125 117.47765625 14.53125 115.09765625 14.53125 Z M-34.90234375 55.53125 C-34.90234375 66.09125 -34.90234375 76.65125 -34.90234375 87.53125 C29.77765625 87.53125 94.45765625 87.53125 161.09765625 87.53125 C161.09765625 76.64125 161.09765625 65.75125 161.09765625 54.53125 C153.17765625 54.53125 145.25765625 54.53125 137.09765625 54.53125 C136.91203125 57.8415625 136.91203125 57.8415625 136.72265625 61.21875 C136.4704527 65.71637997 136.18170078 69.49060252 134.09765625 73.53125 C129.63989134 75.76013246 123.55538855 74.76117729 118.66015625 74.78125 C117.40654297 74.801875 116.15292969 74.8225 114.86132812 74.84375 C113.06211914 74.85148437 113.06211914 74.85148437 111.2265625 74.859375 C109.5724939 74.87339355 109.5724939 74.87339355 107.88500977 74.88769531 C105.09765625 74.53125 105.09765625 74.53125 103.24658203 73.26147461 C101.88138157 71.20555118 101.67822266 69.97431662 101.5859375 67.51953125 C101.55282471 66.83673096 101.51971191 66.15393066 101.4855957 65.45043945 C101.44825317 64.16012817 101.44825317 64.16012817 101.41015625 62.84375 C101.30703125 60.100625 101.20390625 57.3575 101.09765625 54.53125 C94.49765625 54.53125 87.89765625 54.53125 81.09765625 54.53125 C80.88817616 59.61614486 80.88817616 59.61614486 80.7097168 64.70214844 C80.48981537 68.95036572 80.19122187 71.55811812 77.09765625 74.53125 C74.234375 75.04882812 74.234375 75.04882812 70.78515625 75.0625 C69.54507813 75.06765625 68.305 75.0728125 67.02734375 75.078125 C65.73054688 75.06265625 64.43375 75.0471875 63.09765625 75.03125 C61.15246094 75.05445313 61.15246094 75.05445313 59.16796875 75.078125 C57.92789063 75.07296875 56.6878125 75.0678125 55.41015625 75.0625 C54.27191406 75.05798828 53.13367188 75.05347656 51.9609375 75.04882812 C49.09765625 74.53125 49.09765625 74.53125 47.23510742 72.74121094 C45.50964303 69.38879546 45.52519529 65.97292348 45.41015625 62.28125 C45.30703125 59.72375 45.20390625 57.16625 45.09765625 54.53125 C38.49765625 54.53125 31.89765625 54.53125 25.09765625 54.53125 C24.88795507 59.99032139 24.88795507 59.99032139 24.7097168 65.45043945 C24.66004761 66.47463989 24.66004761 66.47463989 24.609375 67.51953125 C24.58319092 68.21602783 24.55700684 68.91252441 24.5300293 69.63012695 C23.94840035 72.18752087 23.26216127 73.04213457 21.09765625 74.53125 C18.32617187 74.90356445 18.32617187 74.90356445 15.00390625 74.89453125 C13.80894531 74.89388672 12.61398438 74.89324219 11.3828125 74.89257812 C10.13371094 74.87646484 8.88460937 74.86035156 7.59765625 74.84375 C6.34855469 74.84697266 5.09945312 74.85019531 3.8125 74.85351562 C-5.50183992 74.79825255 -5.50183992 74.79825255 -8.90234375 72.53125 C-9.3347168 70.65185547 -9.3347168 70.65185547 -9.4140625 68.3984375 C-9.46723633 67.18994141 -9.46723633 67.18994141 -9.52148438 65.95703125 C-9.54404297 65.11527344 -9.56660156 64.27351563 -9.58984375 63.40625 C-9.62400391 62.55675781 -9.65816406 61.70726562 -9.69335938 60.83203125 C-9.77593548 58.73223895 -9.84081353 56.63176436 -9.90234375 54.53125 C-13.88149534 54.50238016 -17.86062028 54.48449594 -21.83984375 54.46875 C-22.97615234 54.46037109 -24.11246094 54.45199219 -25.28320312 54.44335938 C-26.36279297 54.44013672 -27.44238281 54.43691406 -28.5546875 54.43359375 C-29.55491943 54.42835693 -30.55515137 54.42312012 -31.58569336 54.41772461 C-33.86441603 54.26943905 -33.86441603 54.26943905 -34.90234375 55.53125 Z M4.09765625 131.53125 C4.09765625 133.84125 4.09765625 136.15125 4.09765625 138.53125 C6.40765625 138.53125 8.71765625 138.53125 11.09765625 138.53125 C11.09765625 136.22125 11.09765625 133.91125 11.09765625 131.53125 C8.78765625 131.53125 6.47765625 131.53125 4.09765625 131.53125 Z M60.09765625 131.53125 C60.09765625 133.84125 60.09765625 136.15125 60.09765625 138.53125 C62.07765625 138.53125 64.05765625 138.53125 66.09765625 138.53125 C66.09765625 136.22125 66.09765625 133.91125 66.09765625 131.53125 C64.11765625 131.53125 62.13765625 131.53125 60.09765625 131.53125 Z M115.09765625 131.53125 C115.09765625 133.84125 115.09765625 136.15125 115.09765625 138.53125 C117.40765625 138.53125 119.71765625 138.53125 122.09765625 138.53125 C122.09765625 136.22125 122.09765625 133.91125 122.09765625 131.53125 C119.78765625 131.53125 117.47765625 131.53125 115.09765625 131.53125 Z M3.22265625 181.78125 C-0.10345862 186.08563395 -0.02711267 189.5148337 -0.0269165 194.8764801 C-0.02947952 196.18183716 -0.03204254 197.48719421 -0.03468323 198.83210754 C-0.03261342 200.27682503 -0.03049067 201.72154243 -0.02832031 203.16625977 C-0.02971539 204.68905693 -0.03161491 206.2118537 -0.03398132 207.73464966 C-0.03847504 211.01238377 -0.04033433 214.29010537 -0.04044342 217.56784248 C-0.04158375 222.74838054 -0.05442072 227.92884735 -0.07000732 233.10935974 C-0.07258018 233.98357388 -0.07515303 234.85778801 -0.07780385 235.75849348 C-0.08307016 237.54590167 -0.08835564 239.33330981 -0.09365988 241.12071788 C-0.12878647 253.18099445 -0.15531699 265.24118169 -0.15283203 277.30151367 C-0.15124562 285.43830221 -0.16722444 293.57484736 -0.20353866 301.71155781 C-0.22203085 306.01814792 -0.23131306 310.32433145 -0.21906281 314.63095284 C-0.20766014 318.67853643 -0.21924854 322.72539046 -0.24869728 326.77287674 C-0.2553592 328.25999696 -0.25343461 329.74718353 -0.24239922 331.23427773 C-0.22860762 333.26049337 -0.24830416 335.28685537 -0.26983643 337.31300354 C-0.27130299 338.44806619 -0.27276955 339.58312883 -0.27428055 340.75258732 C-0.90234375 343.53125 -0.90234375 343.53125 -3.25168991 345.44723415 C-5.90234375 346.53125 -5.90234375 346.53125 -8.9453125 346.09375 C-12.55027533 344.18888192 -14.16769599 341.92366628 -16.21484375 338.53125 C-17.07504199 337.17677911 -17.93576161 335.82263926 -18.796875 334.46875 C-19.27850098 333.69917969 -19.76012695 332.92960938 -20.25634766 332.13671875 C-23.20679119 327.46642308 -26.25208629 322.85769799 -29.28216553 318.23883057 C-38.29299069 304.50288247 -38.29299069 304.50288247 -42.0078125 298.6640625 C-42.45382813 297.97183594 -42.89984375 297.27960938 -43.359375 296.56640625 C-44.48939736 294.81218107 -45.60852144 293.05094805 -46.7265625 291.2890625 C-49.81308899 287.37687632 -53.21340423 285.1780779 -57.83984375 283.40625 C-61.94769432 283.57391737 -63.54849687 285.25979407 -66.484375 287.98828125 C-68.59939524 290.28974956 -68.89780934 291.48997654 -69.24609375 294.66015625 C-68.80746694 299.59969229 -67.0748539 302.38632926 -64.40234375 306.46875 C-63.91386963 307.24033447 -63.42539551 308.01191895 -62.92211914 308.80688477 C-61.27036205 311.39629823 -59.590746 313.96559126 -57.90234375 316.53125 C-57.3079248 317.43617188 -56.71350586 318.34109375 -56.10107422 319.2734375 C-52.8379767 324.22422585 -49.54486183 329.15373598 -46.23046875 334.0703125 C-43.59799213 337.98042098 -40.99716578 341.90775348 -38.43650818 345.86503601 C-36.87475719 348.27741195 -35.3030743 350.68324853 -33.73098755 353.08889771 C-32.63052531 354.78118985 -31.54338769 356.48212386 -30.45678711 358.18334961 C-23.0307428 369.51058617 -14.6853626 378.27444887 -2.71484375 384.84375 C-1.03133251 385.79372208 0.64969277 386.74811401 2.328125 387.70703125 C3.05410889 388.10833252 3.78009277 388.50963379 4.52807617 388.9230957 C7.09765625 390.53125 7.09765625 390.53125 8.54188538 392.01429749 C15.40017656 398.53415603 24.28169801 397.41905713 33.1328125 397.36328125 C34.89823568 397.36987128 36.66365345 397.37809202 38.42906189 397.38786316 C42.11846454 397.40118028 45.8069958 397.39243616 49.49633789 397.3684082 C54.21350445 397.33979586 58.92817609 397.36992527 63.64511967 397.41704273 C67.28707499 397.44629189 70.92843766 397.44248813 74.57046318 397.42902184 C76.30912666 397.42687532 78.04783799 397.43531328 79.78639412 397.45475197 C89.08455204 397.83017231 89.08455204 397.83017231 97.6783905 395.00027466 C99.43771797 393.26433764 100.76082203 391.60029902 102.09765625 389.53125 C102.85433594 388.71140625 103.61101562 387.8915625 104.390625 387.046875 C115.52549287 373.73095053 116.41164888 357.66946901 116.3984375 340.87109375 C116.40486519 339.02083336 116.40486519 339.02083336 116.41142273 337.13319397 C116.41711566 334.55437836 116.41770398 331.9755467 116.41333008 329.39672852 C116.4101388 325.44715546 116.4338004 321.49831064 116.45898438 317.54882812 C116.46125472 315.03125094 116.4619621 312.51367175 116.4609375 309.99609375 C116.47475212 308.2304734 116.47475212 308.2304734 116.48884583 306.42918396 C116.48261703 305.33356644 116.47638824 304.23794891 116.4699707 303.10913086 C116.47091484 301.67022743 116.47091484 301.67022743 116.47187805 300.20225525 C115.87848395 295.96690937 114.0487488 293.35024637 110.84765625 290.59375 C106.94409769 289.08555692 104.88428644 289.91842603 101.09765625 291.53125 C97.45148619 294.78675898 96.47039525 299.97492481 95.09765625 304.53125 C92.10886349 305.38519079 90.38002354 305.60825926 87.34765625 304.78125 C85.09765625 303.53125 85.09765625 303.53125 84.09765625 300.53125 C83.99706483 299.10911938 83.94320416 297.68333668 83.921875 296.2578125 C83.89802734 295.4328125 83.87417969 294.6078125 83.84960938 293.7578125 C83.8068403 292.03149693 83.77548135 290.3048588 83.75585938 288.578125 C83.61840026 284.47353199 83.42254858 282.07320101 81.2734375 278.48828125 C78.27708248 275.79317557 76.07613275 275.60229422 72.09765625 275.53125 C69.78016503 275.93994252 69.78016503 275.93994252 68.09765625 277.53125 C65.83254696 281.36451188 64.47109594 285.3128281 63.09765625 289.53125 C62.09765625 290.53125 62.09765625 290.53125 58.72265625 290.78125 C55.09765625 290.53125 55.09765625 290.53125 53.39648438 289.28271484 C51.79170492 287.11867579 51.71674022 285.9322739 51.69140625 283.2578125 C51.66949219 282.4328125 51.64757812 281.6078125 51.625 280.7578125 C51.61597656 279.89929688 51.60695313 279.04078125 51.59765625 278.15625 C51.6700544 270.31671946 51.6700544 270.31671946 48.09765625 263.53125 C44.58512479 261.18956236 43.23296269 261.03501323 39.09765625 261.53125 C35.050191 263.69617327 33.76991125 265.93421072 32.41015625 270.15625 C32.09498047 271.32027344 32.09498047 271.32027344 31.7734375 272.5078125 C31.09765625 274.53125 31.09765625 274.53125 29.09765625 276.53125 C25.04504338 276.87615322 23.55011449 276.83288882 20.09765625 274.53125 C19.79736343 271.78780977 19.69140816 269.2670233 19.71289062 266.52075195 C19.70751785 265.69289688 19.70214508 264.86504181 19.6966095 264.01210022 C19.68681012 262.21038971 19.68389384 260.40863189 19.68696594 258.60689735 C19.69143311 255.7523656 19.67747295 252.89845748 19.65856934 250.04399109 C19.62171173 243.97725445 19.60807563 237.91058211 19.59765625 231.84375 C19.58557372 224.83074315 19.5639447 217.81803791 19.51765442 210.80516624 C19.50410571 207.99835173 19.5082526 205.19192035 19.51306152 202.38508606 C19.50371569 200.65295938 19.49354557 198.92083688 19.48242188 197.1887207 C19.4885701 196.41286621 19.49471832 195.63701172 19.50105286 194.83764648 C19.44332891 189.69801841 18.55094338 186.07944936 16.09765625 181.53125 C11.40044212 178.39977392 7.72470863 178.25790466 3.22265625 181.78125 Z M60.09765625 182.53125 C60.09765625 184.84125 60.09765625 187.15125 60.09765625 189.53125 C62.07765625 189.53125 64.05765625 189.53125 66.09765625 189.53125 C66.09765625 187.22125 66.09765625 184.91125 66.09765625 182.53125 C64.11765625 182.53125 62.13765625 182.53125 60.09765625 182.53125 Z M115.09765625 182.53125 C115.09765625 184.84125 115.09765625 187.15125 115.09765625 189.53125 C117.40765625 189.53125 119.71765625 189.53125 122.09765625 189.53125 C122.09765625 187.22125 122.09765625 184.91125 122.09765625 182.53125 C119.78765625 182.53125 117.47765625 182.53125 115.09765625 182.53125 Z " fill="#1E81CE" transform="translate(102.90234375,29.46875)"/>
<path d="M0 0 C64.68 0 129.36 0 196 0 C196 39.27 196 78.54 196 119 C153.43 119 110.86 119 67 119 C66.67 106.13 66.34 93.26 66 80 C64.35 77.36 62.7 74.72 61 72 C61 71.34 61 70.68 61 70 C59.67741528 69.31225595 58.34013497 68.65288627 57 68 C55.989375 67.46375 54.97875 66.9275 53.9375 66.375 C48.47490321 64.08914941 42.32768994 63.95270672 36.69140625 65.7265625 C30.08510183 68.79868138 25.77173526 73.23434699 23 80 C22.55533627 83.03957373 22.51213219 86.04859182 22.48828125 89.1171875 C22.47033005 89.97434357 22.45237885 90.83149963 22.43388367 91.71463013 C22.37998595 94.43470436 22.34595142 97.1546052 22.3125 99.875 C22.27930874 101.72658652 22.24481741 103.57815022 22.20898438 105.4296875 C22.12183887 109.95314711 22.06159664 114.47583268 22 119 C14.74 119 7.48 119 0 119 C0 79.73 0 40.46 0 0 Z M39 30 C39 32.31 39 34.62 39 37 C41.31 37 43.62 37 46 37 C46 34.69 46 32.38 46 30 C43.69 30 41.38 30 39 30 Z M95 30 C95 32.31 95 34.62 95 37 C96.98 37 98.96 37 101 37 C101 34.69 101 32.38 101 30 C99.02 30 97.04 30 95 30 Z M150 30 C150 32.31 150 34.62 150 37 C152.31 37 154.62 37 157 37 C157 34.69 157 32.38 157 30 C154.69 30 152.38 30 150 30 Z M95 81 C95 83.31 95 85.62 95 88 C96.98 88 98.96 88 101 88 C101 85.69 101 83.38 101 81 C99.02 81 97.04 81 95 81 Z M150 81 C150 83.31 150 85.62 150 88 C152.31 88 154.62 88 157 88 C157 85.69 157 83.38 157 81 C154.69 81 152.38 81 150 81 Z " fill="#99C8FE" transform="translate(68,131)"/>
<path d="M0 0 C18.06047635 16.22754573 27.86379318 38.29623665 29.6003418 62.34179688 C30.82687776 86.65446534 22.53239498 109.27818415 6.56176758 127.54833984 C-9.66641725 145.30625124 -32.48536458 155.32089943 -56.41918945 156.71679688 C-80.69614506 157.18762268 -103.55983757 149.33963439 -121.20092773 132.54174805 C-122.54920538 131.21818189 -123.87744435 129.87429234 -125.2043457 128.52929688 C-125.86950195 127.86285156 -126.5346582 127.19640625 -127.2199707 126.50976562 C-143.78047461 108.79301032 -150.10648444 85.33835828 -149.4855957 61.61523438 C-148.36591536 36.56238679 -136.35486889 15.87793213 -118.4543457 -1.09570312 C-84.41698148 -30.91791388 -33.64114399 -28.85384662 0 0 Z M-114.3293457 15.27929688 C-124.61645866 25.82159403 -133.94110781 41.73901021 -134.27856445 56.85351562 C-134.25407227 57.73652344 -134.22958008 58.61953125 -134.2043457 59.52929688 C-133.28911133 59.62726563 -132.37387695 59.72523438 -131.4309082 59.82617188 C-130.24239258 59.97570312 -129.05387695 60.12523437 -127.8293457 60.27929688 C-126.64598633 60.41851562 -125.46262695 60.55773437 -124.2434082 60.70117188 C-121.2043457 61.52929688 -121.2043457 61.52929688 -119.7824707 63.41210938 C-118.95063967 66.45840951 -119.29040837 68.52635993 -120.2043457 71.52929688 C-123.1899129 73.50166253 -125.93097475 73.87613601 -129.4543457 74.15429688 C-130.79239258 74.26644531 -130.79239258 74.26644531 -132.1574707 74.38085938 C-132.83293945 74.42984375 -133.5084082 74.47882813 -134.2043457 74.52929688 C-133.75138548 92.40063665 -124.57295358 108.160689 -112.2043457 120.52929688 C-111.13893555 121.59470703 -111.13893555 121.59470703 -110.05200195 122.68164062 C-98.42981398 133.63129693 -83.23001167 140.68584077 -67.2043457 141.52929688 C-67.16696289 140.69785156 -67.12958008 139.86640625 -67.09106445 139.00976562 C-67.02532227 137.92308594 -66.95958008 136.83640625 -66.8918457 135.71679688 C-66.83383789 134.63785156 -66.77583008 133.55890625 -66.71606445 132.44726562 C-66.2043457 129.52929688 -66.2043457 129.52929688 -64.84887695 127.66210938 C-62.29241478 125.90112593 -60.21975111 126.21519215 -57.2043457 126.52929688 C-55.7193457 127.51929688 -55.7193457 127.51929688 -54.2043457 128.52929688 C-53.69262695 131.56835938 -53.69262695 131.56835938 -53.5168457 135.15429688 C-53.45110352 136.3428125 -53.38536133 137.53132812 -53.31762695 138.75585938 C-53.28024414 139.67109375 -53.24286133 140.58632813 -53.2043457 141.52929688 C-33.64587838 140.49990386 -16.3000539 130.29954299 -3.0168457 116.34179688 C7.2329811 104.28193906 12.73271468 90.0827758 14.7956543 74.52929688 C14.04799805 74.49191406 13.3003418 74.45453125 12.5300293 74.41601562 C11.54518555 74.35027344 10.5603418 74.28453125 9.5456543 74.21679688 C8.57112305 74.15878906 7.5965918 74.10078125 6.5925293 74.04101562 C3.48275535 73.4720486 2.01919437 72.75803213 -0.2043457 70.52929688 C-0.7043457 67.02929688 -0.7043457 67.02929688 -0.2043457 63.52929688 C2.81056038 60.50734662 5.37028649 60.09033067 9.5456543 59.84179688 C10.53049805 59.77605469 11.5153418 59.7103125 12.5300293 59.64257812 C13.65151367 59.58650391 13.65151367 59.58650391 14.7956543 59.52929688 C11.33932428 38.95991826 2.78972003 19.51252529 -14.63793945 6.94726562 C-25.86621487 -0.67528832 -39.25905771 -7.95244944 -53.2043457 -7.47070312 C-53.24172852 -6.63925781 -53.27911133 -5.8078125 -53.31762695 -4.95117188 C-53.38336914 -3.86449219 -53.44911133 -2.7778125 -53.5168457 -1.65820312 C-53.57485352 -0.57925781 -53.63286133 0.4996875 -53.69262695 1.61132812 C-54.2043457 4.52929688 -54.2043457 4.52929688 -55.55981445 6.39257812 C-58.14455756 8.17918203 -60.15765826 7.9101328 -63.2043457 7.52929688 C-64.84887695 6.39257812 -64.84887695 6.39257812 -66.2043457 4.52929688 C-66.71606445 1.61132813 -66.71606445 1.61132813 -66.8918457 -1.65820312 C-66.95758789 -2.74488281 -67.02333008 -3.8315625 -67.09106445 -4.95117188 C-67.14713867 -6.19833984 -67.14713867 -6.19833984 -67.2043457 -7.47070312 C-85.29187263 -7.47070312 -101.71613798 3.29106792 -114.3293457 15.27929688 Z " fill="#1D81CE" transform="translate(463.204345703125,215.470703125)"/>
<path d="M0 0 C3.3125 1 3.3125 1 5.3125 4 C5.57319641 6.35266113 5.57319641 6.35266113 5.5871582 9.15820312 C5.59669022 10.20939331 5.60622223 11.2605835 5.61604309 12.34362793 C5.61467598 14.04525085 5.61467598 14.04525085 5.61328125 15.78125 C5.61756638 16.94628052 5.6218515 18.11131104 5.62626648 19.31164551 C5.63201272 21.77627919 5.63250789 24.24092984 5.62817383 26.70556641 C5.62501255 30.48499326 5.64847506 34.26363866 5.67382812 38.04296875 C5.67610087 40.43489484 5.67680473 42.82682305 5.67578125 45.21875 C5.684991 46.35316528 5.69420074 47.48758057 5.70368958 48.65637207 C5.69746078 49.70756226 5.69123199 50.75875244 5.68481445 51.84179688 C5.68544388 52.76762573 5.6860733 53.69345459 5.6867218 54.64733887 C5.2217402 57.57058956 4.6845578 58.25619907 2.3125 60 C-0.51580811 60.37752342 -0.51580811 60.37752342 -4.02636719 60.38095093 C-4.99483896 60.38797089 -4.99483896 60.38797089 -5.98287582 60.39513266 C-8.15025005 60.40711608 -10.31699587 60.39761295 -12.484375 60.38818359 C-14.03658417 60.39224783 -15.58879044 60.39758888 -17.14099121 60.40411377 C-21.35996062 60.41781086 -25.57871038 60.41247892 -29.79768372 60.40297651 C-34.20855307 60.39539228 -38.61940336 60.40242208 -43.03027344 60.40713501 C-50.43818547 60.41259618 -57.84600783 60.4053915 -65.25390625 60.39111328 C-73.82395997 60.37478605 -82.39379959 60.38007431 -90.96384811 60.3965925 C-98.31593028 60.41019711 -105.66794792 60.41213206 -113.0200386 60.40427649 C-117.41374471 60.39959432 -121.80735012 60.39899001 -126.2010498 60.40888596 C-130.33134506 60.41753847 -134.46136372 60.41156533 -138.59162903 60.39420319 C-140.10939575 60.39022913 -141.62718567 60.39138806 -143.14494324 60.39799118 C-145.21315629 60.40616096 -147.28047699 60.39594193 -149.34863281 60.38095093 C-151.08635956 60.37925431 -151.08635956 60.37925431 -152.85919189 60.37752342 C-155.6875 60 -155.6875 60 -157.55633545 58.69103432 C-159.49374381 55.79470591 -159.10027573 53.36117381 -158.6875 50 C-156.57937088 47.20008431 -155.39932552 46.12637553 -151.91517258 45.50780869 C-150.30572203 45.51333944 -150.30572203 45.51333944 -148.66375732 45.51898193 C-147.42979218 45.51348328 -146.19582703 45.50798462 -144.92446899 45.50231934 C-143.55999366 45.51647494 -142.19552227 45.53101416 -140.83105469 45.54589844 C-139.39205965 45.54702691 -137.9530623 45.54639305 -136.5140686 45.54412842 C-132.60926957 45.54298033 -128.70496162 45.56650457 -124.80027676 45.59442425 C-120.71902897 45.61942227 -116.63777005 45.62177863 -112.55645752 45.62652588 C-104.82871804 45.63896039 -97.1012048 45.67178833 -89.37356496 45.71192384 C-80.57560626 45.75662684 -71.77763679 45.77862487 -62.9795928 45.79870558 C-44.88210025 45.84052062 -26.78481831 45.91088182 -8.6875 46 C-8.71368408 44.78417236 -8.73986816 43.56834473 -8.7668457 42.31567383 C-8.8574776 37.79649319 -8.91479648 33.27739256 -8.9621582 28.75756836 C-8.98727281 26.80300377 -9.02137131 24.84853283 -9.06469727 22.89428711 C-9.12548434 20.08163332 -9.15373983 17.27022298 -9.17578125 14.45703125 C-9.20158768 13.58601273 -9.2273941 12.7149942 -9.25398254 11.81758118 C-9.25601447 7.40312089 -9.10141601 5.55626692 -6.38745117 1.90893555 C-3.6875 0 -3.6875 0 0 0 Z " fill="#1D81CE" transform="translate(404.6875,388)"/>
<path d="M0 0 C30.03 0 60.06 0 91 0 C91 8.58 91 17.16 91 26 C60.97 26 30.94 26 0 26 C0 17.42 0 8.84 0 0 Z " fill="#9AC8FE" transform="translate(112,441)"/>
<path d="M0 0 C0.94171555 -0.00540298 1.88343109 -0.01080597 2.85368347 -0.01637268 C5.97243496 -0.02889938 9.0902704 -0.01234252 12.20898438 0.00561523 C14.37227426 0.00546034 16.53556442 0.00397292 18.69885254 0.00120544 C23.23506928 -0.00018032 27.77097053 0.01240937 32.30712891 0.03515625 C38.12827722 0.06354118 43.94890108 0.06080581 49.7700882 0.04806614 C54.23785906 0.0411186 58.70550822 0.04888769 63.17326355 0.06132317 C65.31991611 0.06584666 67.4665817 0.06616667 69.61323547 0.06225777 C72.61092002 0.05935464 75.60787613 0.07580971 78.60546875 0.09765625 C79.94275276 0.09090378 79.94275276 0.09090378 81.30705261 0.08401489 C82.12301407 0.09391953 82.93897552 0.10382416 83.77966309 0.11402893 C84.84263737 0.11767377 84.84263737 0.11767377 85.92708588 0.12139225 C88.37822423 0.61839845 89.2769889 1.55573264 90.80273438 3.50170898 C91.1836853 5.85437012 91.1836853 5.85437012 91.19091797 8.65991211 C91.20037445 9.71110229 91.20983093 10.76229248 91.21957397 11.84533691 C91.21350128 12.9797522 91.20742859 14.11416748 91.20117188 15.28295898 C91.20404205 16.4479895 91.20691223 17.61302002 91.20986938 18.81335449 C91.21191205 21.27799973 91.20636817 23.74266111 91.19384766 26.20727539 C91.17779778 29.98677713 91.19369051 33.76520938 91.21289062 37.54467773 C91.21090823 39.93660719 91.20706464 42.32853597 91.20117188 44.72045898 C91.20724457 45.85487427 91.21331726 46.98928955 91.21957397 48.15808105 C91.20538925 49.73486633 91.20538925 49.73486633 91.19091797 51.34350586 C91.18853119 52.26933472 91.18614441 53.19516357 91.1836853 54.14904785 C90.72843739 56.96054928 90.05723818 57.81281569 87.80273438 59.50170898 C84.92773438 60.50170898 84.92773438 60.50170898 81.80273438 60.50170898 C79.02203509 58.50974493 77.10416535 56.91516526 76.36801147 53.46322632 C76.2238095 50.97550213 76.24065514 48.53550737 76.31445312 46.04467773 C76.32152786 45.14171463 76.3286026 44.23875153 76.33589172 43.3084259 C76.36380118 40.43449811 76.42653205 37.56254426 76.49023438 34.68920898 C76.51532176 32.73676324 76.53813416 30.78428684 76.55859375 28.83178711 C76.61361648 24.05433797 76.6998644 19.27835773 76.80273438 14.50170898 C75.74673035 14.51059143 74.69072632 14.51947388 73.60272217 14.52862549 C63.65591475 14.6096758 53.70917424 14.6696573 43.76211166 14.70895767 C38.64807128 14.72984163 33.53429724 14.75817415 28.42041016 14.8034668 C23.48615141 14.84689554 18.55214903 14.87084 13.61771393 14.88121796 C11.73420424 14.88861466 9.85070874 14.90305859 7.96730804 14.92462921 C5.3310859 14.95362391 2.69592599 14.95766667 0.05957031 14.95581055 C-0.72086136 14.97019165 -1.50129303 14.98457275 -2.30537415 14.99938965 C-5.82520767 14.97253477 -7.81836949 14.78197597 -10.68597412 12.66082764 C-12.73661076 9.73116926 -12.70852717 8.00750243 -12.19726562 4.50170898 C-9.78315125 -0.96295897 -5.21874699 -0.05659383 0 0 Z " fill="#1D81CE" transform="translate(319.197265625,116.498291015625)"/>
<path d="M0 0 C2.52475036 3.78712554 2.49931787 5.50147269 2 10 C0.74837085 12.65501558 -0.92837563 14.90889166 -2.6875 17.25 C-3.6866043 18.64554248 -4.68528285 20.04138985 -5.68359375 21.4375 C-6.21710449 22.17097656 -6.75061523 22.90445312 -7.30029297 23.66015625 C-10.32694592 27.82669487 -13.29677582 32.03122417 -16.25 36.25 C-16.83483154 37.05985352 -17.41966309 37.86970703 -18.0222168 38.70410156 C-18.5562915 39.4669043 -19.09036621 40.22970703 -19.640625 41.015625 C-20.12047852 41.68883789 -20.60033203 42.36205078 -21.09472656 43.05566406 C-22.17882449 44.95510673 -22.17882449 44.95510673 -21.80395508 47.04858398 C-20.94125991 49.14257806 -19.98398433 50.50549484 -18.49609375 52.20703125 C-18.00302734 52.79419922 -17.50996094 53.38136719 -17.00195312 53.98632812 C-15.9630981 55.19897413 -14.91623991 56.40481165 -13.86132812 57.60351562 C-11.13083779 60.8851141 -10.05835329 62.45481358 -9.58984375 66.83203125 C-10 70 -10 70 -11.125 71.875 C-13.90777078 73.54466247 -15.73344791 74 -19 74 C-23.69524841 70.59288559 -27.1257189 66.65407082 -30.625 62.0625 C-31.0890625 61.46759766 -31.553125 60.87269531 -32.03125 60.25976562 C-32.94271509 59.08181286 -33.84312907 57.89521344 -34.73144531 56.69970703 C-35.92053262 55.10647649 -37.15799613 53.54967586 -38.3984375 51.99609375 C-40 49 -40 49 -40.20703125 45.8046875 C-38.41720023 40.16295477 -35.15088105 35.87906246 -31.6875 31.125 C-30.96852539 30.11791992 -30.24955078 29.11083984 -29.50878906 28.07324219 C-28.04560616 26.02426658 -26.57768551 23.97866572 -25.10498047 21.93652344 C-23.17867199 19.24925385 -21.28601576 16.54293998 -19.41015625 13.8203125 C-18.60348511 12.65411377 -18.60348511 12.65411377 -17.78051758 11.46435547 C-16.78608472 10.02560829 -15.79484953 8.5846438 -14.80737305 7.14111328 C-10.49392455 0.96837953 -7.99273176 -2.07218972 0 0 Z " fill="#1D81CE" transform="translate(436,236)"/>
<path d="M0 0 C1.12792969 -0.01095703 2.25585938 -0.02191406 3.41796875 -0.03320312 C11.60579725 0.03946991 11.60579725 0.03946991 15.32202148 2.21313477 C18.09416598 5.20342133 18.13160232 6.68543144 18.12890625 10.71875 C18.13083984 11.90597656 18.13277344 13.09320313 18.13476562 14.31640625 C18.11091797 15.55261719 18.08707031 16.78882813 18.0625 18.0625 C18.07345703 19.29871094 18.08441406 20.53492188 18.09570312 21.80859375 C18.02232795 30.81906532 18.02232795 30.81906532 15.84936523 33.91186523 C11.22775132 37.15895364 5.45212155 36.17332433 0 36.125 C-1.23621094 36.14884766 -2.47242188 36.17269531 -3.74609375 36.19726562 C-4.93332031 36.19533203 -6.12054688 36.19339844 -7.34375 36.19140625 C-8.42849609 36.19213135 -9.51324219 36.19285645 -10.63085938 36.19360352 C-13.5 35.5625 -13.5 35.5625 -15.84936523 33.38452148 C-18.7015491 28.50826158 -18.11611864 23.58206638 -18.0625 18.0625 C-18.08634766 16.93457031 -18.11019531 15.80664062 -18.13476562 14.64453125 C-18.12634345 9.90003778 -18.02239459 6.52933721 -15.74609375 2.31640625 C-10.62690566 -0.44955699 -5.72177346 -0.12097464 0 0 Z M-3.5 14.5625 C-3.5 16.8725 -3.5 19.1825 -3.5 21.5625 C-1.19 21.5625 1.12 21.5625 3.5 21.5625 C3.5 19.2525 3.5 16.9425 3.5 14.5625 C1.19 14.5625 -1.12 14.5625 -3.5 14.5625 Z " fill="#2082CF" transform="translate(221.5,146.4375)"/>
<path d="M0 0 C1.18400391 -0.01095703 2.36800781 -0.02191406 3.58789062 -0.03320312 C12.20593075 0.04003801 12.20593075 0.04003801 15.27099609 2.22900391 C18.47408322 6.71407668 17.5492328 12.1799615 17.5 17.5 C17.53577148 19.27020508 17.53577148 19.27020508 17.57226562 21.07617188 C17.56399803 25.94578545 17.50233276 29.50705526 15.18359375 33.83984375 C10.05725434 36.5603199 5.14931016 36.28541675 -0.5625 36.1875 C-2.25439453 36.21650391 -2.25439453 36.21650391 -3.98046875 36.24609375 C-8.72066828 36.21804523 -12.10007255 36.08429802 -16.3046875 33.8046875 C-19.07823874 28.68902632 -18.78562317 23.78635136 -18.6875 18.0625 C-18.70683594 16.93457031 -18.72617188 15.80664062 -18.74609375 14.64453125 C-18.71816091 9.92388135 -18.57150702 6.52164929 -16.33984375 2.31640625 C-11.06333488 -0.50737502 -5.88353833 -0.11889182 0 0 Z M-4.0625 14.5625 C-4.0625 16.8725 -4.0625 19.1825 -4.0625 21.5625 C-1.7525 21.5625 0.5575 21.5625 2.9375 21.5625 C2.9375 19.2525 2.9375 16.9425 2.9375 14.5625 C0.6275 14.5625 -1.6825 14.5625 -4.0625 14.5625 Z " fill="#2082CF" transform="translate(222.0625,197.4375)"/>
<path d="M0 0 C1.12792969 -0.02384766 2.25585938 -0.04769531 3.41796875 -0.07226562 C8.16107142 -0.06384592 11.5315618 0.03860994 15.7421875 2.31640625 C18.51394751 7.43492307 18.22315587 12.3367411 18.125 18.0625 C18.14433594 19.19042969 18.16367188 20.31835938 18.18359375 21.48046875 C18.15566901 26.19974938 18.0104962 29.60170216 15.77734375 33.8046875 C10.50105067 36.63464207 5.32547476 36.28397146 -0.5625 36.1875 C-2.33850586 36.21650391 -2.33850586 36.21650391 -4.15039062 36.24609375 C-5.28798828 36.23964844 -6.42558594 36.23320312 -7.59765625 36.2265625 C-8.63414307 36.22092285 -9.67062988 36.2152832 -10.73852539 36.20947266 C-13.5 35.5625 -13.5 35.5625 -15.83349609 33.39819336 C-18.77625322 28.39085025 -18.11515155 23.17088163 -18.0625 17.5 C-18.08634766 16.31599609 -18.11019531 15.13199219 -18.13476562 13.91210938 C-18.13186523 12.20571289 -18.13186523 12.20571289 -18.12890625 10.46484375 C-18.12963135 9.42835693 -18.13035645 8.39187012 -18.13110352 7.32397461 C-17.5 4.5625 -17.5 4.5625 -15.32202148 2.22900391 C-10.4519533 -0.64694431 -5.52432154 -0.05366484 0 0 Z M-3.5 14.5625 C-3.5 16.8725 -3.5 19.1825 -3.5 21.5625 C-1.19 21.5625 1.12 21.5625 3.5 21.5625 C3.5 19.2525 3.5 16.9425 3.5 14.5625 C1.19 14.5625 -1.12 14.5625 -3.5 14.5625 Z " fill="#2082CF" transform="translate(110.5,146.4375)"/>
<path d="M0 0 C1.71316406 -0.00773438 1.71316406 -0.00773438 3.4609375 -0.015625 C4.64945313 -0.00015625 5.83796875 0.0153125 7.0625 0.03125 C8.25101563 0.01578125 9.43953125 0.0003125 10.6640625 -0.015625 C11.80617187 -0.01046875 12.94828125 -0.0053125 14.125 0 C15.16785156 0.00451172 16.21070313 0.00902344 17.28515625 0.01367188 C20.82955152 0.67419561 21.98951168 1.59837346 24.0625 4.53125 C24.58007812 7.40039062 24.58007812 7.40039062 24.59375 10.6875 C24.60148437 12.46833984 24.60148437 12.46833984 24.609375 14.28515625 C24.59390625 15.52136719 24.5784375 16.75757813 24.5625 18.03125 C24.57796875 19.26746094 24.5934375 20.50367188 24.609375 21.77734375 C24.60421875 22.96457031 24.5990625 24.15179688 24.59375 25.375 C24.58923828 26.45974609 24.58472656 27.54449219 24.58007812 28.66210938 C23.93038511 32.26361518 23.0405113 33.43146592 20.0625 35.53125 C17.28515625 36.04882812 17.28515625 36.04882812 14.125 36.0625 C12.41183594 36.07023437 12.41183594 36.07023437 10.6640625 36.078125 C9.47554687 36.06265625 8.28703125 36.0471875 7.0625 36.03125 C5.87398437 36.04671875 4.68546875 36.0621875 3.4609375 36.078125 C2.31882813 36.07296875 1.17671875 36.0678125 0 36.0625 C-1.04285156 36.05798828 -2.08570313 36.05347656 -3.16015625 36.04882812 C-6.70455152 35.38830439 -7.86451168 34.46412654 -9.9375 31.53125 C-10.45507812 28.66210938 -10.45507812 28.66210938 -10.46875 25.375 C-10.47390625 24.18777344 -10.4790625 23.00054687 -10.484375 21.77734375 C-10.46890625 20.54113281 -10.4534375 19.30492187 -10.4375 18.03125 C-10.45296875 16.79503906 -10.4684375 15.55882812 -10.484375 14.28515625 C-10.47921875 13.09792969 -10.4740625 11.91070312 -10.46875 10.6875 C-10.46423828 9.60275391 -10.45972656 8.51800781 -10.45507812 7.40039062 C-9.3502575 1.27593217 -5.77873039 0.02500069 0 0 Z M4.0625 14.53125 C4.0625 16.84125 4.0625 19.15125 4.0625 21.53125 C6.0425 21.53125 8.0225 21.53125 10.0625 21.53125 C10.0625 19.22125 10.0625 16.91125 10.0625 14.53125 C8.0825 14.53125 6.1025 14.53125 4.0625 14.53125 Z " fill="#1F81CE" transform="translate(158.9375,197.46875)"/>
<path d="M0 0 C1.71316406 -0.00773438 1.71316406 -0.00773438 3.4609375 -0.015625 C4.64945313 -0.00015625 5.83796875 0.0153125 7.0625 0.03125 C8.25101563 0.01578125 9.43953125 0.0003125 10.6640625 -0.015625 C11.80617187 -0.01046875 12.94828125 -0.0053125 14.125 0 C15.16785156 0.00451172 16.21070313 0.00902344 17.28515625 0.01367188 C20.82955152 0.67419561 21.98951168 1.59837346 24.0625 4.53125 C24.58007812 7.40039062 24.58007812 7.40039062 24.59375 10.6875 C24.60148437 12.46833984 24.60148437 12.46833984 24.609375 14.28515625 C24.59390625 15.52136719 24.5784375 16.75757813 24.5625 18.03125 C24.57796875 19.26746094 24.5934375 20.50367188 24.609375 21.77734375 C24.60421875 22.96457031 24.5990625 24.15179688 24.59375 25.375 C24.58923828 26.45974609 24.58472656 27.54449219 24.58007812 28.66210938 C23.93038511 32.26361518 23.0405113 33.43146592 20.0625 35.53125 C17.28515625 36.04882812 17.28515625 36.04882812 14.125 36.0625 C12.41183594 36.07023437 12.41183594 36.07023437 10.6640625 36.078125 C9.47554687 36.06265625 8.28703125 36.0471875 7.0625 36.03125 C5.87398437 36.04671875 4.68546875 36.0621875 3.4609375 36.078125 C2.31882813 36.07296875 1.17671875 36.0678125 0 36.0625 C-1.04285156 36.05798828 -2.08570313 36.05347656 -3.16015625 36.04882812 C-6.70455152 35.38830439 -7.86451168 34.46412654 -9.9375 31.53125 C-10.45507812 28.66210938 -10.45507812 28.66210938 -10.46875 25.375 C-10.47390625 24.18777344 -10.4790625 23.00054687 -10.484375 21.77734375 C-10.46890625 20.54113281 -10.4534375 19.30492187 -10.4375 18.03125 C-10.45296875 16.79503906 -10.4684375 15.55882812 -10.484375 14.28515625 C-10.47921875 13.09792969 -10.4740625 11.91070312 -10.46875 10.6875 C-10.46423828 9.60275391 -10.45972656 8.51800781 -10.45507812 7.40039062 C-9.3502575 1.27593217 -5.77873039 0.02500069 0 0 Z M4.0625 14.53125 C4.0625 16.84125 4.0625 19.15125 4.0625 21.53125 C6.0425 21.53125 8.0225 21.53125 10.0625 21.53125 C10.0625 19.22125 10.0625 16.91125 10.0625 14.53125 C8.0825 14.53125 6.1025 14.53125 4.0625 14.53125 Z " fill="#1F81CE" transform="translate(158.9375,146.46875)"/>
</svg>
