<svg version="1.1" id="Layer_1" xmlns="http://www.w3.org/2000/svg" xmlns:xlink="http://www.w3.org/1999/xlink" x="0px" y="0px"
	 width="100%" viewBox="0 0 512 512" enable-background="new 0 0 512 512" xml:space="preserve">
<path fill="#000000" opacity="1.000000" stroke="none" 
	d="
M513.000000,395.531342 
	C511.595978,397.895538 509.784393,398.520782 507.385834,398.422424 
	C502.561859,398.224670 497.707703,398.607422 492.897156,398.285278 
	C488.372437,397.982269 487.235321,399.863556 487.272552,404.112793 
	C487.446289,423.938995 487.352570,443.767609 487.345306,463.595337 
	C487.342285,471.816406 487.204437,471.658630 479.021729,471.464325 
	C467.364746,471.187592 455.696594,471.398041 444.033356,471.358246 
	C437.627808,471.336365 436.429016,470.416351 436.718719,464.166748 
	C437.517151,446.941742 438.271393,429.703033 439.676208,412.521484 
	C440.817932,398.557526 441.033325,398.373322 427.138245,398.373718 
	C403.145020,398.374359 379.126038,399.084747 355.164398,398.215546 
	C316.541168,396.814514 277.925446,397.741547 239.309540,397.347900 
	C232.311218,397.276581 231.961990,397.367706 232.417068,404.542694 
	C233.729919,425.241852 234.787918,445.947906 235.575394,466.674011 
	C235.746704,471.182831 234.442429,472.685516 230.059006,473.482910 
	C218.013046,475.674164 205.904816,475.403778 193.785400,475.322784 
	C185.128189,475.264954 183.657440,473.706512 183.647934,465.184723 
	C183.639191,457.349274 183.636978,457.230713 175.840179,457.374695 
	C157.051071,457.721710 138.260849,458.206421 119.478806,458.656097 
	C109.192406,458.902313 98.810814,458.443726 88.605087,459.560547 
	C78.119980,460.707947 67.691605,460.116974 57.242702,460.326843 
	C48.941349,460.493591 44.574677,456.897522 43.802452,448.879852 
	C42.801907,438.491669 42.009537,428.058929 41.771156,417.630646 
	C41.619316,410.988190 40.005600,404.457886 40.613865,397.786926 
	C40.760029,396.183838 40.296295,394.697510 38.361252,394.491119 
	C23.211603,392.875305 18.857525,381.817688 16.789766,369.250366 
	C13.864353,351.470428 11.211406,333.638550 8.849148,315.775024 
	C6.506805,298.062134 4.685491,280.280579 2.592305,262.534241 
	C2.283006,259.911987 1.734688,257.317902 1.148477,254.355408 
	C1.000000,248.311966 1.000000,242.623917 1.000000,236.467941 
	C9.855124,216.500534 35.942966,212.887344 50.271145,229.111282 
	C55.544247,235.082062 57.054359,242.668381 58.311954,250.206696 
	C60.788246,265.050079 63.054047,279.928497 65.439445,294.787201 
	C65.606613,295.828522 66.041107,296.826935 66.460228,298.202942 
	C72.619034,283.571014 79.465599,269.786346 88.451797,257.136871 
	C93.736855,249.697311 99.646812,242.828918 105.758698,236.043701 
	C120.499817,219.678604 137.517868,206.161835 157.463867,197.201797 
	C167.221252,192.818619 172.767441,185.842682 178.330307,177.447662 
	C174.951889,174.819626 170.795715,174.466217 167.722122,171.853622 
	C161.343430,166.431641 159.090256,159.121048 157.260162,151.450790 
	C154.221085,138.713379 151.423187,126.097237 153.433197,112.725281 
	C155.973663,95.824097 163.502716,82.442200 178.117599,73.073341 
	C178.523468,70.431999 176.518372,68.220451 176.593994,65.485771 
	C176.747650,59.929714 179.470352,56.537170 184.995667,56.753639 
	C189.284348,56.921658 190.785339,55.703426 190.830704,51.211742 
	C190.890121,45.328823 196.725906,41.498695 202.530701,42.933941 
	C204.426895,43.402779 206.222626,44.277889 208.223221,45.026676 
	C211.553024,39.527718 216.680710,37.447727 222.721771,38.878944 
	C228.406479,40.225731 231.448227,44.579327 232.551682,50.247860 
	C236.004852,51.619663 239.248932,49.970024 242.361313,49.409748 
	C250.630096,47.921253 258.510651,48.496788 266.294403,51.552223 
	C277.528107,55.961910 289.776428,57.160572 300.557800,63.222935 
	C317.338074,72.658493 327.499329,86.272369 327.833160,105.733894 
	C327.974731,113.986671 325.592865,122.223061 318.809418,128.153595 
	C315.802887,130.782089 314.589752,133.349380 315.048553,137.928024 
	C316.487000,152.282852 315.302734,166.565689 308.103821,179.527878 
	C304.181885,186.589645 306.093353,192.882263 309.157562,199.350433 
	C309.936584,200.994858 310.853119,202.659561 311.189667,204.414078 
	C313.115173,214.451828 306.915039,220.821121 297.143219,217.761780 
	C288.675446,215.110733 283.631653,217.815155 279.201263,224.660202 
	C273.211334,233.914734 264.995178,239.417435 253.373047,238.337952 
	C245.549637,237.611267 239.410507,233.136139 233.318542,228.949036 
	C229.305664,226.190933 226.214920,226.085968 222.640259,229.082458 
	C220.230469,231.102448 217.569077,232.829697 215.219315,234.912491 
	C206.674637,242.486267 206.438019,245.023666 211.121964,255.421768 
	C213.972351,261.749420 215.996872,268.454285 218.284775,275.027161 
	C219.022232,277.145813 219.852295,279.034515 222.069214,279.977509 
	C235.586212,285.727295 249.728424,288.818481 264.266754,290.749146 
	C280.503265,292.905334 296.282288,290.187347 312.180084,287.819366 
	C318.385254,286.895111 324.371033,288.134705 329.833221,291.617004 
	C336.291534,295.734344 342.803284,294.404510 348.389954,287.813995 
	C341.002075,281.670990 334.519928,274.629395 328.793945,266.892487 
	C326.805664,264.205902 325.040131,261.412842 323.864532,258.277618 
	C321.424255,251.769714 322.744385,245.826599 327.338623,242.516174 
	C331.917938,239.216492 339.649811,239.871780 344.435059,244.312668 
	C351.018372,250.422256 356.348114,257.674591 362.203125,264.447815 
	C365.885651,268.707794 369.590179,272.948822 373.264343,277.215942 
	C374.542145,278.699982 376.264008,279.417023 378.075287,279.552307 
	C396.457031,280.925385 410.252563,303.331146 402.143372,320.870605 
	C401.948700,321.291656 401.940552,321.798950 401.802277,322.477478 
	C406.139313,323.189453 410.057526,321.537201 414.093628,321.026794 
	C422.485840,319.965576 425.064178,320.471771 424.367279,328.621155 
	C424.183533,330.770142 424.487701,332.682648 427.421448,332.634949 
	C430.191284,332.589874 430.701294,330.884338 430.634613,328.636505 
	C430.279999,316.680206 430.481171,304.732697 429.905670,292.753571 
	C428.764648,269.003845 428.967529,245.188461 428.682922,221.399384 
	C428.604950,214.884064 428.898804,214.669266 435.445374,214.656784 
	C447.275604,214.634247 459.108765,214.802811 470.934784,214.579849 
	C475.589935,214.492065 477.482574,215.926559 477.439941,220.835617 
	C477.337219,232.662613 477.531982,232.662354 489.197632,232.658768 
	C494.345276,232.657181 499.471893,232.580368 504.589081,233.603317 
	C507.248474,234.134933 508.416992,235.313370 508.320435,237.893372 
	C507.941498,248.015015 507.574951,258.137268 507.131805,268.256165 
	C507.059998,269.895599 506.455200,271.511414 506.381165,273.151001 
	C505.505463,292.548279 504.727600,311.950104 503.786407,331.344055 
	C503.682159,333.492249 504.670929,334.449799 506.256622,335.129303 
	C509.571930,336.550079 511.384521,339.226746 512.836182,342.699890 
	C513.000000,360.354218 513.000000,377.708466 513.000000,395.531342 
M75.876099,449.852020 
	C77.589149,450.648773 79.423668,450.745026 81.260506,450.712250 
	C92.918465,450.504272 104.584618,450.958466 116.235779,450.101959 
	C126.950294,449.314301 127.937294,448.397705 128.622864,437.496674 
	C128.675095,436.666168 128.621689,435.829437 128.659851,434.997559 
	C129.197845,423.265625 127.166183,411.764984 125.066238,400.337921 
	C119.804932,371.708069 123.797356,344.527588 138.187149,319.310028 
	C142.278656,312.139832 145.174484,306.558960 138.148331,299.922516 
	C136.280685,298.158478 135.727692,295.235107 138.548187,293.436523 
	C141.349747,291.650024 143.279526,293.499542 144.725479,295.744568 
	C153.334137,309.110687 166.109604,317.143829 180.476074,322.608063 
	C205.284454,332.043945 230.828949,338.999054 257.334503,341.418335 
	C267.558105,342.351471 277.911407,343.422455 288.252289,341.981781 
	C290.557617,341.660614 292.287933,341.401367 292.757263,338.476746 
	C294.721039,326.239746 293.512451,314.274811 290.233765,302.427765 
	C289.676880,300.415527 288.743256,299.285919 286.341522,299.672607 
	C280.699402,300.580963 275.068970,299.807587 269.411041,299.436798 
	C231.767319,296.969940 199.092819,282.978607 171.302750,257.521851 
	C169.217575,255.611771 167.304031,253.512039 165.342407,251.470016 
	C163.521683,249.574692 162.810928,247.340073 164.678253,245.235764 
	C166.745026,242.906662 168.894135,244.065262 170.745255,245.814438 
	C172.682770,247.645264 174.482513,249.625641 176.463028,251.406586 
	C185.953308,259.940521 195.733582,268.063263 208.274261,273.428375 
	C207.642899,271.318146 207.272995,269.898468 206.796127,268.515656 
	C200.473068,250.179428 192.032410,232.832947 182.186478,216.155548 
	C173.236053,200.995056 168.666397,199.739334 153.374176,208.749481 
	C115.795532,230.890717 89.517776,262.624207 73.959213,303.261963 
	C71.422226,309.888397 68.340973,316.530182 69.395348,324.002991 
	C71.274315,337.319885 73.202286,350.630066 75.034767,363.953339 
	C76.295876,373.122467 76.666115,382.059265 67.681000,388.165955 
	C66.096985,389.242462 66.461601,391.116516 66.195404,392.740295 
	C63.985668,406.219666 66.146355,419.684082 66.603241,433.125671 
	C66.818443,439.457001 66.881096,446.940826 75.876099,449.852020 
M402.500061,389.659180 
	C418.328888,389.752869 434.158142,389.801331 449.986420,389.952881 
	C466.143616,390.107544 482.299866,390.363739 498.456512,390.574707 
	C501.195923,390.610474 504.263184,390.734955 504.483948,387.015961 
	C505.203400,374.897461 507.280426,362.857605 506.711914,350.666931 
	C506.510620,346.351257 504.094391,343.667725 500.090637,342.218781 
	C497.346863,341.225830 494.522339,341.316040 491.696045,341.316193 
	C447.873444,341.318512 404.050873,341.335419 360.228271,341.333679 
	C348.191711,341.333191 336.298981,342.567902 324.706573,345.864349 
	C304.144409,351.711395 283.240875,350.833832 262.260193,349.544922 
	C249.955231,348.788971 237.902908,346.102448 225.624100,345.236084 
	C210.788498,344.189331 196.020477,346.780090 181.183792,345.977448 
	C174.036179,345.590759 166.868423,345.588623 159.712067,345.345215 
	C156.930527,345.250580 155.383560,346.106903 155.233215,349.235321 
	C154.705978,360.206573 154.044968,371.172302 153.319977,382.132538 
	C153.118759,385.174683 154.022369,386.831604 157.299118,387.036713 
	C164.601837,387.493896 171.890228,388.520233 179.191696,388.593323 
	C200.684250,388.808594 222.194534,389.167603 243.671478,388.550934 
	C271.812592,387.742889 299.959625,387.648285 328.074158,388.280731 
	C352.548370,388.831268 377.010834,389.848083 402.500061,389.659180 
M229.411179,171.789276 
	C232.146515,177.992081 236.426544,178.983261 241.388123,174.472107 
	C244.491089,171.650803 245.743820,167.818466 246.610397,163.885559 
	C247.469025,159.988739 248.050140,156.031570 248.860825,152.123230 
	C251.952530,137.217758 260.989288,129.797165 276.262787,129.716110 
	C283.258911,129.678986 290.272186,130.194885 297.249451,129.864456 
	C310.439301,129.239838 320.830658,115.909424 319.251984,102.811806 
	C317.500671,88.281685 309.370178,78.561852 297.299316,71.307350 
	C287.962982,65.696281 277.052368,64.775177 267.242157,60.820663 
	C255.356842,56.029663 243.891708,56.660069 232.117538,60.328426 
	C227.160736,61.872761 225.441711,60.723553 224.780716,55.575115 
	C224.326981,52.040905 224.076385,47.702847 219.734009,47.559566 
	C215.129776,47.407642 215.405289,52.198982 214.431396,55.406796 
	C214.337036,55.717606 214.356110,56.068733 214.355560,56.401196 
	C214.351471,58.881863 213.860687,61.255688 211.150757,61.983257 
	C208.332047,62.740025 207.067657,60.424541 205.638458,58.572876 
	C204.037979,56.499306 203.319748,53.424416 200.013519,53.016773 
	C198.466156,55.835442 200.044968,57.804855 201.084579,59.818794 
	C202.118530,61.821842 203.058350,63.865189 201.435440,65.870079 
	C199.935318,67.723274 197.689133,67.728958 195.474594,67.693237 
	C193.630936,67.663498 191.738770,65.908287 189.880737,67.713173 
	C194.680389,75.257156 194.635773,75.311775 185.992111,78.969543 
	C178.167877,82.280556 172.398224,87.941299 168.307526,95.253258 
	C156.194000,116.905693 161.148361,138.560532 169.368118,159.732071 
	C172.809509,168.596008 183.731430,170.461014 192.534073,165.258942 
	C195.305389,163.621170 196.751709,161.982864 196.035736,158.106857 
	C193.521606,144.496292 201.682983,131.313187 214.344238,127.540314 
	C226.102066,124.036659 236.496109,131.919586 236.296768,144.162766 
	C236.218872,148.947693 234.415649,153.240555 232.704422,157.587387 
	C231.004852,161.904526 228.797241,166.118454 229.411179,171.789276 
M277.310608,213.776733 
	C282.868164,208.147659 289.354736,206.367554 296.932770,208.997009 
	C298.668915,209.599426 300.615540,210.344833 302.066071,208.718811 
	C303.543915,207.062180 302.274689,205.258194 301.693420,203.566132 
	C301.477478,202.937668 301.241791,202.306580 300.930481,201.721741 
	C295.924988,192.317368 296.368744,183.368469 301.223602,173.690704 
	C306.878265,162.418518 309.265930,150.183945 306.262024,137.048248 
	C301.177185,137.526611 296.308411,138.703506 291.324127,138.300690 
	C286.353333,137.898956 281.352295,137.340027 276.386902,137.508881 
	C264.664368,137.907516 259.604279,142.249542 256.928558,153.588852 
	C256.280426,156.335556 255.767670,159.115250 255.233932,161.887726 
	C254.192764,167.295959 253.007584,172.651794 249.882690,177.334122 
	C245.813950,183.430695 237.727676,186.768295 231.159760,185.074875 
	C225.371048,183.582382 221.370285,177.779510 220.874207,170.014191 
	C220.622818,166.078857 222.111588,162.499466 223.436157,158.913391 
	C225.104477,154.396591 227.341736,150.093323 228.201080,145.278442 
	C229.347153,138.857239 224.250961,133.577042 217.929489,134.753845 
	C209.876495,136.253006 202.628738,145.804947 203.383347,153.924530 
	C204.028671,160.868408 207.840454,163.814880 214.382736,162.257278 
	C216.495972,161.754166 218.037582,162.321289 219.075150,164.070877 
	C220.320023,166.170013 219.527344,167.955292 217.716248,169.276535 
	C213.956039,172.019684 209.750168,173.246216 205.611649,170.631348 
	C200.744858,167.556274 198.028381,171.571198 195.146179,173.660339 
	C192.237411,175.768738 195.342499,178.424622 196.109451,180.736633 
	C196.623199,182.285309 197.637314,183.689789 198.543762,185.083160 
	C211.202530,204.542130 229.793381,217.121979 249.456177,228.234970 
	C256.197296,232.044922 263.045837,230.067352 268.491608,224.244217 
	C271.441101,221.090378 274.039551,217.608261 277.310608,213.776733 
M51.282558,265.218475 
	C52.047112,260.595032 47.633778,257.337738 48.436817,252.371124 
	C50.240189,241.217728 41.810234,229.954163 30.703941,227.633301 
	C19.600636,225.313049 7.337576,237.046066 8.926719,248.154205 
	C11.185118,263.940430 13.262524,279.756287 15.104583,295.595856 
	C15.609105,299.934143 16.212852,303.796051 20.216753,306.328735 
	C21.773785,307.313568 22.182798,309.063812 22.027018,310.758636 
	C20.775070,324.378998 26.647150,337.622223 23.741291,351.443939 
	C22.286676,358.362732 25.918024,365.061401 27.228725,371.870117 
	C29.103691,381.610046 34.410278,386.379883 44.251514,385.887268 
	C48.609707,385.669098 52.825188,384.731293 56.992802,383.562134 
	C66.292511,380.953247 68.832047,377.327332 67.513168,367.954498 
	C62.721283,333.900085 58.295895,299.786346 51.282558,265.218475 
M138.470886,449.376495 
	C152.304642,450.179779 166.095810,448.440430 179.917557,448.685852 
	C183.656448,448.752258 183.734924,446.429871 183.674301,443.725739 
	C183.357071,429.574646 183.021179,415.423431 182.836304,401.270386 
	C182.797272,398.284088 181.588242,397.196564 178.721466,396.953400 
	C169.280533,396.152618 159.791626,395.909332 150.407700,394.398712 
	C146.538086,393.775787 144.900208,391.628174 145.067490,387.911835 
	C145.621078,375.614380 146.208359,363.318390 146.798126,351.022583 
	C147.458725,337.250671 148.560028,336.346375 162.376999,337.234650 
	C173.685318,337.961700 184.996246,337.709290 197.735596,337.174866 
	C193.829605,335.924438 191.295059,335.177124 188.804230,334.304932 
	C175.876175,329.778015 163.110840,324.814545 152.469742,315.900085 
	C148.875305,312.888855 147.229462,313.406921 144.935867,317.193634 
	C130.084045,341.714447 125.287552,368.066315 129.661362,396.311340 
	C131.817383,410.234253 134.942520,424.110382 133.341827,438.373718 
	C132.940918,441.946045 132.446152,445.507812 131.963943,449.316101 
	C134.073105,449.316101 135.863846,449.316101 138.470886,449.376495 
M221.570770,464.212769 
	C224.158539,463.066498 225.920197,461.523743 225.980865,458.276062 
	C226.338715,439.120789 224.132492,420.031860 224.587555,400.872894 
	C224.664551,397.630737 222.939911,396.111237 219.336441,397.049683 
	C213.983444,398.443787 208.472961,398.627319 202.977234,398.058502 
	C191.168564,396.836365 191.197311,396.799469 191.237137,408.643402 
	C191.295944,426.130280 191.301056,443.617340 191.367142,461.104187 
	C191.376465,463.570679 191.057251,466.669525 194.658524,466.737457 
	C203.445328,466.903259 212.281708,467.252441 221.570770,464.212769 
M479.597321,416.508331 
	C479.605194,413.844208 479.619293,411.180054 479.619873,408.515930 
	C479.622040,398.622009 479.612396,398.515472 470.176880,399.221497 
	C464.306885,399.660736 458.593903,398.014557 452.749664,398.286743 
	C450.419586,398.395264 448.473663,398.474152 448.307037,401.594879 
	C447.376068,419.031219 446.246674,436.457642 445.419098,453.898529 
	C445.160095,459.357300 447.144531,461.663452 452.568909,462.117432 
	C459.189209,462.671539 465.871399,462.810577 472.514587,462.643036 
	C476.409027,462.544800 478.714844,460.311493 479.014282,455.950500 
	C479.893951,443.138916 479.471924,430.320618 479.597321,416.508331 
M380.387299,332.123505 
	C383.762604,330.205383 386.634033,327.659027 389.060211,324.676392 
	C392.305542,320.686707 395.733917,316.757568 395.762390,311.118317 
	C395.807404,302.199066 392.134613,295.279144 384.448944,290.816559 
	C376.618866,286.270142 368.533203,286.338593 360.781006,291.052399 
	C353.608582,295.413666 347.237671,301.160156 338.551910,302.977173 
	C341.594910,313.226166 342.272552,323.247498 342.070282,333.681488 
	C353.332672,333.681488 364.132294,333.670380 374.931854,333.692902 
	C376.640930,333.696472 378.234863,333.378052 380.387299,332.123505 
M439.333008,314.873627 
	C439.612823,317.886383 440.274170,320.656281 444.141388,320.529877 
	C450.619476,320.318176 457.092896,319.967865 463.570404,319.734039 
	C465.897461,319.650055 466.781921,318.393250 466.848816,316.241913 
	C467.437317,297.306824 468.017883,278.371490 468.647705,259.437744 
	C468.760101,256.059967 467.001526,255.073273 463.985168,255.286850 
	C458.684906,255.662140 453.385132,256.088684 448.077423,256.302216 
	C440.485291,256.607574 437.901459,259.107758 438.072174,266.644165 
	C438.429596,282.427582 438.882660,298.208801 439.333008,314.873627 
M481.588806,310.695343 
	C483.254883,310.669800 484.938354,310.790741 486.584259,310.595337 
	C498.716522,309.154999 496.305786,310.606262 496.795563,300.127136 
	C496.888824,298.131531 497.066895,296.140076 497.176056,294.145081 
	C497.675995,285.007263 498.118561,275.865967 498.684296,266.732269 
	C498.879150,263.586670 497.839630,262.089722 494.465851,262.265320 
	C489.976715,262.498932 485.470337,262.379303 480.974640,262.517242 
	C477.859100,262.612823 476.269958,263.954742 476.230194,267.466827 
	C476.086792,280.123810 475.790405,292.783173 475.260071,305.429382 
	C475.082001,309.675507 476.602386,311.275848 481.588806,310.695343 
M181.278168,201.242188 
	C190.319672,211.304535 195.046143,224.088608 202.512390,235.991013 
	C208.081528,229.595535 213.704971,224.296051 221.125381,219.650330 
	C206.845749,208.826553 194.734573,197.070572 186.978165,180.660828 
	C184.098862,184.732986 182.110733,187.774033 179.890762,190.635162 
	C175.697830,196.039062 175.642410,195.996063 181.278168,201.242188 
M319.623505,339.730286 
	C322.083282,339.381226 324.549072,339.069611 327.001434,338.674561 
	C331.037628,338.024292 333.248962,335.336151 333.516510,331.546906 
	C334.079010,323.579926 334.011658,315.587830 331.432800,307.884918 
	C328.583862,299.375488 321.177582,295.021271 312.311432,296.404480 
	C308.989502,296.922760 307.716675,298.288208 308.913269,301.832642 
	C310.987213,307.975769 311.819611,314.373108 312.617279,320.823975 
	C313.411224,327.244690 312.984467,333.639526 312.908813,339.861389 
	C315.260559,340.804596 317.000122,339.693512 319.623505,339.730286 
M59.582661,440.616577 
	C57.386848,426.414917 57.625599,412.106354 57.599255,397.802368 
	C57.595627,395.832214 59.040051,392.465393 55.104282,392.556854 
	C51.667225,392.636719 48.738335,393.462402 49.153744,398.393097 
	C49.682846,404.673279 50.352104,410.950104 50.460720,417.291382 
	C50.619862,426.582733 51.404671,435.873840 52.209461,445.140137 
	C52.770073,451.594940 55.344437,452.992828 62.178101,450.963135 
	C61.845806,447.685669 59.534477,444.876648 59.582661,440.616577 
M499.084412,253.464203 
	C499.272278,250.816666 499.431793,248.166733 499.655579,245.522232 
	C499.903076,242.597015 498.755585,241.225693 495.669312,241.311768 
	C490.845673,241.446274 486.014740,241.386612 481.188141,241.318893 
	C478.494171,241.281128 477.063660,242.543381 477.094391,245.173004 
	C477.142303,249.277634 474.443176,253.596191 477.951477,257.428406 
	C478.214478,257.715698 478.901489,257.690460 479.389771,257.684357 
	C484.708160,257.617981 490.040375,258.018585 495.332123,257.062317 
	C497.083923,256.745758 498.613312,256.364410 499.084412,253.464203 
M495.075562,331.508087 
	C497.968109,316.092926 497.053436,314.958466 481.986877,315.367767 
	C480.664948,315.403687 479.331207,315.496429 478.031250,315.724274 
	C476.390503,316.011841 475.309082,316.987030 475.296722,318.758636 
	C475.265686,323.193573 475.286469,327.628906 475.286469,332.582062 
	C481.702850,332.641663 488.088806,333.267303 495.075562,331.508087 
M449.568542,250.653839 
	C454.587280,251.271606 459.453491,249.555862 464.438629,249.680328 
	C466.877075,249.741211 468.759888,249.275040 468.613098,246.175781 
	C468.471100,243.177414 466.373413,243.386841 464.343842,243.351196 
	C456.534729,243.214066 448.753235,243.443100 440.971619,244.295929 
	C437.708679,244.653534 437.201447,246.325226 437.378143,248.979218 
	C437.583038,252.057205 439.814728,251.931839 441.727081,251.427658 
	C444.025085,250.821823 446.292969,250.630966 449.568542,250.653839 
M445.669128,230.325363 
	C445.234589,230.736267 445.144958,231.319656 445.666809,231.545792 
	C449.746094,233.313492 453.941437,234.809250 458.035522,236.542542 
	C460.875885,237.745071 465.448700,238.764114 467.639526,235.298691 
	C469.663330,232.097473 470.078125,227.469315 467.976807,224.327255 
	C466.126648,221.560715 462.035278,222.600494 459.164703,223.743439 
	C454.709076,225.517487 450.501740,227.915100 445.669128,230.325363 
M466.700897,328.565216 
	C466.858002,325.936127 465.405853,325.059631 463.015503,325.098053 
	C456.383087,325.204742 449.750336,325.314148 443.117310,325.345123 
	C440.327179,325.358154 439.347015,326.728760 439.366364,329.385132 
	C439.385345,331.986786 440.680908,332.924438 443.070374,332.907593 
	C449.868896,332.859741 456.667511,332.819305 463.466187,332.802917 
	C465.782257,332.797333 466.767242,331.611938 466.700897,328.565216 
M396.945709,330.109741 
	C395.618561,330.718903 394.091125,331.144989 394.174133,333.854523 
	C401.426483,332.113495 408.669769,332.870026 415.888306,332.581726 
	C418.420776,332.480591 418.789001,330.729340 418.550323,328.714722 
	C418.304413,326.638763 416.949402,326.624359 415.245819,326.918274 
	C409.378113,327.930664 403.490234,328.826019 396.945709,330.109741 
M361.815918,281.034912 
	C363.343903,276.075531 358.948914,273.879944 356.333099,272.132874 
	C353.440277,270.200806 351.691284,274.195343 349.405151,276.570892 
	C353.378204,278.910339 355.301300,284.754303 361.815918,281.034912 
M302.740540,312.768555 
	C303.640289,313.034515 304.540070,313.300507 305.766052,313.662903 
	C305.399963,310.193665 306.067505,306.840210 303.709412,304.186951 
	C301.686462,304.008484 302.309021,306.950714 300.419891,306.687256 
	C298.916626,305.941376 299.001831,303.556061 296.451385,303.411621 
	C297.444702,309.370636 298.416107,315.198090 299.425110,321.251221 
	C300.988800,319.928162 300.729462,318.357941 300.941132,316.941772 
	C301.152557,315.527283 300.619690,313.894958 302.740540,312.768555 
M346.063019,270.348358 
	C350.192841,268.937775 350.354584,268.763947 350.797760,265.259369 
	C347.047394,266.557404 347.047394,266.557404 346.063019,270.348358 
z"/>
<path fill="#000000" opacity="1.000000" stroke="none" 
	d="
M208.257187,154.903503 
	C209.665970,150.241379 213.770523,150.354889 217.242798,149.312714 
	C217.572495,146.121429 216.312515,144.492645 213.237106,144.279282 
	C211.758636,144.176712 210.618668,143.614182 210.618958,141.925690 
	C210.619308,139.915894 212.157120,139.581635 213.678040,139.382599 
	C217.427826,138.891937 221.495499,142.019653 222.151855,146.204178 
	C222.506866,148.467484 222.483109,150.855988 222.204834,153.136093 
	C221.860733,155.955841 220.638580,158.115814 217.271179,156.135773 
	C215.427368,155.051620 213.941818,155.267319 212.284378,156.549423 
	C210.481476,157.944061 208.893082,157.818542 208.257187,154.903503 
z"/>
<path fill="#000000" opacity="1.000000" stroke="none" 
	d="
M32.925396,298.183105 
	C32.525230,300.677185 32.221294,302.795319 31.660065,304.842896 
	C31.306501,306.132843 30.471111,307.295197 28.887800,307.201477 
	C27.332634,307.109467 26.623566,305.916077 26.334290,304.584412 
	C25.840845,302.312836 25.852543,300.001831 26.450361,297.744690 
	C26.889673,296.085999 27.730705,294.557373 29.613270,294.371216 
	C31.961647,294.139038 32.695400,295.781311 32.925396,298.183105 
z"/>
<path fill="#000000" opacity="1.000000" stroke="none" 
	d="
M379.872589,298.768005 
	C379.144562,299.777527 378.152191,300.497192 377.620575,299.978638 
	C374.972534,297.395660 372.006409,295.596405 368.595367,294.034210 
	C366.581238,293.111816 368.250061,290.969299 370.376312,290.442200 
	C374.945251,289.309479 378.768829,292.472351 379.872589,298.768005 
z"/>
<path fill="#000000" opacity="1.000000" stroke="none" 
	d="
M388.441650,313.289307 
	C383.673523,312.342834 383.314758,307.632904 380.959961,304.720581 
	C379.768982,303.247498 382.644745,302.563507 384.282776,302.956696 
	C388.403534,303.945892 390.388062,308.554871 388.441650,313.289307 
z"/>
</svg>