<?xml version="1.0" encoding="UTF-8"?>
<svg version="1.1" xmlns="http://www.w3.org/2000/svg" width="512" height="512">
<path d="M0 0 C1.11826172 0.00322266 2.23652344 0.00644531 3.38867188 0.00976562 C4.55591797 0.01814453 5.72316406 0.02652344 6.92578125 0.03515625 C8.10462891 0.03966797 9.28347656 0.04417969 10.49804688 0.04882812 C13.41150914 0.06062352 16.32486988 0.07708355 19.23828125 0.09765625 C19.37363281 0.98066406 19.50898438 1.86367187 19.6484375 2.7734375 C21.53689435 13.30130173 24.63835726 22.22931603 33.67578125 28.59765625 C42.17859597 33.88973068 49.66141677 34.53769623 59.47216797 34.50170898 C60.78375885 34.50857224 62.09534973 34.51543549 63.44668579 34.52250671 C67.02535343 34.54036888 70.60377493 34.53928276 74.18247366 34.53356433 C77.17925609 34.53046187 80.17599197 34.53657675 83.17276776 34.54260308 C90.24786806 34.55662437 97.32284756 34.55510751 104.39794922 34.54370117 C111.67574932 34.53222668 118.95318061 34.54628959 126.23093212 34.57309765 C132.49874001 34.59531364 138.76643264 34.60187867 145.03427708 34.59602123 C148.76922703 34.59266396 152.50394075 34.59498394 156.23885727 34.61227226 C160.40800776 34.63073019 164.57644924 34.61649394 168.74560547 34.59936523 C170.58037445 34.61386719 170.58037445 34.61386719 172.45220947 34.62866211 C182.22491036 34.54483724 189.77772233 32.62564531 197.23828125 26.09765625 C197.89828125 26.09765625 198.55828125 26.09765625 199.23828125 26.09765625 C199.48578125 25.56140625 199.73328125 25.02515625 199.98828125 24.47265625 C201.23828125 22.09765625 201.23828125 22.09765625 203.17578125 19.47265625 C205.55064094 15.58652221 206.51732798 12.12378051 207.48828125 7.72265625 C207.74738281 6.61857422 207.74738281 6.61857422 208.01171875 5.4921875 C208.43148375 3.69652609 208.83643544 1.89741248 209.23828125 0.09765625 C213.30064527 0.01036578 217.36276714 -0.04283367 221.42578125 -0.08984375 C223.15151367 -0.12754883 223.15151367 -0.12754883 224.91210938 -0.16601562 C226.57983398 -0.18051758 226.57983398 -0.18051758 228.28125 -0.1953125 C229.3024292 -0.21102295 230.3236084 -0.2267334 231.37573242 -0.24291992 C234.69905584 0.15247762 236.55570283 1.12975428 239.23828125 3.09765625 C240.46564603 5.55238581 240.36694783 7.14723668 240.37250233 9.89285088 C240.37696017 10.91151769 240.38141801 11.9301845 240.38601094 12.97972 C240.38582658 14.10732274 240.38564222 15.23492548 240.38545227 16.396698 C240.38912896 17.58798187 240.39280565 18.77926575 240.39659375 20.00664914 C240.40573245 23.3236814 240.41033286 26.64066414 240.41298306 29.95770431 C240.41688174 33.53106569 240.42646028 37.10441268 240.43519592 40.67776489 C240.45497132 49.31179972 240.46502729 57.94583575 240.47392371 66.57988757 C240.47830431 70.64286004 240.48367166 74.70583121 240.48891258 78.76880264 C240.50592491 92.2694948 240.52042047 105.77018614 240.52766132 119.27088737 C240.5295713 122.77548092 240.53149163 126.28007445 240.53344727 129.78466797 C240.53393101 130.65574724 240.53441475 131.52682651 240.53491315 132.42430212 C240.54321863 146.54440699 240.56856424 160.6644273 240.60102794 174.78449522 C240.63406425 189.27133854 240.65210692 203.75813883 240.65530556 218.24502003 C240.6574737 226.38295238 240.66626674 234.52076136 240.69176674 242.65865707 C240.71342688 249.58723121 240.72154734 256.51565201 240.71179996 263.44425617 C240.70724172 266.98100087 240.70922907 270.51742888 240.7285614 274.05413055 C240.74931838 277.88443588 240.73925139 281.71430011 240.72602844 285.54464722 C240.73699769 286.66778851 240.74796693 287.79092981 240.75926858 288.94810569 C240.75068769 289.971988 240.7421068 290.9958703 240.73326588 292.05077934 C240.73424269 292.93520301 240.73521949 293.81962667 240.7362259 294.73085105 C240.06197713 297.93565603 238.8112636 299.12414714 236.23828125 301.09765625 C234.18155479 301.59905291 234.18155479 301.59905291 231.94662476 301.60102081 C231.09117884 301.6114518 230.23573292 301.62188279 229.3543644 301.63262987 C228.41935286 301.62370698 227.48434132 301.6147841 226.52099609 301.60559082 C225.52401388 301.61183078 224.52703167 301.61807075 223.49983788 301.6244998 C220.149393 301.64049163 216.7996694 301.62780098 213.44921875 301.61523438 C211.05120417 301.62065272 208.65319291 301.62777375 206.25518799 301.63647461 C200.41225423 301.65284619 194.56950872 301.65041462 188.72658014 301.63882405 C183.9784085 301.62979465 179.23029446 301.62856357 174.4821167 301.63291931 C173.80662541 301.63353224 173.13113412 301.63414518 172.43517339 301.63477668 C171.06297444 301.63605557 169.6907755 301.63735242 168.31857657 301.63866705 C155.44800511 301.65007634 142.57754756 301.63695371 129.70699477 301.61546558 C118.66072592 301.59759424 107.6146252 301.60069825 96.56835938 301.61914062 C83.74420973 301.64054122 70.92015996 301.64897768 58.09599495 301.63669157 C56.72881192 301.63541736 55.36162887 301.63415988 53.9944458 301.63291931 C53.32174569 301.63230221 52.64904559 301.63168511 51.95596063 301.63104931 C47.21286459 301.62759396 42.46983184 301.6334287 37.72674561 301.64283752 C31.3442368 301.65522001 24.96197116 301.64641851 18.57949066 301.6232605 C16.23328938 301.61795923 13.88706143 301.61951125 11.54087067 301.62831116 C8.34540423 301.63919387 5.15096675 301.62559035 1.95556641 301.60559082 C0.5530491 301.61897515 0.5530491 301.61897515 -0.8778019 301.63262987 C-2.16097077 301.61698339 -2.16097077 301.61698339 -3.47006226 301.60102081 C-4.57635262 301.6000467 -4.57635262 301.6000467 -5.70499229 301.59905291 C-8.69985371 300.86895411 -9.89799467 299.5116666 -11.76171875 297.09765625 C-12.26196474 294.73315239 -12.26196474 294.73315239 -12.26229 292.05636597 C-12.27210429 291.03371706 -12.28191858 290.01106815 -12.29203027 288.95742989 C-12.28242527 287.83565283 -12.27282026 286.71387577 -12.26292419 285.55810547 C-12.26845859 284.36511274 -12.27399299 283.17212002 -12.27969509 281.942976 C-12.29096736 278.63014843 -12.28425443 275.31823504 -12.26995838 272.00547695 C-12.25886668 268.43349791 -12.27078518 264.86158637 -12.27980042 261.28961182 C-12.29374726 254.29163315 -12.28616613 247.29383469 -12.27112483 240.29586458 C-12.2542811 232.14983148 -12.25747292 224.00384347 -12.26121891 215.85779834 C-12.26710014 201.3250843 -12.25291566 186.79245685 -12.22827148 172.25976562 C-12.20434993 158.15165969 -12.19726688 144.04366945 -12.20776367 129.93554688 C-12.21916808 114.57999712 -12.22110886 99.2245009 -12.20666558 83.8689518 C-12.20513971 82.23215358 -12.20361935 80.59535536 -12.20210457 78.95855713 C-12.20134675 78.15317973 -12.20058894 77.34780233 -12.19980816 76.51801956 C-12.19506163 70.83717993 -12.19691938 65.15636417 -12.20116997 59.4755249 C-12.20609218 52.55431505 -12.20013224 45.63321468 -12.18027567 38.71202993 C-12.17039105 35.17938914 -12.16531104 31.64691519 -12.17316818 28.11426544 C-12.18150334 24.28847284 -12.1666695 20.46297452 -12.1493988 16.63720703 C-12.15540885 15.51542997 -12.16141889 14.39365292 -12.16761106 13.23788261 C-12.15917112 12.21523371 -12.15073118 11.1925848 -12.14203548 10.13894653 C-12.14100635 9.25560701 -12.13997723 8.37226749 -12.13891691 7.46216011 C-11.67712324 4.56736098 -10.77144455 3.20847551 -8.76171875 1.09765625 C-5.58384334 0.03836445 -3.33582932 -0.01693314 0 0 Z M67.52734375 96.22265625 C66.91434418 96.84414551 66.3013446 97.46563477 65.66976929 98.10595703 C63.71971761 100.08953101 61.79158222 102.09295362 59.86328125 104.09765625 C58.54305995 105.44797821 57.22146002 106.79695375 55.8984375 108.14453125 C52.66219492 111.44684286 49.44544967 114.76711087 46.23828125 118.09765625 C45.12277924 117.14951728 44.00841716 116.20003707 42.89453125 115.25 C42.27384766 114.72140381 41.65316406 114.19280762 41.01367188 113.64819336 C39.54578603 112.3662155 38.1336838 111.02067374 36.73828125 109.66015625 C34.21715297 107.78587132 34.21715297 107.78587132 30.61328125 108.03515625 C27.15153111 108.81570416 27.15153111 108.81570416 25.17578125 111.34765625 C23.96371747 114.03253275 23.96371747 114.03253275 24.96191406 116.52026367 C27.13032237 120.89897188 30.56688076 123.97955845 33.98828125 127.41015625 C34.69210938 128.15072266 35.3959375 128.89128906 36.12109375 129.65429688 C39.0584372 132.61620918 41.22495806 134.78919647 45.25390625 136.015625 C49.98982137 134.55889718 52.74654998 131.52871634 56.23828125 128.09765625 C57.28763696 127.09763158 58.33835574 126.09903606 59.39013672 125.1015625 C62.3973523 122.23688792 65.3663004 119.33567043 68.32250977 116.41845703 C69.56441692 115.19830902 70.81255811 113.9844759 72.06665039 112.77685547 C73.89769246 111.01274755 75.70823229 109.22969798 77.515625 107.44140625 C78.07595932 106.90890259 78.63629364 106.37639893 79.21360779 105.82775879 C82.86834115 102.15332307 84.1643764 99.48342194 84.23828125 94.09765625 C82.82161458 91.51432292 82.82161458 91.51432292 80.23828125 90.09765625 C73.9766239 88.99680386 71.54486839 91.99117812 67.52734375 96.22265625 Z M97.23828125 109.09765625 C96.23350088 110.94989295 96.23350088 110.94989295 96.23828125 113.09765625 C97.94725578 116.87538943 99.43401573 118.5532262 103.23828125 120.09765625 C105.1994463 120.39587117 105.1994463 120.39587117 107.2542572 120.35835266 C108.43806221 120.36897987 108.43806221 120.36897987 109.64578247 120.37982178 C110.93088211 120.37610565 110.93088211 120.37610565 112.24194336 120.37231445 C113.60602577 120.37998085 113.60602577 120.37998085 114.99766541 120.38780212 C118.00371888 120.40170203 121.0095432 120.40074107 124.015625 120.3984375 C126.10543401 120.40232414 128.19524224 120.40665875 130.28504944 120.41142273 C134.66556356 120.41888575 139.04599709 120.418593 143.42651367 120.41333008 C149.04001684 120.40753468 154.65319014 120.42446788 160.26663876 120.44767475 C164.58262562 120.46240633 168.89853293 120.46328458 173.21454048 120.46016502 C175.28419206 120.4606785 177.35384806 120.4659212 179.42347527 120.47597694 C182.31760981 120.48831301 185.21110037 120.48156659 188.10522461 120.4699707 C188.95993347 120.47761444 189.81464233 120.48525818 190.69525146 120.49313354 C195.36250647 120.45179942 198.45428455 120.13761202 202.23828125 117.09765625 C203.88850301 114.80600678 203.88850301 114.80600678 204.23828125 112.09765625 C203.12064918 109.75595096 202.07503764 107.93441264 200.23828125 106.09765625 C197.14930455 105.98631867 194.0824819 105.94025034 190.99267578 105.93652344 C190.02199158 105.93155853 189.05130737 105.92659363 188.0512085 105.92147827 C184.8244965 105.90681501 181.59783366 105.90004778 178.37109375 105.89453125 C176.13768512 105.88878328 173.90427651 105.88302551 171.67086792 105.8772583 C166.98158538 105.86673648 162.29232004 105.86090154 157.60302734 105.85742188 C151.58458797 105.85193431 145.56637451 105.8279055 139.54800606 105.79944992 C134.93272226 105.78085656 130.31749324 105.77561971 125.70217514 105.774086 C123.48293701 105.77105153 121.26370001 105.76299646 119.04449844 105.74990082 C115.94371445 105.73290914 112.84348701 105.73470377 109.74267578 105.74121094 C108.8199588 105.73199615 107.89724182 105.72278137 106.94656372 105.71328735 C106.10246948 105.71885651 105.25837524 105.72442566 104.38870239 105.73016357 C103.28864711 105.72796373 103.28864711 105.72796373 102.16636848 105.72571945 C99.68227691 106.20491202 98.81260147 107.16000604 97.23828125 109.09765625 Z M68.37573242 158.7331543 C67.33909164 159.77010819 66.30782842 160.81245847 65.28125 161.859375 C64.45951042 162.68535942 64.45951042 162.68535942 63.62117004 163.5280304 C61.88459332 165.27573932 60.15512828 167.03029624 58.42578125 168.78515625 C57.24460459 169.97637169 56.06296865 171.16713191 54.88085938 172.35742188 C51.99465768 175.26559153 49.1148106 178.17992042 46.23828125 181.09765625 C43.08530272 179.60645414 41.14605862 178.12958549 38.80078125 175.53515625 C36.70295094 173.39706907 35.36673661 172.15576701 32.61328125 170.91015625 C29.12170514 171.185807 27.64144564 172.62773729 25.23828125 175.09765625 C24.08062275 176.97722869 24.08062275 176.97722869 24.23828125 179.09765625 C26.63773238 183.95763545 30.27942674 187.54076018 34.05078125 191.34765625 C34.95666992 192.30285156 34.95666992 192.30285156 35.88085938 193.27734375 C38.53113537 195.95900084 40.74433253 197.86998187 44.1875 199.45703125 C49.24716789 198.86101403 51.72774034 195.60404349 55.23828125 192.09765625 C56.3182632 191.05906985 57.40028901 190.02260634 58.48388672 188.98779297 C61.60130153 185.99924945 64.68160634 182.975317 67.74975586 179.9362793 C69.04102683 178.66170368 70.33765733 177.39253654 71.6394043 176.12866211 C73.53747936 174.28528662 75.41862921 172.42605024 77.296875 170.5625 C77.8790831 170.00296127 78.4612912 169.44342255 79.06114197 168.8669281 C81.71388621 166.20004389 83.10365694 164.52660276 84.25024414 160.87329102 C84.52076925 157.85350792 84.52076925 157.85350792 81.98828125 155.22265625 C76.47340067 150.96115762 72.84952352 154.61421401 68.37573242 158.7331543 Z M98.23828125 171.09765625 C96.6966495 174.18091975 96.9408059 176.70643724 97.23828125 180.09765625 C98.99353019 182.17818252 100.45982324 182.98774119 103.1602478 183.36903 C105.65341744 183.49030995 108.12889463 183.50276288 110.625 183.48583984 C112.05001328 183.49372528 112.05001328 183.49372528 113.5038147 183.50177002 C116.64463737 183.51497567 119.7849534 183.50622977 122.92578125 183.49609375 C125.10766701 183.49811432 127.2895521 183.50102561 129.47143555 183.50479126 C134.04449899 183.50921539 138.61738667 183.50278058 143.19042969 183.48876953 C149.05515026 183.47167775 154.91945897 183.48151843 160.78416443 183.49948692 C165.28970448 183.51032227 169.79514672 183.50687953 174.3006897 183.49910355 C176.4632675 183.49710086 178.62585416 183.49956321 180.78842163 183.50654221 C183.80970822 183.51415244 186.8303258 183.50255812 189.8515625 183.48583984 C190.74726959 183.49191254 191.64297668 183.49798523 192.56582642 183.50424194 C197.37650343 183.46951473 197.37650343 183.46951473 201.77026367 181.69058228 C203.55816098 179.75055908 204.08299905 178.73745364 204.23828125 176.09765625 C203.47412548 173.17997059 203.01754584 171.5810253 200.41241455 169.96509171 C198.13573674 169.05674305 196.57720866 168.84631829 194.13964844 168.84368896 C192.92843323 168.83522949 192.92843323 168.83522949 191.69274902 168.82659912 C190.81574341 168.83064758 189.93873779 168.83469604 189.03515625 168.83886719 C188.10465454 168.83536255 187.17415283 168.83185791 186.2154541 168.82824707 C183.13965393 168.8194446 180.06408376 168.82527373 176.98828125 168.83203125 C174.85123653 168.83068418 172.71419211 168.82874329 170.57714844 168.82623291 C166.09827761 168.82328366 161.61948656 168.82757296 157.140625 168.83691406 C151.39705048 168.84830843 145.65366288 168.8417479 139.91009521 168.82976913 C135.49721872 168.82254521 131.08438661 168.82484093 126.67150879 168.83002472 C124.55358864 168.83135974 122.43566448 168.82971866 120.31774902 168.82506561 C117.35885938 168.81999172 114.40027327 168.82772292 111.44140625 168.83886719 C110.56440063 168.83481873 109.68739502 168.83077026 108.78381348 168.82659912 C107.57259827 168.83505859 107.57259827 168.83505859 106.33691406 168.84368896 C105.6378595 168.84444302 104.93880493 168.84519707 104.21856689 168.84597397 C101.85586846 169.14625859 100.26237369 169.85482194 98.23828125 171.09765625 Z M67.52734375 223.22265625 C66.91434418 223.84414551 66.3013446 224.46563477 65.66976929 225.10595703 C63.71971761 227.08953101 61.79158222 229.09295362 59.86328125 231.09765625 C58.54305995 232.44797821 57.22146002 233.79695375 55.8984375 235.14453125 C52.66219492 238.44684286 49.44544967 241.76711087 46.23828125 245.09765625 C42.80114929 243.49705075 40.91976632 241.78001687 38.42578125 238.91015625 C35.14299059 235.49577836 35.14299059 235.49577836 30.42578125 234.78515625 C27.16907098 235.87042608 27.16907098 235.87042608 25.17578125 238.28515625 C23.90388474 242.10084577 24.58405983 243.43567269 26.23828125 247.09765625 C28.29542146 249.71923134 30.60496674 252.02343218 32.98828125 254.34765625 C33.59671875 254.9715625 34.20515625 255.59546875 34.83203125 256.23828125 C38.31033096 259.68685191 41.20471404 262.41001046 46.23828125 263.09765625 C51.21655396 260.77383985 54.84180826 256.83445741 58.69140625 253.015625 C59.39223328 252.32382645 60.0930603 251.63202789 60.81512451 250.91926575 C62.29026664 249.45859286 63.76264599 247.99512519 65.23242188 246.52905273 C67.48243685 244.29096966 69.75043328 242.07222743 72.01953125 239.85351562 C73.45296925 238.42953844 74.88529938 237.00444497 76.31640625 235.578125 C76.99552063 234.91854294 77.67463501 234.25896088 78.37432861 233.57939148 C81.25590334 230.66977059 83.02771028 228.76963713 84.26855469 224.80981445 C84.44805631 221.9495164 84.44805631 221.9495164 82.67578125 219.22265625 C80.41850325 216.89298333 80.41850325 216.89298333 77.50537109 216.58203125 C72.77651868 217.32835738 70.74324683 219.83549008 67.52734375 223.22265625 Z M97.23828125 236.09765625 C96.48816758 239.55493983 96.48816758 239.55493983 97.23828125 243.09765625 C100.0567694 246.25722972 102.32527325 247.34434063 106.45043945 247.60559082 C108.14648469 247.62928422 109.84292492 247.6309867 111.5390625 247.61523438 C112.93262466 247.62574829 112.93262466 247.62574829 114.3543396 247.63647461 C117.42012572 247.65405536 120.48498602 247.64243134 123.55078125 247.62890625 C125.68400245 247.63160113 127.81722245 247.63548352 129.95043945 247.64050293 C134.41922715 247.6463981 138.88769484 247.63783419 143.35644531 247.61914062 C149.08327202 247.59635133 154.80934888 247.60947428 160.53614807 247.63343048 C164.9405278 247.64788778 169.34472989 247.64328272 173.74911499 247.63291931 C175.86062712 247.63025185 177.97215541 247.63352244 180.08364868 247.64283752 C183.03536674 247.65300174 185.98587221 247.63750333 188.9375 247.61523438 C189.80933929 247.6233313 190.68117859 247.63142822 191.57943726 247.63977051 C195.6652544 247.5826925 197.72643825 247.4217131 201.25708008 245.18640137 C203.78535356 242.55339539 203.78535356 242.55339539 204.23828125 239.09765625 C202.46964536 235.40006447 202.46964536 235.40006447 199.23828125 233.09765625 C196.17780258 232.98840007 193.1397335 232.94031335 190.07861328 232.93652344 C189.12889648 232.93155853 188.17917969 232.92659363 187.20068359 232.92147827 C184.04914636 232.90683591 180.89765945 232.90005136 177.74609375 232.89453125 C175.56135048 232.88878172 173.37660724 232.88302396 171.19186401 232.8772583 C166.60691085 232.86674255 162.02197525 232.86090357 157.43701172 232.85742188 C151.55658068 232.8519345 145.67638088 232.82790357 139.79602242 232.79944992 C135.28192462 232.78084411 130.76788276 232.77561905 126.25374985 232.774086 C124.08557749 232.77105453 121.91740624 232.76300946 119.74927139 232.74990082 C116.71824703 232.7328827 113.68779078 232.73471024 110.65673828 232.74121094 C109.30846451 232.72738876 109.30846451 232.72738876 107.93295288 232.71328735 C101.92565939 232.65226089 101.92565939 232.65226089 97.23828125 236.09765625 Z " fill="#2A78C2" transform="translate(141.76171875,143.90234375)"/>
<path d="M0 0 C7.70717968 4.62430781 12.72105665 10.30622032 15.4375 18.9375 C16.34340282 23.44568908 16.55414026 27.71055735 16.53515625 32.3046875 C16.5337413 32.98427521 16.53232635 33.66386292 16.53086853 34.36404419 C16.52531518 36.51357612 16.51277169 38.66300008 16.5 40.8125 C16.49497896 42.27864432 16.49041711 43.74479029 16.48632812 45.2109375 C16.47536111 48.78649283 16.45812919 52.36198586 16.4375 55.9375 C17.45062256 55.91655273 18.46374512 55.89560547 19.50756836 55.87402344 C23.30380855 55.8010533 27.09998811 55.75549565 30.89672852 55.71777344 C32.53290264 55.69778668 34.16900651 55.67058757 35.80493164 55.63574219 C55.36213681 55.22991675 55.36213681 55.22991675 62.59375 61.9375 C63.0371875 62.5975 63.480625 63.2575 63.9375 63.9375 C64.4015625 64.5975 64.865625 65.2575 65.34375 65.9375 C67.90249363 70.6163455 68.0389009 75.72249503 67.4375 80.9375 C65.62149246 86.96533227 61.86154546 91.73006069 56.4375 94.9375 C50.05507508 97.29693732 43.97122408 97.22684578 37.21923828 97.2121582 C36.00372284 97.21726913 34.7882074 97.22238007 33.53585815 97.22764587 C30.21750963 97.23912959 26.89941166 97.24162099 23.58106089 97.23908257 C20.80295178 97.23800882 18.02486541 97.2429066 15.2467612 97.247688 C8.68809024 97.25876347 2.12947656 97.25923181 -4.42919922 97.25317383 C-11.17696189 97.24713665 -17.92451591 97.25944294 -24.672243 97.2807439 C-30.48225662 97.29840482 -36.29220409 97.30435416 -42.10224354 97.30110615 C-45.56495349 97.29930011 -49.0275146 97.30186101 -52.49020004 97.31582069 C-56.3553652 97.33082137 -60.22026812 97.32138972 -64.08544922 97.30981445 C-65.22028748 97.31745819 -66.35512573 97.32510193 -67.52435303 97.33297729 C-75.33877229 97.28138585 -82.31012541 96.69494802 -88.4375 91.5 C-89.13875 90.654375 -89.84 89.80875 -90.5625 88.9375 C-91.14 88.256875 -91.7175 87.57625 -92.3125 86.875 C-95.3459844 82.17309918 -95.13890992 76.33626893 -94.5625 70.9375 C-92.76949157 65.02569506 -89.60913578 61.36921233 -84.5625 57.9375 C-79.78949816 55.94186524 -75.42300282 55.67048611 -70.3203125 55.7421875 C-69.55194061 55.7450174 -68.78356873 55.74784729 -67.99191284 55.75076294 C-65.55694479 55.76188689 -63.12235538 55.7869764 -60.6875 55.8125 C-59.02865118 55.82253989 -57.36979654 55.83166397 -55.7109375 55.83984375 C-51.66131421 55.86180063 -47.61197113 55.89627594 -43.5625 55.9375 C-43.57821045 55.02049316 -43.5939209 54.10348633 -43.61010742 53.15869141 C-43.66166391 49.71071559 -43.69905554 46.2631577 -43.72729492 42.81494141 C-43.74225184 41.33115111 -43.76262495 39.84740401 -43.78881836 38.36376953 C-44.00110181 26.01802982 -43.3475291 14.48802956 -34.5625 4.9375 C-24.72828655 -2.35391059 -11.53311422 -5.42839481 0 0 Z " fill="#3A4550" transform="translate(269.5625,69.0625)"/>
</svg>
